{
.formatVersion = 3;
familyName = Anta;
customParameters = (
{
name = glyphOrder;
value = (
.notdef,
uni0000,
uni000D,
space,
exclam,
quotedbl,
numbersign,
dollar,
percent,
ampersand,
quotesingle,
parenleft,
parenright,
asterisk,
plus,
comma,
hyphen,
period,
slash,
zero,
one,
two,
three,
four,
five,
six,
seven,
eight,
nine,
colon,
semicolon,
less,
equal,
greater,
question,
at,
A,
B,
C,
D,
E,
F,
G,
H,
I,
J,
K,
L,
M,
N,
O,
P,
Q,
R,
S,
T,
U,
V,
W,
X,
Y,
Z,
bracketleft,
backslash,
bracketright,
asciicircum,
underscore,
grave,
a,
b,
c,
d,
e,
f,
g,
h,
i,
j,
k,
l,
m,
n,
o,
p,
q,
r,
s,
t,
u,
v,
w,
x,
y,
z,
braceleft,
bar,
braceright,
asciitilde,
uni00A0,
exclamdown,
cent,
sterling,
currency,
yen,
brokenbar,
section,
dieresis,
copyright,
ordfeminine,
guillemotleft,
logicalnot,
uni00AD,
registered,
macron,
degree,
plusminus,
twosuperior,
threesuperior,
acute,
uni00B5,
paragraph,
periodcentered,
cedilla,
onesuperior,
ordmasculine,
guillemotright,
onequarter,
onehalf,
threequarters,
questiondown,
Agrave,
Aacute,
Acircumflex,
Atilde,
Adieresis,
Aring,
AE,
Ccedilla,
Egrave,
Eacute,
Ecircumflex,
Edieresis,
Igrave,
Iacute,
Icircumflex,
Idieresis,
Eth,
Ntilde,
Ograve,
Oacute,
Ocircumflex,
Otilde,
Odieresis,
multiply,
Oslash,
Ugrave,
Uacute,
Ucircumflex,
Udieresis,
Yacute,
Thorn,
germandbls,
agrave,
aacute,
acircumflex,
atilde,
adieresis,
aring,
ae,
ccedilla,
egrave,
eacute,
ecircumflex,
edieresis,
igrave,
iacute,
icircumflex,
idieresis,
eth,
ntilde,
ograve,
oacute,
ocircumflex,
otilde,
odieresis,
divide,
oslash,
ugrave,
uacute,
ucircumflex,
udieresis,
yacute,
thorn,
ydieresis,
Amacron,
amacron,
Abreve,
abreve,
Aogonek,
aogonek,
Cacute,
cacute,
Ccircumflex,
ccircumflex,
Cdotaccent,
cdotaccent,
Ccaron,
ccaron,
Dcaron,
dcaron,
Dcroat,
dcroat,
Emacron,
emacron,
Ebreve,
ebreve,
Edotaccent,
edotaccent,
Eogonek,
eogonek,
Ecaron,
ecaron,
Gcircumflex,
gcircumflex,
Gbreve,
gbreve,
Gdotaccent,
gdotaccent,
uni0122,
uni0123,
Hcircumflex,
hcircumflex,
Hbar,
hbar,
Itilde,
itilde,
Imacron,

glyphs = (
{
glyphname = .notdef;
layers = (
{
background = {
};
hints = (
{
horizontal = 1;
place = (0,102);
type = Stem;
},
{
horizontal = 1;
place = (990,102);
type = Stem;
},
{
place = (102,102);
type = Stem;
},
{
place = (820,102);
type = Stem;
}
);
layerId = "3916868A-960B-40DE-A2A5-83D1860F42F7";
shapes = (
{
closed = 1;
nodes = (
(102,0,l),
(102,1092,l),
(922,1092,l),
(922,0,l)
);
},
{
closed = 1;
nodes = (
(204,102,l),
(820,102,l),
(820,990,l),
(204,990,l)
);
}
);
width = 1024;
}
);
leftKerningGroup = at;
},
{
glyphname = exclam;
layers = (
{
background = {
};
hints = (
{
horizontal = 1;
place = (-10,260);
type = Stem;
},
{
horizontal = 1;
place = (1402,20);
type = Stem;
},
{
place = (140,260);
type = Stem;
},
{
place = (165,211);
type = Stem;
}
);
layerId = "3916868A-960B-40DE-A2A5-83D1860F42F7";
shapes = (
{
closed = 1;
nodes = (
(140,192,o),
(198,250,o),
(270,250,cs),
(343,250,o),
(400,193,o),
(400,120,cs),
(400,47,o),
(343,-10,o),
(270,-10,cs),
(198,-10,o),
(140,48,o),
(140,120,cs)
);
},
{
closed = 1;
nodes = (
(165,333,l),
(165,1422,l),
(376,1422,l),
(376,333,l)
);
}
);
width = 540;
}
);
unicode = 33;
},
{
glyphname = quotedbl;
layers = (
{
background = {
};
hints = (
{
horizontal = 1;
place = (1164,258);
type = Stem;
},
{
place = (127,135);
type = Stem;
},
{
place = (360,135);
type = Stem;
}
);
layerId = "3916868A-960B-40DE-A2A5-83D1860F42F7";
shapes = (
{
closed = 1;
nodes = (
(120,1422,l),
(269,1422,l),
(262,1164,l),
(127,1164,l)
);
},
{
closed = 1;
nodes = (
(353,1422,l),
(502,1422,l),
(495,1164,l),
(360,1164,l)
);
}
);
width = 622;
}
);
leftKerningGroup = at;
unicode = 34;
},
{
glyphname = numbersign;
layers = (
{
background = {
};
hints = (
{
horizontal = 1;
place = (0,21);
type = Stem;
},
{
horizontal = 1;
place = (492,188);
type = Stem;
},
{
horizontal = 1;
place = (808,189);
type = Stem;
},
{
horizontal = 1;
place = (1402,20);
type = Stem;
}
);
layerId = "3916868A-960B-40DE-A2A5-83D1860F42F7";
shapes = (
{
closed = 1;
nodes = (
(120,492,l),
(133,680,l),
(355,680,l),
(364,808,l),
(142,808,l),
(156,997,l),
(378,997,l),
(407,1422,l),
(596,1422,l),
(566,997,l),
(814,997,l),
(844,1422,l),
(1032,1422,l),
(1002,997,l),
(1224,997,l),
(1209,808,l),
(988,808,l),
(980,680,l),
(1200,680,l),
(1187,492,l),
(966,492,l),
(932,0,l),
(744,0,l),
(778,492,l),
(530,492,l),
(496,0,l),
(307,0,l),
(342,492,l)
);
},
{
closed = 1;
nodes = (
(543,680,l),
(792,680,l),
(800,808,l),
(553,808,l)
);
}
);
width = 1344;
}
);
leftKerningGroup = at;
unicode = 35;
},
{
glyphname = dollar;
layers = (
{
background = {
};
hints = (
{
horizontal = 1;
place = (0,211);
type = Stem;
},
{
horizontal = 1;
place = (635,210);
type = Stem;
},
{
horizontal = 1;
place = (1212,210);
type = Stem;
},
{
place = (140,211);
type = Stem;
},
{
place = (625,186);
type = Stem;
},
{
place = (1088,211);
type = Stem;
}
);
layerId = "3916868A-960B-40DE-A2A5-83D1860F42F7";
shapes = (
{
closed = 1;
nodes = (
(140,1078,ls),
(140,1269,o),
(298,1422,o),
(493,1422,cs),
(625,1422,l),
(625,1535,l),
(811,1535,l),
(811,1422,l),
(1228,1422,l),
(1228,1212,l),
(811,1212,l),
(811,845,l),
(946,845,ls),
(1142,845,o),
(1299,691,o),
(1299,500,cs),
(1299,345,ls),
(1299,154,o),
(1142,0,o),
(946,0,cs),
(811,0,l),
(811,-113,l),
(625,-113,l),
(625,0,l),
(141,0,l),
(141,211,l),
(625,211,l),
(625,635,l),
(493,635,ls),
(297,635,o),
(140,786,o),
(140,973,cs)
);
},
{
closed = 1;
nodes = (
(351,974,ls),
(351,902,o),
(414,845,o),
(493,845,cs),
(625,845,l),
(625,1212,l),
(493,1212,ls),
(414,1212,o),
(351,1150,o),
(351,1072,cs)
);
},
{
closed = 1;
nodes = (
(811,211,l),
(946,211,ls),
(1025,211,o),
(1088,270,o),
(1088,346,cs),
(1088,500,ls),
(1088,575,o),
(1024,635,o),
(946,635,cs),
(811,635,l)
);
}
);
width = 1439;
}
);
leftKerningGroup = at;
unicode = 36;
},
{
glyphname = percent;
layers = (
{
background = {
};
hints = (
{
horizontal = 1;
place = (0,188);
type = Stem;
},
{
horizontal = 1;
place = (579,188);
type = Stem;
},
{
horizontal = 1;
place = (655,188);
type = Stem;
},
{
horizontal = 1;
place = (1234,188);
type = Stem;
},
{
place = (120,189);
type = Stem;
},
{
place = (604,188);
type = Stem;
},
{
place = (1311,189);
type = Stem;
},
{
place = (1795,188);
type = Stem;
}
);
layerId = "3916868A-960B-40DE-A2A5-83D1860F42F7";
shapes = (
{
closed = 1;
nodes = (
(120,1141,ls),
(120,1296,o),
(246,1422,o),
(402,1422,cs),
(510,1422,ls),
(666,1422,o),
(792,1296,o),
(792,1141,cs),
(792,860,ls),
(792,705,o),
(666,579,o),
(510,579,cs),
(402,579,ls),
(246,579,o),
(120,705,o),
(120,860,cs)
);
},
{
closed = 1;
nodes = (
(309,859,ls),
(309,808,o),
(351,767,o),
(402,767,cs),
(510,767,ls),
(562,767,o),
(604,808,o),
(604,859,cs),
(604,1142,ls),
(604,1193,o),
(562,1234,o),
(510,1234,cs),
(402,1234,ls),
(351,1234,o),
(309,1193,o),
(309,1142,cs)
);
},
{
closed = 1;
nodes = (
(438,0,l),
(1434,1422,l),
(1664,1422,l),
(668,0,l)
);
},
{
closed = 1;
nodes = (
(1311,562,ls),
(1311,717,o),
(1437,843,o),
(1593,843,cs),
(1701,843,ls),
(1857,843,o),
(1983,717,o),
(1983,562,cs),
(1983,281,ls),
(1983,126,o),
(1857,0,o),
(1701,0,cs),
(1593,0,ls),
(1437,0,o),
(1311,126,o),
(1311,281,cs)
);
},
{
closed = 1;
nodes = (
(1500,280,ls),
(1500,229,o),
(1542,188,o),
(1593,188,cs),
(1701,188,ls),
(1753,188,o),
(1795,229,o),
(1795,280,cs),
(1795,563,ls),
(1795,614,o),
(1753,655,o),
(1701,655,cs),
(1593,655,ls),
(1542,655,o),
(1500,614,o),
(1500,563,cs)
);
}
);
width = 2103;
}
);
leftKerningGroup = at;
unicode = 37;
},
{
glyphname = ampersand;
layers = (
{
background = {
};
hints = (
{
horizontal = 1;
place = (0,211);
type = Stem;
},
{
horizontal = 1;
place = (1212,210);
type = Stem;
},
{
place = (120,211);
type = Stem;
},
{
place = (175,210);
type = Stem;
},
{
place = (895,211);
type = Stem;
}
);
layerId = "3916868A-960B-40DE-A2A5-83D1860F42F7";
shapes = (
{
closed = 1;
nodes = (
(120,479,ls),
(120,592,o),
(165,696,o),
(243,761,c),
(197,841,o),
(175,932,o),
(175,1045,cs),
(175,1082,ls),
(175,1270,o),
(327,1422,o),
(514,1422,cs),
(1106,1422,l),
(1106,1212,l),
(514,1212,ls),
(443,1212,o),
(385,1154,o),
(385,1083,cs),
(385,1045,ls),
(385,939,o),
(427,840,o),
(493,786,cs),
(895,460,l),
(895,818,l),
(1106,818,l),
(1106,267,l),
(1371,0,l),
(1074,0,l),
(1015,59,l),
(960,20,o),
(890,0,o),
(814,0,cs),
(459,0,ls),
(272,0,o),
(120,152,o),
(120,340,cs)
);
},
{
closed = 1;
nodes = (
(331,340,ls),
(331,269,o),
(388,211,o),
(459,211,cs),
(760,211,ls),
(792,211,o),
(821,213,o),
(844,218,c),
(387,599,l),
(350,564,o),
(331,523,o),
(331,479,cs)
);
}
);
width = 1411;
}
);
leftKerningGroup = at;
unicode = 38;
},
{
glyphname = quotesingle;
layers = (
{
background = {
};
hints = (
{
horizontal = 1;
place = (1146,276);
type = Stem;
},
{
place = (127,135);
type = Stem;
}
);
layerId = "3916868A-960B-40DE-A2A5-83D1860F42F7";
shapes = (
{
closed = 1;
nodes = (
(120,1422,l),
(269,1422,l),
(262,1146,l),
(127,1146,l)
);
}
);
width = 389;
}
);
leftKerningGroup = at;
unicode = 39;
},
{
glyphname = parenleft;
layers = (
{
background = {
};
hints = (
{
horizontal = 1;
place = (-390,210);
type = Stem;
},
{
horizontal = 1;
place = (1419,210);
type = Stem;
},
{
place = (140,211);
type = Stem;
}
);
layerId = "3916868A-960B-40DE-A2A5-83D1860F42F7";
shapes = (
{
closed = 1;
nodes = (
(140,1300,ls),
(140,1554,o),
(254,1629,o),
(637,1629,c),
(637,1419,l),
(404,1419,o),
(351,1397,o),
(351,1300,cs),
(351,-61,ls),
(351,-157,o),
(406,-180,o),
(637,-180,c),
(637,-390,l),
(253,-390,o),
(140,-315,o),
(140,-61,cs)
);
}
);
width = 677;
}
);
leftKerningGroup = at;
unicode = 40;
},
{
glyphname = parenright;
layers = (
{
background = {
};
hints = (
{
horizontal = 1;
place = (-390,207);
type = Stem;
},
{
horizontal = 1;
place = (1422,208);
type = Stem;
},
{
place = (329,208);
type = Stem;
}
);
layerId = "3916868A-960B-40DE-A2A5-83D1860F42F7";
shapes = (
{
closed = 1;
nodes = (
(40,-183,l),
(274,-183,o),
(329,-160,o),
(329,-63,cs),
(329,1303,ls),
(329,1400,o),
(275,1422,o),
(40,1422,c),
(40,1630,l),
(426,1630,o),
(537,1557,o),
(537,1303,cs),
(537,-63,ls),
(537,-318,o),
(427,-390,o),
(40,-390,c)
);
}
);
width = 677;
}
);
leftKerningGroup = at;
unicode = 41;
},
{
glyphname = asterisk;
layers = (
{
background = {
};
hints = (
{
horizontal = 1;
place = (213,658);
type = Stem;
},
{
place = (366,147);
type = Stem;
}
);
layerId = "3916868A-960B-40DE-A2A5-83D1860F42F7";
shapes = (
{
closed = 1;
nodes = (
(120,644,l),
(193,769,l),
(366,670,l),
(366,871,l),
(513,871,l),
(513,670,l),
(690,770,l),
(759,643,l),
(586,542,l),
(761,441,l),
(688,316,l),
(513,416,l),
(513,213,l),
(366,213,l),
(366,415,l),
(193,314,l),
(121,442,l),
(294,544,l)
);
}
);
width = 881;
}
);
leftKerningGroup = at;
unicode = 42;
},
{
glyphname = plus;
layers = (
{
background = {
};
hints = (
{
horizontal = 1;
place = (466,176);
type = Stem;
},
{
place = (549,176);
type = Stem;
}
);
layerId = "3916868A-960B-40DE-A2A5-83D1860F42F7";
shapes = (
{
closed = 1;
nodes = (
(140,466,l),
(140,642,l),
(549,642,l),
(549,1041,l),
(725,1041,l),
(725,642,l),
(1134,642,l),
(1134,466,l),
(725,466,l),
(725,68,l),
(549,68,l),
(549,466,l)
);
}
);
width = 1274;
}
);
leftKerningGroup = at;
unicode = 43;
},
{
glyphname = comma;
layers = (
{
background = {
};
hints = (
{
horizontal = 1;
place = (-150,370);
type = Stem;
},
{
place = (40,310);
type = Stem;
}
);
layerId = "3916868A-960B-40DE-A2A5-83D1860F42F7";
shapes = (
{
closed = 1;
nodes = (
(40,-150,l),
(150,220,l),
(350,220,l),
(200,-150,l)
);
}
);
width = 470;
}
);
leftKerningGroup = at;
unicode = 44;
},
{
glyphname = hyphen;
layers = (
{
background = {
};
hints = (
{
horizontal = 1;
place = (466,176);
type = Stem;
},
{
place = (120,627);
type = Stem;
}
);
layerId = "3916868A-960B-40DE-A2A5-83D1860F42F7";
shapes = (
{
closed = 1;
nodes = (
(120,466,l),
(120,642,l),
(747,642,l),
(747,466,l)
);
}
);
width = 867;
}
);
leftKerningGroup = at;
unicode = 45;
},
{
glyphname = period;
layers = (
{
background = {
};
hints = (
{
horizontal = 1;
place = (-10,260);
type = Stem;
},
{
place = (115,260);
type = Stem;
}
);
layerId = "3916868A-960B-40DE-A2A5-83D1860F42F7";
shapes = (
{
closed = 1;
nodes = (
(115,192,o),
(173,250,o),
(245,250,cs),
(318,250,o),
(375,193,o),
(375,120,cs),
(375,47,o),
(318,-10,o),
(245,-10,cs),
(173,-10,o),
(115,48,o),
(115,120,cs)
);
}
);
width = 490;
}
);
leftKerningGroup = at;
unicode = 46;
},
{
glyphname = slash;
layers = (
{
background = {
};
layerId = "3916868A-960B-40DE-A2A5-83D1860F42F7";
shapes = (
{
closed = 1;
nodes = (
(20,-42,l),
(1131,1540,l),
(1371,1540,l),
(260,-42,l)
);
}
);
width = 1391;
}
);
leftKerningGroup = at;
unicode = 47;
},
{
glyphname = zero;
layers = (
{
background = {
};
hints = (
{
horizontal = 1;
place = (0,211);
type = Stem;
},
{
horizontal = 1;
place = (1212,210);
type = Stem;
},
{
place = (120,211);
type = Stem;
},
{
place = (1013,210);
type = Stem;
}
);
layerId = "3916868A-960B-40DE-A2A5-83D1860F42F7";
shapes = (
{
closed = 1;
nodes = (
(120,1022,ls),
(120,1243,o),
(301,1422,o),
(523,1422,cs),
(799,1422,ls),
(1033,1422,o),
(1223,1243,o),
(1223,1022,cs),
(1223,398,ls),
(1223,178,o),
(1034,0,o),
(801,0,cs),
(544,0,ls),
(310,0,o),
(120,178,o),
(120,398,cs)
);
},
{
closed = 1;
nodes = (
(331,398,ls),
(331,295,o),
(426,211,o),
(544,211,cs),
(801,211,ls),
(918,211,o),
(1013,295,o),
(1013,398,cs),
(1013,1022,ls),
(1013,1127,o),
(917,1212,o),
(799,1212,cs),
(523,1212,ls),
(417,1212,o),
(331,1127,o),
(331,1022,cs)
);
}
);
width = 1343;
}
);
leftKerningGroup = C2;
rightKerningGroup = D;
unicode = 48;
},
{
glyphname = one;
layers = (
{
background = {
};
hints = (
{
horizontal = 1;
place = (0,21);
type = Stem;
},
{
horizontal = 1;
place = (1212,210);
type = Stem;
},
{
place = (317,210);
type = Stem;
}
);
layerId = "3916868A-960B-40DE-A2A5-83D1860F42F7";
shapes = (
{
closed = 1;
nodes = (
(70,1212,l),
(70,1422,l),
(527,1422,l),
(527,0,l),
(317,0,l),
(317,1212,l)
);
}
);
width = 667;
}
);
rightKerningGroup = H;
unicode = 49;
},
{
glyphname = two;
layers = (
{
background = {
};
hints = (
{
horizontal = 1;
place = (0,210);
type = Stem;
},
{
horizontal = 1;
place = (1212,210);
type = Stem;
},
{
place = (120,210);
type = Stem;
},
{
place = (1010,211);
type = Stem;
}
);
layerId = "3916868A-960B-40DE-A2A5-83D1860F42F7";
shapes = (
{
closed = 1;
nodes = (
(120,0,l),
(120,480,ls),
(120,634,o),
(181,697,o),
(367,732,cs),
(897,834,ls),
(962,846,o),
(1010,908,o),
(1010,980,cs),
(1010,1072,ls),
(1010,1149,o),
(948,1212,o),
(871,1212,cs),
(191,1212,l),
(191,1422,l),
(871,1422,ls),
(1064,1422,o),
(1221,1268,o),
(1221,1078,cs),
(1221,976,ls),
(1221,808,o),
(1117,665,o),
(975,637,cs),
(380,524,ls),
(341,516,o),
(330,507,o),
(330,481,cs),
(330,210,l),
(1220,210,l),
(1220,0,l)
);
}
);
width = 1341;
}
);
unicode = 50;
},
{
glyphname = three;
layers = (
{
background = {
};
hints = (
{
horizontal = 1;
place = (0,211);
type = Stem;
},
{
horizontal = 1;
place = (639,210);
type = Stem;
},
{
horizontal = 1;
place = (1212,210);
type = Stem;
},
{
place = (976,211);
type = Stem;
},
{
place = (1004,210);
type = Stem;
}
);
layerId = "3916868A-960B-40DE-A2A5-83D1860F42F7";
shapes = (
{
closed = 1;
nodes = (
(120,0,l),
(120,211,l),
(865,211,ls),
(942,211,o),
(1004,273,o),
(1004,348,cs),
(1004,482,ls),
(1004,568,o),
(919,639,o),
(817,639,cs),
(493,639,l),
(493,849,l),
(817,849,ls),
(905,849,o),
(976,919,o),
(976,1005,cs),
(976,1072,ls),
(976,1149,o),
(914,1212,o),
(837,1212,cs),
(120,1212,l),
(120,1422,l),
(837,1422,ls),
(1031,1422,o),
(1187,1266,o),
(1187,1072,cs),
(1187,1001,ls),
(1187,898,o),
(1146,813,o),
(1067,755,c),
(1170,693,o),
(1214,610,o),
(1214,480,cs),
(1214,346,ls),
(1214,155,o),
(1057,0,o),
(865,0,cs)
);
}
);
width = 1334;
}
);
rightKerningGroup = B;
unicode = 51;
},
{
glyphname = four;
layers = (
{
background = {
};
hints = (
{
horizontal = 1;
place = (0,21);
type = Stem;
},
{
horizontal = 1;
place = (585,210);
type = Stem;
},
{
horizontal = 1;
place = (1402,20);
type = Stem;
},
{
place = (120,211);
type = Stem;
},
{
place = (960,210);
type = Stem;
}
);
layerId = "3916868A-960B-40DE-A2A5-83D1860F42F7";
shapes = (
{
closed = 1;
nodes = (
(120,1422,l),
(331,1422,l),
(331,934,ls),
(331,857,o),
(393,795,o),
(470,795,cs),
(960,795,l),
(960,1422,l),
(1170,1422,l),
(1170,0,l),
(960,0,l),
(960,585,l),
(470,585,ls),
(277,585,o),
(120,740,o),
(120,932,cs)
);
}
);
width = 1310;
}
);
unicode = 52;
},
{
glyphname = five;
layers = (
{
background = {
};
hints = (
{
horizontal = 1;
place = (0,211);
type = Stem;
},
{
horizontal = 1;
place = (697,205);
type = Stem;
},
{
horizontal = 1;
place = (1212,210);
type = Stem;
},
{
place = (128,210);
type = Stem;
},
{
place = (998,210);
type = Stem;
}
);
layerId = "3916868A-960B-40DE-A2A5-83D1860F42F7";
shapes = (
{
closed = 1;
nodes = (
(331,372,l),
(331,274,o),
(386,211,o),
(470,211,cs),
(858,211,ls),
(935,211,o),
(998,272,o),
(998,348,cs),
(998,543,ls),
(998,628,o),
(936,697,o),
(859,697,cs),
(128,697,l),
(128,1422,l),
(1156,1422,l),
(1156,1212,l),
(338,1212,l),
(338,902,l),
(860,902,ls),
(1052,902,o),
(1208,740,o),
(1208,540,cs),
(1208,346,ls),
(1208,155,o),
(1051,0,o),
(858,0,cs),
(470,0,ls),
(269,0,o),
(120,156,o),
(120,368,c)
);
}
);
width = 1328;
}
);
unicode = 53;
},
{
glyphname = six;
layers = (
{
background = {
};
hints = (
{
horizontal = 1;
place = (0,211);
type = Stem;
},
{
horizontal = 1;
place = (705,193);
type = Stem;
},
{
horizontal = 1;
place = (1212,210);
type = Stem;
},
{
place = (120,211);
type = Stem;
},
{
place = (990,210);
type = Stem;
}
);
layerId = "3916868A-960B-40DE-A2A5-83D1860F42F7";
shapes = (
{
closed = 1;
nodes = (
(120,1072,ls),
(120,1266,o),
(276,1422,o),
(470,1422,cs),
(1133,1422,l),
(1133,1212,l),
(470,1212,ls),
(393,1212,o),
(331,1149,o),
(331,1072,cs),
(331,898,l),
(853,898,ls),
(1045,898,o),
(1200,755,o),
(1200,579,cs),
(1200,347,ls),
(1200,155,o),
(1045,0,o),
(853,0,cs),
(470,0,ls),
(277,0,o),
(120,155,o),
(120,347,cs)
);
},
{
closed = 1;
nodes = (
(331,347,ls),
(331,272,o),
(393,211,o),
(470,211,cs),
(853,211,ls),
(929,211,o),
(990,272,o),
(990,347,cs),
(990,579,ls),
(990,649,o),
(929,705,o),
(853,705,cs),
(331,705,l)
);
}
);
width = 1320;
}
);
leftKerningGroup = C2;
rightKerningGroup = G;
unicode = 54;
},
{
glyphname = seven;
layers = (
{
background = {
};
hints = (
{
horizontal = 1;
place = (0,21);
type = Stem;
},
{
horizontal = 1;
place = (1212,210);
type = Stem;
}
);
layerId = "3916868A-960B-40DE-A2A5-83D1860F42F7";
shapes = (
{
closed = 1;
nodes = (
(120,1212,l),
(120,1422,l),
(1201,1422,l),
(1201,1270,l),
(432,0,l),
(189,0,l),
(924,1212,l)
);
}
);
width = 1321;
}
);
unicode = 55;
},
{
glyphname = eight;
layers = (
{
background = {
};
hints = (
{
horizontal = 1;
place = (0,211);
type = Stem;
},
{
horizontal = 1;
place = (639,210);
type = Stem;
},
{
horizontal = 1;
place = (1211,211);
type = Stem;
},
{
place = (115,211);
type = Stem;
},
{
place = (142,211);
type = Stem;
},
{
place = (959,210);
type = Stem;
},
{
place = (986,210);
type = Stem;
}
);
layerId = "3916868A-960B-40DE-A2A5-83D1860F42F7";
shapes = (
{
closed = 1;
nodes = (
(115,500,ls),
(115,604,o),
(176,701,o),
(274,754,c),
(189,802,o),
(142,883,o),
(142,984,cs),
(142,1072,ls),
(142,1265,o),
(299,1422,o),
(493,1422,cs),
(819,1422,ls),
(1012,1422,o),
(1169,1265,o),
(1169,1072,cs),
(1169,984,ls),
(1169,883,o),
(1122,801,o),
(1038,754,c),
(1136,701,o),
(1196,605,o),
(1196,500,cs),
(1196,366,ls),
(1196,164,o),
(1040,0,o),
(847,0,cs),
(465,0,ls),
(272,0,o),
(115,164,o),
(115,366,cs)
);
},
{
closed = 1;
nodes = (
(326,364,ls),
(326,280,o),
(396,211,o),
(482,211,cs),
(835,211,ls),
(918,211,o),
(986,279,o),
(986,363,cs),
(986,500,ls),
(986,577,o),
(925,639,o),
(850,639,cs),
(465,639,ls),
(388,639,o),
(326,570,o),
(326,485,cs)
);
},
{
closed = 1;
nodes = (
(353,984,ls),
(353,905,o),
(417,849,o),
(507,849,cs),
(805,849,ls),
(895,849,o),
(959,905,o),
(959,984,cs),
(959,1072,ls),
(959,1149,o),
(890,1211,o),
(805,1211,cs),
(493,1211,ls),
(416,1211,o),
(353,1149,o),
(353,1072,cs)
);
}
);
width = 1311;
}
);
rightKerningGroup = B;
unicode = 56;
},
{
glyphname = nine;
layers = (
{
background = {
};
hints = (
{
horizontal = 1;
place = (0,211);
type = Stem;
},
{
horizontal = 1;
place = (525,193);
type = Stem;
},
{
horizontal = 1;
place = (1212,210);
type = Stem;
},
{
place = (120,211);
type = Stem;
},
{
place = (990,210);
type = Stem;
}
);
layerId = "3916868A-960B-40DE-A2A5-83D1860F42F7";
shapes = (
{
closed = 1;
nodes = (
(120,1075,ls),
(120,1267,o),
(276,1422,o),
(468,1422,cs),
(851,1422,ls),
(1044,1422,o),
(1200,1267,o),
(1200,1075,cs),
(1200,350,ls),
(1200,157,o),
(1044,0,o),
(851,0,cs),
(188,0,l),
(188,211,l),
(851,211,ls),
(928,211,o),
(990,273,o),
(990,350,cs),
(990,525,l),
(468,525,ls),
(276,525,o),
(120,668,o),
(120,844,cs)
);
},
{
closed = 1;
nodes = (
(331,846,ls),
(331,775,o),
(392,718,o),
(468,718,cs),
(990,718,l),
(990,1075,ls),
(990,1149,o),
(927,1212,o),
(851,1212,cs),
(468,1212,ls),
(392,1212,o),
(331,1151,o),
(331,1075,cs)
);
}
);
width = 1320;
}
);
rightKerningGroup = D;
unicode = 57;
},
{
glyphname = colon;
layers = (
{
background = {
};
hints = (
{
horizontal = 1;
place = (-10,260);
type = Stem;
},
{
horizontal = 1;
place = (753,260);
type = Stem;
},
{
place = (120,260);
type = Stem;
}
);
layerId = "3916868A-960B-40DE-A2A5-83D1860F42F7";
shapes = (
{
closed = 1;
nodes = (
(120,192,o),
(178,250,o),
(250,250,cs),
(323,250,o),
(380,193,o),
(380,120,cs),
(380,47,o),
(323,-10,o),
(250,-10,cs),
(178,-10,o),
(120,48,o),
(120,120,cs)
);
},
{
closed = 1;
nodes = (
(120,955,o),
(178,1013,o),
(250,1013,cs),
(323,1013,o),
(380,956,o),
(380,883,cs),
(380,810,o),
(323,753,o),
(250,753,cs),
(177,753,o),
(120,810,o),
(120,883,cs)
);
}
);
width = 500;
}
);
leftKerningGroup = at;
unicode = 58;
},
{
glyphname = semicolon;
layers = (
{
background = {
};
hints = (
{
horizontal = 1;
place = (753,260);
type = Stem;
},
{
place = (120,260);
type = Stem;
}
);
layerId = "3916868A-960B-40DE-A2A5-83D1860F42F7";
shapes = (
{
closed = 1;
nodes = (
(40,-150,l),
(150,220,l),
(350,220,l),
(200,-150,l)
);
},
{
closed = 1;
nodes = (
(120,955,o),
(178,1013,o),
(250,1013,cs),
(323,1013,o),
(380,956,o),
(380,883,cs),
(380,810,o),
(323,753,o),
(250,753,cs),
(177,753,o),
(120,810,o),
(120,883,cs)
);
}
);
width = 500;
}
);
leftKerningGroup = at;
unicode = 59;
},
{
glyphname = less;
layers = (
{
background = {
};
layerId = "3916868A-960B-40DE-A2A5-83D1860F42F7";
shapes = (
{
closed = 1;
nodes = (
(110,475,l),
(110,631,l),
(1120,998,l),
(1120,790,l),
(471,553,l),
(1120,317,l),
(1120,108,l)
);
}
);
width = 1230;
}
);
leftKerningGroup = at;
unicode = 60;
},
{
glyphname = equal;
layers = (
{
background = {
};
hints = (
{
horizontal = 1;
place = (290,176);
type = Stem;
},
{
horizontal = 1;
place = (642,175);
type = Stem;
}
);
layerId = "3916868A-960B-40DE-A2A5-83D1860F42F7";
shapes = (
{
closed = 1;
nodes = (
(110,290,l),
(110,466,l),
(1124,466,l),
(1124,290,l)
);
},
{
closed = 1;
nodes = (
(110,642,l),
(110,817,l),
(1124,817,l),
(1124,642,l)
);
}
);
width = 1233;
}
);
leftKerningGroup = at;
unicode = 61;
},
{
glyphname = greater;
layers = (
{
background = {
};
layerId = "3916868A-960B-40DE-A2A5-83D1860F42F7";
shapes = (
{
closed = 1;
nodes = (
(110,108,l),
(110,317,l),
(759,553,l),
(110,790,l),
(110,998,l),
(1120,631,l),
(1120,475,l)
);
}
);
width = 1230;
}
);
leftKerningGroup = at;
unicode = 62;
},
{
glyphname = question;
layers = (
{
background = {
};
hints = (
{
horizontal = 1;
place = (-10,238);
type = Stem;
},
{
horizontal = 1;
place = (1212,210);
type = Stem;
},
{
place = (308,238);
type = Stem;
},
{
place = (818,211);
type = Stem;
}
);
layerId = "3916868A-960B-40DE-A2A5-83D1860F42F7";
shapes = (
{
closed = 1;
nodes = (
(90,1212,l),
(90,1422,l),
(709,1422,ls),
(889,1422,o),
(1029,1283,o),
(1029,1103,cs),
(1029,961,ls),
(1029,773,o),
(945,678,o),
(703,591,cs),
(571,542,o),
(533,517,o),
(533,478,cs),
(533,307,l),
(322,307,l),
(322,478,ls),
(322,625,o),
(412,710,o),
(663,799,cs),
(776,839,o),
(818,884,o),
(818,967,cs),
(818,1103,ls),
(818,1163,o),
(769,1212,o),
(709,1212,cs)
);
},
{
closed = 1;
nodes = (
(308,175,o),
(361,228,o),
(427,228,cs),
(493,228,o),
(546,175,o),
(546,109,cs),
(546,43,o),
(493,-10,o),
(427,-10,cs),
(361,-10,o),
(308,43,o),
(308,109,cs)
);
}
);
width = 1149;
}
);
leftKerningGroup = at;
rightKerningGroup = question;
unicode = 63;
},
{
glyphname = at;
layers = (
{
background = {
};
hints = (
{
horizontal = 1;
place = (0,171);
type = Stem;
},
{
horizontal = 1;
place = (337,171);
type = Stem;
},
{
horizontal = 1;
place = (914,172);
type = Stem;
},
{
horizontal = 1;
place = (1251,171);
type = Stem;
},
{
place = (140,171);
type = Stem;
},
{
place = (441,171);
type = Stem;
},
{
place = (960,170);
type = Stem;
},
{
place = (1267,170);
type = Stem;
}
);
layerId = "3916868A-960B-40DE-A2A5-83D1860F42F7";
shapes = (
{
closed = 1;
nodes = (
(140,1029,ls),
(140,1246,o),
(317,1422,o),
(534,1422,cs),
(1043,1422,ls),
(1260,1422,o),
(1437,1251,o),
(1437,1042,cs),
(1437,730,ls),
(1437,494,o),
(1247,337,o),
(960,337,c),
(960,914,l),
(737,914,ls),
(659,914,o),
(612,868,o),
(612,794,cs),
(612,611,ls),
(612,550,o),
(662,508,o),
(733,508,cs),
(840,508,l),
(840,337,l),
(737,337,ls),
(567,337,o),
(441,454,o),
(441,611,cs),
(441,814,ls),
(441,967,o),
(568,1086,o),
(733,1086,cs),
(1130,1086,l),
(1130,537,l),
(1211,572,o),
(1267,653,o),
(1267,733,cs),
(1267,1039,ls),
(1267,1150,o),
(1161,1251,o),
(1045,1251,cs),
(536,1251,ls),
(417,1251,o),
(311,1145,o),
(311,1026,cs),
(311,394,ls),
(311,264,o),
(387,171,o),
(495,171,cs),
(840,171,l),
(840,0,l),
(490,0,ls),
(287,0,o),
(140,165,o),
(140,394,cs)
);
}
);
width = 1577;
}
);
leftKerningGroup = at;
unicode = 64;
},
{
glyphname = A;
layers = (
{
anchors = (
{
name = top;
position = "{681, 1544}";
},
{
name = botton;
position = "{1204, 6}";
}
);
background = {
};
hints = (
{
horizontal = 1;
place = (0,21);
type = Stem;
},
{
horizontal = 1;
place = (428,210);
type = Stem;
},
{
horizontal = 1;
place = (1402,20);
type = Stem;
}
);
layerId = "3916868A-960B-40DE-A2A5-83D1860F42F7";
shapes = (
{
closed = 1;
nodes = (
(40,0,l),
(549,1422,l),
(812,1422,l),
(1321,0,l),
(1096,0,l),
(941,428,l),
(544,428,l),
(620,638,l),
(865,638,l),
(681,1146,l),
(265,0,l)
);
}
);
width = 1361;
}
);
leftKerningGroup = A2;
rightKerningGroup = A;
unicode = 65;
},
{
glyphname = B;
layers = (
{
anchors = (
{
name = top;
position = "{704, 1544}";
}
);
background = {
};
hints = (
{
horizontal = 1;
place = (0,211);
type = Stem;
},
{
horizontal = 1;
place = (639,210);
type = Stem;
},
{
horizontal = 1;
place = (1212,210);
type = Stem;
},
{
place = (140,211);
type = Stem;
},
{
place = (1033,210);
type = Stem;
},
{
place = (1088,210);
type = Stem;
}
);
layerId = "3916868A-960B-40DE-A2A5-83D1860F42F7";
shapes = (
{
closed = 1;
nodes = (
(140,0,l),
(140,1422,l),
(889,1422,ls),
(1086,1422,o),
(1243,1267,o),
(1243,1072,cs),
(1243,979,ls),
(1243,892,o),
(1213,813,o),
(1163,768,c),
(1258,707,o),
(1298,627,o),
(1298,500,cs),
(1298,343,ls),
(1298,154,o),
(1140,0,o),
(946,0,cs)
);
},
{
closed = 1;
nodes = (
(351,211,l),
(948,211,ls),
(1025,211,o),
(1088,271,o),
(1088,346,cs),
(1088,503,ls),
(1088,578,o),
(1025,639,o),
(947,639,cs),
(471,639,l),
(471,849,l),
(889,849,ls),
(968,849,o),
(1033,908,o),
(1033,981,cs),
(1033,1072,ls),
(1033,1149,o),
(968,1212,o),
(889,1212,cs),
(351,1212,l)
);
}
);
width = 1408;
}
);
leftKerningGroup = B2;
rightKerningGroup = B;
unicode = 66;
},
{
glyphname = C;
layers = (
{
anchors = (
{
name = botton;
position = "{690, 6}";
},
{
name = top;
position = "{690, 1544}";
}
);
background = {
};
hints = (
{
horizontal = 1;
place = (0,211);
type = Stem;
},
{
horizontal = 1;
place = (1212,210);
type = Stem;
},
{
place = (120,211);
type = Stem;
}
);
layerId = "3916868A-960B-40DE-A2A5-83D1860F42F7";
shapes = (
{
closed = 1;
nodes = (
(120,1022,ls),
(120,1243,o),
(302,1422,o),
(526,1422,cs),
(1271,1422,l),
(1271,1212,l),
(526,1212,ls),
(418,1212,o),
(331,1127,o),
(331,1022,cs),
(331,396,ls),
(331,294,o),
(418,211,o),
(526,211,cs),
(1271,211,l),
(1271,0,l),
(526,0,ls),
(302,0,o),
(120,176,o),
(120,393,cs)
);
}
);
width = 1381;
}
);
leftKerningGroup = C2;
rightKerningGroup = C;
unicode = 67;
},
{
glyphname = D;
layers = (
{
anchors = (
{
name = top;
position = "{709, 1544}";
}
);
background = {
};
hints = (
{
horizontal = 1;
place = (0,211);
type = Stem;
},
{
horizontal = 1;
place = (1212,210);
type = Stem;
},
{
place = (140,211);
type = Stem;
},
{
place = (1088,210);
type = Stem;
}
);
layerId = "3916868A-960B-40DE-A2A5-83D1860F42F7";
shapes = (
{
closed = 1;
nodes = (
(140,0,l),
(140,1422,l),
(896,1422,ls),
(1118,1422,o),
(1298,1243,o),
(1298,1022,cs),
(1298,396,ls),
(1298,177,o),
(1118,0,o),
(896,0,cs)
);
},
{
closed = 1;
nodes = (
(351,211,l),
(896,211,ls),
(1002,211,o),
(1088,295,o),
(1088,399,cs),
(1088,1022,ls),
(1088,1127,o),
(1002,1212,o),
(896,1212,cs),
(351,1212,l)
);
}
);
width = 1418;
}
);
leftKerningGroup = B2;
rightKerningGroup = D;
unicode = 68;
},
{
glyphname = E;
layers = (
{
anchors = (
{
name = top;
position = "{678, 1544}";
},
{
name = botton;
position = "{678, 6}";
}
);
background = {
};
hints = (
{
horizontal = 1;
place = (0,211);
type = Stem;
},
{
horizontal = 1;
place = (635,210);
type = Stem;
},
{
horizontal = 1;
place = (1212,210);
type = Stem;
},
{
place = (140,211);
type = Stem;
}
);
layerId = "3916868A-960B-40DE-A2A5-83D1860F42F7";
shapes = (
{
closed = 1;
nodes = (
(140,0,l),
(140,1422,l),
(1243,1422,l),
(1243,1212,l),
(351,1212,l),
(351,211,l),
(1243,211,l),
(1243,0,l)
);
},
{
closed = 1;
nodes = (
(471,635,l),
(471,845,l),
(1243,845,l),
(1243,635,l)
);
}
);
width = 1363;
}
);
leftKerningGroup = B2;
unicode = 69;
},
{
glyphname = F;
layers = (
{
anchors = (
{
name = top;
position = "{606, 1544}";
}
);
background = {
};
hints = (
{
horizontal = 1;
place = (0,21);
type = Stem;
},
{
horizontal = 1;
place = (635,210);
type = Stem;
},
{
horizontal = 1;
place = (1212,210);
type = Stem;
},
{
place = (140,211);
type = Stem;
}
);
layerId = "3916868A-960B-40DE-A2A5-83D1860F42F7";
shapes = (
{
closed = 1;
nodes = (
(140,0,l),
(140,1422,l),
(1092,1422,l),
(1092,1212,l),
(351,1212,l),
(351,0,l)
);
},
{
closed = 1;
nodes = (
(471,635,l),
(471,845,l),
(1092,845,l),
(1092,635,l)
);
}
);
width = 1212;
}
);
leftKerningGroup = B2;
rightKerningGroup = F;
unicode = 70;
},
{
glyphname = G;
layers = (
{
anchors = (
{
name = botton;
position = "{710, -120}";
},
{
name = top;
position = "{710, 1544}";
}
);
background = {
};
hints = (
{
horizontal = 1;
place = (0,210);
type = Stem;
},
{
horizontal = 1;
place = (585,210);
type = Stem;
},
{
horizontal = 1;
place = (1212,210);
type = Stem;
},
{
place = (120,211);
type = Stem;
},
{
place = (1090,211);
type = Stem;
}
);
layerId = "3916868A-960B-40DE-A2A5-83D1860F42F7";
shapes = (
{
closed = 1;
nodes = (
(120,1022,ls),
(120,1243,o),
(310,1422,o),
(544,1422,cs),
(1217,1422,l),
(1217,1212,l),
(544,1212,ls),
(426,1212,o),
(331,1127,o),
(331,1023,cs),
(331,399,ls),
(331,295,o),
(426,210,o),
(544,210,cs),
(877,210,ls),
(995,210,o),
(1090,295,o),
(1090,399,cs),
(1090,585,l),
(704,585,l),
(704,795,l),
(1301,795,l),
(1301,400,ls),
(1301,179,o),
(1111,0,o),
(877,0,cs),
(544,0,ls),
(310,0,o),
(120,179,o),
(120,400,cs)
);
}
);
width = 1421;
}
);
leftKerningGroup = C2;
rightKerningGroup = G;
unicode = 71;
},
{
glyphname = H;
layers = (
{
anchors = (
{
name = top;
position = "{719, 1544}";
}
);
background = {
};
hints = (
{
horizontal = 1;
place = (0,21);
type = Stem;
},
{
horizontal = 1;
place = (635,210);
type = Stem;
},
{
horizontal = 1;
place = (1402,20);
type = Stem;
},
{
place = (140,211);
type = Stem;
},
{
place = (1088,210);
type = Stem;
}
);
layerId = "3916868A-960B-40DE-A2A5-83D1860F42F7";
shapes = (
{
closed = 1;
nodes = (
(140,0,l),
(140,1422,l),
(351,1422,l),
(351,845,l),
(1088,845,l),
(1088,1422,l),
(1298,1422,l),
(1298,0,l),
(1088,0,l),
(1088,635,l),
(351,635,l),
(351,0,l)
);
}
);
width = 1438;
}
);
leftKerningGroup = B2;
rightKerningGroup = H;
unicode = 72;
},
{
glyphname = I;
layers = (
{
anchors = (
{
name = top;
position = "{245, 1544}";
},
{
name = botton;
position = "{246, 6}";
}
);
background = {
};
hints = (
{
horizontal = 1;
place = (0,21);
type = Stem;
},
{
horizontal = 1;
place = (1402,20);
type = Stem;
},
{
place = (140,211);
type = Stem;
}
);
layerId = "3916868A-960B-40DE-A2A5-83D1860F42F7";
shapes = (
{
closed = 1;
nodes = (
(140,0,l),
(140,1422,l),
(351,1422,l),
(351,0,l)
);
}
);
width = 491;
}
);
leftKerningGroup = B2;
rightKerningGroup = H;
unicode = 73;
},
{
glyphname = J;
layers = (
{
anchors = (
{
name = top;
position = "{590, 1544}";
}
);
background = {
};
hints = (
{
horizontal = 1;
place = (0,210);
type = Stem;
},
{
horizontal = 1;
place = (1402,20);
type = Stem;
},
{
place = (485,210);
type = Stem;
}
);
layerId = "3916868A-960B-40DE-A2A5-83D1860F42F7";
shapes = (
{
closed = 1;
nodes = (
(40,0,l),
(40,210,l),
(294,210,ls),
(399,210,o),
(485,294,o),
(485,398,cs),
(485,1422,l),
(695,1422,l),
(695,395,ls),
(695,177,o),
(515,0,o),
(294,0,cs)
);
}
);
width = 835;
}
);
leftKerningGroup = J2;
rightKerningGroup = J;
unicode = 74;
},
{
glyphname = K;
layers = (
{
anchors = (
{
name = botton;
position = "{697, -120}";
}
);
background = {
};
hints = (
{
horizontal = 1;
place = (0,21);
type = Stem;
},
{
horizontal = 1;
place = (1402,20);
type = Stem;
},
{
place = (140,211);
type = Stem;
}
);
layerId = "3916868A-960B-40DE-A2A5-83D1860F42F7";
shapes = (
{
closed = 1;
nodes = (
(140,0,l),
(140,1422,l),
(351,1422,l),
(351,846,l),
(456,846,l),
(1020,1422,l),
(1311,1422,l),
(623,719,l),
(1354,0,l),
(1059,0,l),
(413,635,l),
(351,635,l),
(351,0,l)
);
}
);
width = 1394;
}
);
leftKerningGroup = B2;
unicode = 75;
},
{
glyphname = L;
layers = (
{
anchors = (
{
name = top;
position = "{245, 1544}";
},
{
name = botton;
position = "{641, -120}";
}
);
background = {
};
hints = (
{
horizontal = 1;
place = (0,210);
type = Stem;
},
{
horizontal = 1;
place = (1402,20);
type = Stem;
},
{
place = (140,210);
type = Stem;
}
);
layerId = "3916868A-960B-40DE-A2A5-83D1860F42F7";
shapes = (
{
closed = 1;
nodes = (
(140,1422,l),
(350,1422,l),
(350,398,ls),
(350,294,o),
(434,210,o),
(537,210,cs),
(1242,210,l),
(1242,0,l),
(537,0,ls),
(318,0,o),
(140,178,o),
(140,398,cs)
);
}
);
width = 1282;
}
);
leftKerningGroup = B2;
rightKerningGroup = L;
unicode = 76;
},
{
glyphname = M;
layers = (
{
background = {
};
hints = (
{
horizontal = 1;
place = (0,21);
type = Stem;
},
{
horizontal = 1;
place = (1402,20);
type = Stem;
},
{
place = (140,211);
type = Stem;
},
{
place = (1233,211);
type = Stem;
}
);
layerId = "3916868A-960B-40DE-A2A5-83D1860F42F7";
shapes = (
{
closed = 1;
nodes = (
(140,0,l),
(140,1422,l),
(333,1422,l),
(792,861,l),
(1251,1422,l),
(1444,1422,l),
(1444,0,l),
(1233,0,l),
(1233,1063,l),
(880,635,l),
(705,635,l),
(351,1063,l),
(351,0,l)
);
}
);
width = 1584;
}
);
leftKerningGroup = B2;
rightKerningGroup = H;
unicode = 77;
},
{
glyphname = N;
layers = (
{
anchors = (
{
name = botton;
position = "{692, -120}";
},
{
name = top;
position = "{692, 1544}";
}
);
background = {
};
hints = (
{
horizontal = 1;
place = (0,21);
type = Stem;
},
{
horizontal = 1;
place = (1402,20);
type = Stem;
},
{
place = (140,211);
type = Stem;
},
{
place = (1033,211);
type = Stem;
}
);
layerId = "3916868A-960B-40DE-A2A5-83D1860F42F7";
shapes = (
{
closed = 1;
nodes = (
(140,0,l),
(140,1422,l),
(414,1422,l),
(1033,305,l),
(1033,1422,l),
(1244,1422,l),
(1244,0,l),
(970,0,l),
(351,1102,l),
(351,0,l)
);
}
);
width = 1384;
}
);
leftKerningGroup = B2;
rightKerningGroup = H;
unicode = 78;
},
{
glyphname = O;
layers = (
{
anchors = (
{
name = top;
position = "{731, 1544}";
}
);
background = {
};
hints = (
{
horizontal = 1;
place = (0,210);
type = Stem;
},
{
horizontal = 1;
place = (1212,210);
type = Stem;
},
{
place = (140,211);
type = Stem;
},
{
place = (1110,211);
type = Stem;
}
);
layerId = "3916868A-960B-40DE-A2A5-83D1860F42F7";
shapes = (
{
closed = 1;
nodes = (
(140,1022,ls),
(140,1243,o),
(330,1422,o),
(564,1422,cs),
(897,1422,ls),
(1131,1422,o),
(1321,1243,o),
(1321,1022,cs),
(1321,400,ls),
(1321,179,o),
(1131,0,o),
(897,0,cs),
(564,0,ls),
(330,0,o),
(140,179,o),
(140,400,cs)
);
},
{
closed = 1;
nodes = (
(351,399,ls),
(351,295,o),
(446,210,o),
(564,210,cs),
(897,210,ls),
(1015,210,o),
(1110,295,o),
(1110,399,cs),
(1110,1023,ls),
(1110,1127,o),
(1015,1212,o),
(897,1212,cs),
(564,1212,ls),
(446,1212,o),
(351,1127,o),
(351,1023,cs)
);
}
);
width = 1461;
}
);
leftKerningGroup = C2;
rightKerningGroup = D;
unicode = 79;
},
{
glyphname = P;
layers = (
{
anchors = (
{
name = top;
position = "{674, 1544}";
}
);
background = {
};
hints = (
{
horizontal = 1;
place = (0,21);
type = Stem;
},
{
horizontal = 1;
place = (585,210);
type = Stem;
},
{
horizontal = 1;
place = (1212,210);
type = Stem;
},
{
place = (140,211);
type = Stem;
},
{
place = (1033,210);
type = Stem;
}
);
layerId = "3916868A-960B-40DE-A2A5-83D1860F42F7";
shapes = (
{
closed = 1;
nodes = (
(140,0,l),
(140,1422,l),
(892,1422,ls),
(1086,1422,o),
(1243,1265,o),
(1243,1072,cs),
(1243,930,ls),
(1243,739,o),
(1086,585,o),
(892,585,cs),
(471,585,l),
(471,795,l),
(892,795,ls),
(970,795,o),
(1033,856,o),
(1033,933,cs),
(1033,1072,ls),
(1033,1149,o),
(970,1212,o),
(892,1212,cs),
(351,1212,l),
(351,0,l)
);
}
);
width = 1348;
}
);
leftKerningGroup = B2;
unicode = 80;
},
{
glyphname = Q;
layers = (
{
background = {
};
hints = (
{
horizontal = 1;
place = (0,210);
type = Stem;
},
{
horizontal = 1;
place = (1212,210);
type = Stem;
},
{
place = (140,211);
type = Stem;
},
{
place = (1110,211);
type = Stem;
}
);
layerId = "3916868A-960B-40DE-A2A5-83D1860F42F7";
shapes = (
{
closed = 1;
nodes = (
(140,1022,ls),
(140,1243,o),
(330,1422,o),
(564,1422,cs),
(897,1422,ls),
(1131,1422,o),
(1321,1243,o),
(1321,1022,cs),
(1321,400,ls),
(1321,198,o),
(1162,28,o),
(951,3,c),
(1077,-123,l),
(928,-273,l),
(655,0,l),
(564,0,ls),
(330,0,o),
(140,179,o),
(140,400,cs)
);
},
{
closed = 1;
nodes = (
(351,399,ls),
(351,295,o),
(446,210,o),
(564,210,cs),
(897,210,ls),
(1015,210,o),
(1110,295,o),
(1110,399,cs),
(1110,1023,ls),
(1110,1127,o),
(1015,1212,o),
(897,1212,cs),
(564,1212,ls),
(446,1212,o),
(351,1127,o),
(351,1023,cs)
);
}
);
width = 1461;
}
);
leftKerningGroup = C2;
rightKerningGroup = D;
unicode = 81;
},
{
glyphname = R;
layers = (
{
anchors = (
{
name = top;
position = "{687, 1544}";
},
{
name = botton;
position = "{687, -120}";
}
);
background = {
};
hints = (
{
horizontal = 1;
place = (0,21);
type = Stem;
},
{
horizontal = 1;
place = (585,210);
type = Stem;
},
{
horizontal = 1;
place = (1212,210);
type = Stem;
},
{
place = (140,211);
type = Stem;
},
{
place = (1033,210);
type = Stem;
}
);
layerId = "3916868A-960B-40DE-A2A5-83D1860F42F7";
shapes = (
{
closed = 1;
nodes = (
(140,0,l),
(140,1422,l),
(892,1422,ls),
(1085,1422,o),
(1243,1265,o),
(1243,1072,cs),
(1243,930,ls),
(1243,736,o),
(1089,585,o),
(891,585,c),
(1315,0,l),
(1058,0,l),
(634,585,l),
(471,585,l),
(471,795,l),
(892,795,ls),
(970,795,o),
(1033,857,o),
(1033,933,cs),
(1033,1072,ls),
(1033,1149,o),
(970,1212,o),
(892,1212,cs),
(351,1212,l),
(351,0,l)
);
}
);
width = 1375;
}
);
leftKerningGroup = B2;
rightKerningGroup = R;
unicode = 82;
},
{
glyphname = S;
layers = (
{
anchors = (
{
name = top;
position = "{700, 1544}";
},
{
name = botton;
position = "{700, 6}";
}
);
background = {
};
hints = (
{
horizontal = 1;
place = (0,211);
type = Stem;
},
{
horizontal = 1;
place = (635,210);
type = Stem;
},
{
horizontal = 1;
place = (1212,210);
type = Stem;
},
{
place = (120,211);
type = Stem;
},
{
place = (1068,211);
type = Stem;
}
);
layerId = "3916868A-960B-40DE-A2A5-83D1860F42F7";
shapes = (
{
closed = 1;
nodes = (
(120,1078,ls),
(120,1268,o),
(278,1422,o),
(473,1422,cs),
(1209,1422,l),
(1209,1212,l),
(473,1212,ls),
(395,1212,o),
(331,1149,o),
(331,1072,cs),
(331,974,ls),
(331,903,o),
(395,845,o),
(473,845,cs),
(926,845,ls),
(1121,845,o),
(1279,690,o),
(1279,500,cs),
(1279,345,ls),
(1279,155,o),
(1121,0,o),
(926,0,cs),
(121,0,l),
(121,211,l),
(926,211,ls),
(1004,211,o),
(1068,271,o),
(1068,346,cs),
(1068,499,ls),
(1068,574,o),
(1004,635,o),
(926,635,cs),
(473,635,ls),
(278,635,o),
(120,786,o),
(120,973,cs)
);
}
);
width = 1399;
}
);
rightKerningGroup = G;
unicode = 83;
},
{
glyphname = T;
layers = (
{
anchors = (
{
name = top;
position = "{619, 1544}";
},
{
name = botton;
position = "{619, 6}";
}
);
background = {
};
hints = (
{
horizontal = 1;
place = (0,21);
type = Stem;
},
{
horizontal = 1;
place = (1212,210);
type = Stem;
},
{
place = (513,212);
type = Stem;
}
);
layerId = "3916868A-960B-40DE-A2A5-83D1860F42F7";
shapes = (
{
closed = 1;
nodes = (
(40,1212,l),
(40,1422,l),
(1198,1422,l),
(1198,1212,l),
(725,1212,l),
(725,0,l),
(513,0,l),
(513,1212,l)
);
}
);
width = 1238;
}
);
leftKerningGroup = T2;
rightKerningGroup = T;
unicode = 84;
},
{
glyphname = U;
layers = (
{
anchors = (
{
name = botton;
position = "{718, 6}";
},
{
name = top;
position = "{718, 1544}";
}
);
background = {
};
hints = (
{
horizontal = 1;
place = (0,211);
type = Stem;
},
{
horizontal = 1;
place = (1402,20);
type = Stem;
},
{
place = (140,211);
type = Stem;
},
{
place = (1088,210);
type = Stem;
}
);
layerId = "3916868A-960B-40DE-A2A5-83D1860F42F7";
shapes = (
{
closed = 1;
nodes = (
(140,1422,l),
(351,1422,l),
(351,399,ls),
(351,295,o),
(438,211,o),
(545,211,cs),
(894,211,ls),
(1001,211,o),
(1088,295,o),
(1088,399,cs),
(1088,1422,l),
(1298,1422,l),
(1298,397,ls),
(1298,178,o),
(1117,0,o),
(894,0,cs),
(545,0,ls),
(321,0,o),
(140,178,o),
(140,397,cs)
);
}
);
width = 1438;
}
);
rightKerningGroup = J;
unicode = 85;
},
{
glyphname = V;
layers = (
{
background = {
};
hints = (
{
horizontal = 1;
place = (0,21);
type = Stem;
},
{
horizontal = 1;
place = (1402,20);
type = Stem;
}
);
layerId = "3916868A-960B-40DE-A2A5-83D1860F42F7";
shapes = (
{
closed = 1;
nodes = (
(40,1422,l),
(265,1422,l),
(681,256,l),
(1096,1422,l),
(1321,1422,l),
(812,0,l),
(549,0,l)
);
}
);
width = 1361;
}
);
unicode = 86;
},
{
glyphname = W;
layers = (
{
anchors = (
{
name = top;
position = "{823, 1544}";
}
);
background = {
};
hints = (
{
horizontal = 1;
place = (0,21);
type = Stem;
},
{
horizontal = 1;
place = (1402,20);
type = Stem;
}
);
layerId = "3916868A-960B-40DE-A2A5-83D1860F42F7";
shapes = (
{
closed = 1;
nodes = (
(70,1422,l),
(282,1422,l),
(468,350,l),
(724,816,l),
(923,816,l),
(1179,350,l),
(1365,1422,l),
(1576,1422,l),
(1329,0,l),
(1139,0,l),
(823,572,l),
(508,0,l),
(317,0,l)
);
}
);
width = 1646;
}
);
leftKerningGroup = W2;
rightKerningGroup = W;
unicode = 87;
},
{
glyphname = X;
layers = (
{
background = {
};
hints = (
{
horizontal = 1;
place = (0,21);
type = Stem;
},
{
horizontal = 1;
place = (1402,20);
type = Stem;
}
);
layerId = "3916868A-960B-40DE-A2A5-83D1860F42F7";
shapes = (
{
closed = 1;
nodes = (
(40,0,l),
(555,711,l),
(40,1422,l),
(298,1422,l),
(687,883,l),
(1075,1422,l),
(1332,1422,l),
(818,711,l),
(1332,0,l),
(1075,0,l),
(687,540,l),
(298,0,l)
);
}
);
width = 1372;
}
);
unicode = 88;
},
{
glyphname = Y;
layers = (
{
anchors = (
{
name = top;
position = "{686, 1544}";
}
);
background = {
};
hints = (
{
horizontal = 1;
place = (0,21);
type = Stem;
},
{
horizontal = 1;
place = (1402,20);
type = Stem;
},
{
place = (579,216);
type = Stem;
}
);
layerId = "3916868A-960B-40DE-A2A5-83D1860F42F7";
shapes = (
{
closed = 1;
nodes = (
(40,1422,l),
(297,1422,l),
(687,883,l),
(1075,1422,l),
(1331,1422,l),
(795,679,l),
(795,0,l),
(579,0,l),
(579,679,l)
);
}
);
width = 1371;
}
);
leftKerningGroup = Y2;
rightKerningGroup = Y;
unicode = 89;
},
{
glyphname = Z;
layers = (
{
anchors = (
{
name = botton;
position = "{674, 6}";
},
{
name = top;
position = "{674, 1544}";
}
);
background = {
};
hints = (
{
horizontal = 1;
place = (0,208);
type = Stem;
},
{
horizontal = 1;
place = (1212,210);
type = Stem;
}
);
layerId = "3916868A-960B-40DE-A2A5-83D1860F42F7";
shapes = (
{
closed = 1;
nodes = (
(120,0,l),
(120,155,l),
(927,1212,l),
(120,1212,l),
(120,1422,l),
(1227,1422,l),
(1227,1265,l),
(422,208,l),
(1223,208,l),
(1223,0,l)
);
}
);
width = 1347;
}
);
unicode = 90;
},
{
glyphname = bracketleft;
layers = (
{
background = {
};
hints = (
{
horizontal = 1;
place = (-390,207);
type = Stem;
},
{
horizontal = 1;
place = (1422,208);
type = Stem;
},
{
place = (115,460);
type = Stem;
},
{
place = (115,208);
type = Stem;
}
);
layerId = "3916868A-960B-40DE-A2A5-83D1860F42F7";
shapes = (
{
closed = 1;
nodes = (
(115,-390,l),
(115,1630,l),
(575,1630,l),
(575,1422,l),
(323,1422,l),
(323,-183,l),
(575,-183,l),
(575,-390,l)
);
}
);
width = 610;
}
);
leftKerningGroup = at;
unicode = 91;
},
{
glyphname = backslash;
layers = (
{
background = {
};
layerId = "3916868A-960B-40DE-A2A5-83D1860F42F7";
shapes = (
{
closed = 1;
nodes = (
(20,1540,l),
(260,1540,l),
(1371,-42,l),
(1131,-42,l)
);
}
);
width = 1391;
}
);
leftKerningGroup = at;
unicode = 92;
},
{
glyphname = bracketright;
layers = (
{
background = {
};
hints = (
{
horizontal = 1;
place = (-390,207);
type = Stem;
},
{
horizontal = 1;
place = (1422,208);
type = Stem;
},
{
place = (35,460);
type = Stem;
},
{
place = (287,208);
type = Stem;
}
);
layerId = "3916868A-960B-40DE-A2A5-83D1860F42F7";
shapes = (
{
closed = 1;
nodes = (
(35,-183,l),
(287,-183,l),
(287,1422,l),
(35,1422,l),
(35,1630,l),
(495,1630,l),
(495,-390,l),
(35,-390,l)
);
}
);
width = 610;
}
);
leftKerningGroup = at;
unicode = 93;
},
{
glyphname = asciicircum;
layers = (
{
background = {
};
hints = (
{
horizontal = 1;
place = (1022,400);
type = Stem;
},
{
place = (100,673);
type = Stem;
}
);
layerId = "3916868A-960B-40DE-A2A5-83D1860F42F7";
shapes = (
{
closed = 1;
nodes = (
(100,1022,l),
(377,1422,l),
(496,1422,l),
(773,1022,l),
(615,1022,l),
(436,1270,l),
(257,1022,l)
);
}
);
width = 873;
}
);
leftKerningGroup = at;
unicode = 94;
},
{
glyphname = underscore;
layers = (
{
background = {
};
hints = (
{
horizontal = 1;
place = (-176,176);
type = Stem;
}
);
layerId = "3916868A-960B-40DE-A2A5-83D1860F42F7";
shapes = (
{
closed = 1;
nodes = (
(110,0,l),
(1171,0,l),
(1171,-176,l),
(110,-176,l)
);
}
);
width = 1281;
}
);
leftKerningGroup = at;
unicode = 95;
},
{
glyphname = grave;
layers = (
{
anchors = (
{
name = top;
position = "{298, 1170}";
}
);
background = {
};
hints = (
{
horizontal = 1;
place = (1170,422);
type = Stem;
},
{
place = (100,312);
type = Stem;
}
);
layerId = "3916868A-960B-40DE-A2A5-83D1860F42F7";
shapes = (
{
closed = 1;
nodes = (
(100,1504,l),
(283,1592,l),
(412,1223,l),
(298,1170,l)
);
}
);
width = 512;
}
);
leftKerningGroup = at;
unicode = 96;
},
{
glyphname = a;
layers = (
{
anchors = (
{
name = top;
position = "{591, 1158}";
},
{
name = botton;
position = "{958, 6}";
}
);
background = {
};
hints = (
{
horizontal = 1;
place = (0,211);
type = Stem;
},
{
horizontal = 1;
place = (825,211);
type = Stem;
},
{
place = (110,211);
type = Stem;
},
{
place = (851,211);
type = Stem;
}
);
layerId = "3916868A-960B-40DE-A2A5-83D1860F42F7";
shapes = (
{
closed = 1;
nodes = (
(110,664,ls),
(110,869,o),
(278,1036,o),
(484,1036,cs),
(1062,1036,l),
(1062,0,l),
(851,0,l),
(851,825,l),
(484,825,ls),
(394,825,o),
(321,752,o),
(321,662,cs),
(321,376,ls),
(321,285,o),
(394,211,o),
(484,211,cs),
(731,211,l),
(731,0,l),
(484,0,ls),
(278,0,o),
(110,168,o),
(110,374,cs)
);
}
);
width = 1182;
}
);
leftKerningGroup = a2;
rightKerningGroup = a;
unicode = 97;
},
{
glyphname = b;
layers = (
{
anchors = (
{
name = top;
position = "{591, 1544}";
}
);
background = {
};
hints = (
{
horizontal = 1;
place = (0,211);
type = Stem;
},
{
horizontal = 1;
place = (825,211);
type = Stem;
},
{
horizontal = 1;
place = (1402,20);
type = Stem;
},
{
place = (110,211);
type = Stem;
},
{
place = (851,211);
type = Stem;
}
);
layerId = "3916868A-960B-40DE-A2A5-83D1860F42F7";
shapes = (
{
closed = 1;
nodes = (
(110,1422,l),
(321,1422,l),
(321,211,l),
(688,211,ls),
(778,211,o),
(851,284,o),
(851,374,cs),
(851,660,ls),
(851,751,o),
(778,825,o),
(688,825,cs),
(441,825,l),
(441,1036,l),
(688,1036,ls),
(894,1036,o),
(1062,868,o),
(1062,662,cs),
(1062,372,ls),
(1062,167,o),
(894,0,o),
(688,0,cs),
(321,0,ls),
(205,0,o),
(110,95,o),
(110,211,cs)
);
}
);
width = 1182;
}
);
unicode = 98;
},
{
glyphname = c;
layers = (
{
anchors = (
{
name = top;
position = "{648, 1158}";
},
{
name = botton;
position = "{648, 5}";
}
);
background = {
};
hints = (
{
horizontal = 1;
place = (0,211);
type = Stem;
},
{
horizontal = 1;
place = (825,211);
type = Stem;
},
{
place = (110,211);
type = Stem;
}
);
layerId = "3916868A-960B-40DE-A2A5-83D1860F42F7";
shapes = (
{
closed = 1;
nodes = (
(110,662,ls),
(110,868,o),
(282,1036,o),
(494,1036,cs),
(1077,1036,l),
(1077,825,l),
(494,825,ls),
(399,825,o),
(321,751,o),
(321,659,cs),
(321,378,ls),
(321,286,o),
(398,211,o),
(494,211,cs),
(1077,211,l),
(1077,0,l),
(494,0,ls),
(282,0,o),
(110,169,o),
(110,376,cs)
);
}
);
width = 1187;
}
);
leftKerningGroup = c2;
rightKerningGroup = c;
unicode = 99;
},
{
glyphname = d;
layers = (
{
anchors = (
{
name = top;
position = "{591, 1544}";
}
);
background = {
};
hints = (
{
horizontal = 1;
place = (0,211);
type = Stem;
},
{
horizontal = 1;
place = (825,211);
type = Stem;
},
{
horizontal = 1;
place = (1402,20);
type = Stem;
},
{
place = (110,211);
type = Stem;
},
{
place = (851,211);
type = Stem;
}
);
layerId = "3916868A-960B-40DE-A2A5-83D1860F42F7";
shapes = (
{
closed = 1;
nodes = (
(110,662,ls),
(110,868,o),
(278,1036,o),
(484,1036,cs),
(731,1036,l),
(731,825,l),
(484,825,ls),
(394,825,o),
(321,751,o),
(321,660,cs),
(321,374,ls),
(321,284,o),
(394,211,o),
(484,211,cs),
(851,211,l),
(851,1422,l),
(1062,1422,l),
(1062,211,ls),
(1062,95,o),
(967,0,o),
(851,0,cs),
(484,0,ls),
(278,0,o),
(110,167,o),
(110,372,cs)
);
}
);
width = 1182;
}
);
leftKerningGroup = a2;
rightKerningGroup = J;
unicode = 100;
},
{
glyphname = e;
layers = (
{
anchors = (
{
name = top;
position = "{591, 1158}";
},
{
name = botton;
position = "{591, 6}";
}
);
background = {
};
hints = (
{
horizontal = 1;
place = (0,211);
type = Stem;
},
{
horizontal = 1;
place = (408,210);
type = Stem;
},
{
horizontal = 1;
place = (825,211);
type = Stem;
},
{
place = (120,211);
type = Stem;
},
{
place = (862,210);
type = Stem;
}
);
layerId = "3916868A-960B-40DE-A2A5-83D1860F42F7";
shapes = (
{
closed = 1;
nodes = (
(120,822,ls),
(120,940,o),
(219,1036,o),
(341,1036,cs),
(773,1036,ls),
(938,1036,o),
(1072,901,o),
(1072,735,cs),
(1072,706,ls),
(1072,542,o),
(938,408,o),
(773,408,cs),
(451,408,l),
(451,618,l),
(775,618,ls),
(823,618,o),
(862,658,o),
(862,707,cs),
(862,735,ls),
(862,785,o),
(823,825,o),
(775,825,cs),
(331,825,l),
(331,293,ls),
(331,248,o),
(366,211,o),
(410,211,cs),
(999,211,l),
(999,0,l),
(410,0,ls),
(250,0,o),
(120,131,o),
(120,292,cs)
);
}
);
width = 1182;
}
);
leftKerningGroup = e2;
rightKerningGroup = e;
unicode = 101;
},
{
glyphname = f;
layers = (
{
anchors = (
{
name = top;
position = "{360, 1544}";
}
);
background = {
};
hints = (
{
horizontal = 1;
place = (0,21);
type = Stem;
},
{
horizontal = 1;
place = (826,210);
type = Stem;
},
{
horizontal = 1;
place = (1212,210);
type = Stem;
},
{
place = (120,211);
type = Stem;
}
);
layerId = "3916868A-960B-40DE-A2A5-83D1860F42F7";
shapes = (
{
closed = 1;
nodes = (
(120,0,l),
(120,1125,ls),
(120,1289,o),
(254,1422,o),
(418,1422,cs),
(649,1422,l),
(649,1212,l),
(418,1212,ls),
(370,1212,o),
(331,1173,o),
(331,1125,cs),
(331,1036,l),
(653,1036,l),
(653,826,l),
(331,826,l),
(331,0,l)
);
}
);
width = 723;
}
);
rightKerningGroup = f;
unicode = 102;
},
{
glyphname = g;
layers = (
{
anchors = (
{
name = top;
position = "{591, 1158}";
}
);
background = {
};
hints = (
{
horizontal = 1;
place = (-388,206);
type = Stem;
},
{
horizontal = 1;
place = (0,210);
type = Stem;
},
{
horizontal = 1;
place = (824,211);
type = Stem;
},
{
place = (110,211);
type = Stem;
},
{
place = (851,211);
type = Stem;
}
);
layerId = "3916868A-960B-40DE-A2A5-83D1860F42F7";
shapes = (
{
closed = 1;
nodes = (
(110,663,ls),
(110,868,o),
(278,1035,o),
(484,1035,cs),
(851,1035,ls),
(967,1035,o),
(1062,940,o),
(1062,824,cs),
(1062,-14,ls),
(1062,-220,o),
(894,-388,o),
(688,-388,cs),
(177,-388,l),
(177,-182,l),
(690,-182,ls),
(779,-182,o),
(851,-107,o),
(851,-15,cs),
(851,824,l),
(484,824,ls),
(394,824,o),
(321,751,o),
(321,661,cs),
(321,375,ls),
(321,284,o),
(394,210,o),
(484,210,cs),
(731,210,l),
(731,0,l),
(484,0,ls),
(278,0,o),
(110,167,o),
(110,373,cs)
);
}
);
width = 1182;
}
);
leftKerningGroup = c2;
rightKerningGroup = g;
unicode = 103;
},
{
glyphname = h;
layers = (
{
anchors = (
{
name = top;
position = "{225, 1544}";
}
);
background = {
};
hints = (
{
horizontal = 1;
place = (0,21);
type = Stem;
},
{
horizontal = 1;
place = (825,211);
type = Stem;
},
{
horizontal = 1;
place = (1402,20);
type = Stem;
},
{
place = (120,211);
type = Stem;
},
{
place = (836,211);
type = Stem;
}
);
layerId = "3916868A-960B-40DE-A2A5-83D1860F42F7";
shapes = (
{
closed = 1;
nodes = (
(120,0,l),
(120,1422,l),
(331,1422,l),
(331,1036,l),
(657,1036,ls),
(872,1036,o),
(1047,869,o),
(1047,663,cs),
(1047,0,l),
(836,0,l),
(836,660,ls),
(836,748,o),
(753,825,o),
(657,825,cs),
(331,825,l),
(331,0,l)
);
}
);
width = 1167;
}
);
leftKerningGroup = B2;
unicode = 104;
},
{
glyphname = i;
layers = (
{
anchors = (
{
name = botton;
position = "{226, 6}";
}
);
background = {
};
hints = (
{
horizontal = 1;
place = (0,21);
type = Stem;
},
{
horizontal = 1;
place = (1016,20);
type = Stem;
},
{
horizontal = 1;
place = (1188,260);
type = Stem;
},
{
place = (96,260);
type = Stem;
},
{
place = (120,212);
type = Stem;
}
);
layerId = "3916868A-960B-40DE-A2A5-83D1860F42F7";
shapes = (
{
closed = 1;
nodes = (
(96,1390,o),
(154,1448,o),
(226,1448,cs),
(298,1448,o),
(356,1390,o),
(356,1318,cs),
(356,1246,o),
(298,1188,o),
(226,1188,cs),
(154,1188,o),
(96,1246,o),
(96,1318,cs)
);
},
{
closed = 1;
nodes = (
(120,0,l),
(120,1036,l),
(332,1036,l),
(332,0,l)
);
}
);
width = 452;
}
);
leftKerningGroup = B2;
rightKerningGroup = H;
unicode = 105;
},
{
glyphname = j;
layers = (
{
background = {
};
hints = (
{
horizontal = 1;
place = (-391,211);
type = Stem;
},
{
horizontal = 1;
place = (1016,20);
type = Stem;
},
{
horizontal = 1;
place = (1188,260);
type = Stem;
},
{
place = (171,260);
type = Stem;
},
{
place = (199,211);
type = Stem;
}
);
layerId = "3916868A-960B-40DE-A2A5-83D1860F42F7";
shapes = (
{
closed = 1;
nodes = (
(40,-180,l),
(187,-180,o),
(199,-171,o),
(199,-60,cs),
(199,1036,l),
(410,1036,l),
(410,-60,ls),
(410,-313,o),
(323,-391,o),
(40,-391,c)
);
},
{
closed = 1;
nodes = (
(171,1389,o),
(230,1448,o),
(302,1448,cs),
(373,1448,o),
(431,1390,o),
(431,1317,cs),
(431,1245,o),
(374,1188,o),
(302,1188,cs),
(229,1188,o),
(171,1246,o),
(171,1317,cs)
);
}
);
width = 527;
}
);
leftKerningGroup = j;
rightKerningGroup = H;
unicode = 106;
},
{
glyphname = k;
layers = (
{
anchors = (
{
name = botton;
position = "{562, -120}";
}
);
background = {
};
hints = (
{
horizontal = 1;
place = (0,21);
type = Stem;
},
{
horizontal = 1;
place = (1016,20);
type = Stem;
},
{
horizontal = 1;
place = (1402,20);
type = Stem;
},
{
place = (120,211);
type = Stem;
}
);
layerId = "3916868A-960B-40DE-A2A5-83D1860F42F7";
shapes = (
{
closed = 1;
nodes = (
(120,0,l),
(120,1422,l),
(331,1422,l),
(331,639,l),
(402,639,l),
(777,1036,l),
(1051,1036,l),
(578,534,l),
(1093,0,l),
(798,0,l),
(383,428,l),
(331,428,l),
(331,0,l)
);
}
);
width = 1123;
}
);
leftKerningGroup = B2;
unicode = 107;
},
{
glyphname = l;
layers = (
{
anchors = (
{
name = botton;
position = "{225, -120}";
},
{
name = top;
position = "{225, 1544}";
}
);
background = {
};
hints = (
{
horizontal = 1;
place = (0,21);
type = Stem;
},
{
horizontal = 1;
place = (1402,20);
type = Stem;
},
{
place = (120,211);
type = Stem;
}
);
layerId = "3916868A-960B-40DE-A2A5-83D1860F42F7";
shapes = (
{
closed = 1;
nodes = (
(120,0,l),
(120,1422,l),
(331,1422,l),
(331,0,l)
);
}
);
width = 451;
}
);
leftKerningGroup = B2;
rightKerningGroup = H;
unicode = 108;
},
{
glyphname = m;
layers = (
{
anchors = (
{
name = top;
position = "{861, 1158}";
}
);
background = {
};
hints = (
{
horizontal = 1;
place = (0,21);
type = Stem;
},
{
horizontal = 1;
place = (826,210);
type = Stem;
},
{
place = (120,211);
type = Stem;
},
{
place = (751,211);
type = Stem;
},
{
place = (1388,210);
type = Stem;
}
);
layerId = "3916868A-960B-40DE-A2A5-83D1860F42F7";
shapes = (
{
closed = 1;
nodes = (
(120,0,l),
(120,825,ls),
(120,941,o),
(215,1036,o),
(332,1036,cs),
(648,1036,ls),
(730,1036,o),
(806,1007,o),
(858,956,c),
(910,1008,o),
(984,1036,o),
(1068,1036,cs),
(1224,1036,ls),
(1430,1036,o),
(1598,869,o),
(1598,663,cs),
(1598,0,l),
(1388,0,l),
(1388,660,ls),
(1388,752,o),
(1315,826,o),
(1224,826,cs),
(1068,826,ls),
(1009,826,o),
(962,784,o),
(962,732,cs),
(962,0,l),
(751,0,l),
(751,732,ls),
(751,784,o),
(705,826,o),
(648,826,cs),
(331,826,l),
(331,0,l)
);
}
);
width = 1718;
}
);
leftKerningGroup = m;
rightKerningGroup = g;
unicode = 109;
},
{
glyphname = n;
layers = (
{
anchors = (
{
name = botton;
position = "{596, -120}";
},
{
name = top;
position = "{596, 1158}";
}
);
background = {
};
hints = (
{
horizontal = 1;
place = (0,21);
type = Stem;
},
{
horizontal = 1;
place = (827,209);
type = Stem;
},
{
place = (120,211);
type = Stem;
},
{
place = (861,211);
type = Stem;
}
);
layerId = "3916868A-960B-40DE-A2A5-83D1860F42F7";
shapes = (
{
closed = 1;
nodes = (
(120,0,l),
(120,826,ls),
(120,942,o),
(215,1036,o),
(333,1036,cs),
(698,1036,ls),
(904,1036,o),
(1072,868,o),
(1072,662,cs),
(1072,0,l),
(861,0,l),
(861,659,ls),
(861,752,o),
(788,827,o),
(698,827,cs),
(331,827,l),
(331,0,l)
);
}
);
width = 1192;
}
);
leftKerningGroup = m;
rightKerningGroup = g;
unicode = 110;
},
{
glyphname = o;
layers = (
{
anchors = (
{
name = top;
position = "{597, 1158}";
}
);
background = {
};
hints = (
{
horizontal = 1;
place = (0,211);
type = Stem;
},
{
horizontal = 1;
place = (825,211);
type = Stem;
},
{
place = (110,211);
type = Stem;
},
{
place = (873,211);
type = Stem;
}
);
layerId = "3916868A-960B-40DE-A2A5-83D1860F42F7";
shapes = (
{
closed = 1;
nodes = (
(110,662,ls),
(110,868,o),
(278,1036,o),
(484,1036,cs),
(710,1036,ls),
(916,1036,o),
(1084,868,o),
(1084,662,cs),
(1084,374,ls),
(1084,168,o),
(916,0,o),
(710,0,cs),
(484,0,ls),
(278,0,o),
(110,168,o),
(110,374,cs)
);
},
{
closed = 1;
nodes = (
(321,376,ls),
(321,285,o),
(394,211,o),
(484,211,cs),
(710,211,ls),
(800,211,o),
(873,285,o),
(873,376,cs),
(873,660,ls),
(873,751,o),
(800,825,o),
(710,825,cs),
(484,825,ls),
(394,825,o),
(321,751,o),
(321,660,cs)
);
}
);
width = 1194;
}
);
leftKerningGroup = c2;
rightKerningGroup = o;
unicode = 111;
},
{
glyphname = p;
layers = (
{
anchors = (
{
name = top;
position = "{592, 1158}";
}
);
background = {
};
hints = (
{
horizontal = 1;
place = (0,211);
type = Stem;
},
{
horizontal = 1;
place = (825,211);
type = Stem;
},
{
place = (110,211);
type = Stem;
},
{
place = (851,211);
type = Stem;
}
);
layerId = "3916868A-960B-40DE-A2A5-83D1860F42F7";
shapes = (
{
closed = 1;
nodes = (
(110,-386,l),
(110,825,ls),
(110,941,o),
(205,1036,o),
(321,1036,cs),
(688,1036,ls),
(894,1036,o),
(1062,869,o),
(1062,664,cs),
(1062,374,ls),
(1062,168,o),
(894,0,o),
(688,0,cs),
(441,0,l),
(441,211,l),
(688,211,ls),
(778,211,o),
(851,285,o),
(851,376,cs),
(851,662,ls),
(851,752,o),
(778,825,o),
(688,825,cs),
(321,825,l),
(321,-386,l)
);
}
);
width = 1182;
}
);
leftKerningGroup = m;
rightKerningGroup = o;
unicode = 112;
},
{
glyphname = q;
layers = (
{
background = {
};
hints = (
{
horizontal = 1;
place = (0,211);
type = Stem;
},
{
horizontal = 1;
place = (825,211);
type = Stem;
},
{
place = (110,211);
type = Stem;
},
{
place = (851,211);
type = Stem;
}
);
layerId = "3916868A-960B-40DE-A2A5-83D1860F42F7";
shapes = (
{
closed = 1;
nodes = (
(110,664,ls),
(110,869,o),
(278,1036,o),
(484,1036,cs),
(851,1036,ls),
(967,1036,o),
(1062,941,o),
(1062,825,cs),
(1062,-386,l),
(851,-386,l),
(851,825,l),
(484,825,ls),
(394,825,o),
(321,752,o),
(321,662,cs),
(321,376,ls),
(321,285,o),
(394,211,o),
(484,211,cs),
(731,211,l),
(731,0,l),
(484,0,ls),
(278,0,o),
(110,168,o),
(110,374,cs)
);
}
);
width = 1182;
}
);
leftKerningGroup = c2;
rightKerningGroup = g;
unicode = 113;
},
{
glyphname = r;
layers = (
{
anchors = (
{
name = top;
position = "{360, 1158}";
},
{
name = botton;
position = "{226, -120}";
}
);
background = {
};
hints = (
{
horizontal = 1;
place = (0,21);
type = Stem;
},
{
horizontal = 1;
place = (826,210);
type = Stem;
},
{
place = (120,211);
type = Stem;
}
);
layerId = "3916868A-960B-40DE-A2A5-83D1860F42F7";
shapes = (
{
closed = 1;
nodes = (
(120,0,l),
(120,746,ls),
(120,906,o),
(254,1036,o),
(418,1036,cs),
(649,1036,l),
(649,826,l),
(418,826,ls),
(370,826,o),
(331,789,o),
(331,742,cs),
(331,0,l)
);
}
);
width = 719;
}
);
leftKerningGroup = m;
rightKerningGroup = r;
unicode = 114;
},
{
glyphname = s;
layers = (
{
anchors = (
{
name = botton;
position = "{596, 6}";
},
{
name = top;
position = "{596, 1158}";
}
);
background = {
};
hints = (
{
horizontal = 1;
place = (0,211);
type = Stem;
},
{
horizontal = 1;
place = (428,210);
type = Stem;
},
{
horizontal = 1;
place = (825,211);
type = Stem;
},
{
place = (110,211);
type = Stem;
},
{
place = (873,210);
type = Stem;
}
);
layerId = "3916868A-960B-40DE-A2A5-83D1860F42F7";
shapes = (
{
closed = 1;
nodes = (
(110,745,ls),
(110,906,o),
(244,1036,o),
(408,1036,cs),
(1016,1036,l),
(1016,825,l),
(408,825,ls),
(360,825,o),
(321,789,o),
(321,745,cs),
(321,720,ls),
(321,675,o),
(360,638,o),
(408,638,cs),
(786,638,ls),
(950,638,o),
(1083,507,o),
(1083,346,cs),
(1083,292,ls),
(1083,131,o),
(950,0,o),
(786,0,cs),
(157,0,l),
(157,211,l),
(786,211,ls),
(834,211,o),
(873,248,o),
(873,293,cs),
(873,345,ls),
(873,391,o),
(834,428,o),
(786,428,cs),
(408,428,ls),
(244,428,o),
(110,559,o),
(110,720,cs)
);
}
);
width = 1193;
}
);
rightKerningGroup = s;
unicode = 115;
},
{
glyphname = t;
layers = (
{
anchors = (
{
name = top;
position = "{311, 1544}";
},
{
name = botton;
position = "{554, 6}";
}
);
background = {
};
hints = (
{
horizontal = 1;
place = (0,211);
type = Stem;
},
{
horizontal = 1;
place = (825,211);
type = Stem;
},
{
horizontal = 1;
place = (1402,20);
type = Stem;
},
{
place = (205,211);
type = Stem;
}
);
layerId = "3916868A-960B-40DE-A2A5-83D1860F42F7";
shapes = (
{
closed = 1;
nodes = (
(70,825,l),
(70,1036,l),
(205,1036,l),
(205,1422,l),
(416,1422,l),
(416,1036,l),
(735,1036,l),
(735,825,l),
(416,825,l),
(416,294,ls),
(416,248,o),
(456,211,o),
(506,211,cs),
(735,211,l),
(735,0,l),
(503,0,ls),
(339,0,o),
(205,131,o),
(205,293,cs),
(205,825,l)
);
}
);
width = 805;
}
);
unicode = 116;
},
{
glyphname = u;
layers = (
{
anchors = (
{
name = botton;
position = "{824, 6}";
},
{
name = top;
position = "{596, 1158}";
}
);
background = {
};
hints = (
{
horizontal = 1;
place = (0,209);
type = Stem;
},
{
horizontal = 1;
place = (1016,20);
type = Stem;
},
{
place = (120,211);
type = Stem;
},
{
place = (861,211);
type = Stem;
}
);
layerId = "3916868A-960B-40DE-A2A5-83D1860F42F7";
shapes = (
{
closed = 1;
nodes = (
(120,1036,l),
(331,1036,l),
(331,377,ls),
(331,284,o),
(404,209,o),
(494,209,cs),
(861,209,l),
(861,1036,l),
(1072,1036,l),
(1072,210,ls),
(1072,94,o),
(977,0,o),
(859,0,cs),
(494,0,ls),
(288,0,o),
(120,168,o),
(120,374,cs)
);
}
);
width = 1192;
}
);
rightKerningGroup = g;
unicode = 117;
},
{
glyphname = v;
layers = (
{
background = {
};
hints = (
{
horizontal = 1;
place = (0,21);
type = Stem;
},
{
horizontal = 1;
place = (1016,20);
type = Stem;
}
);
layerId = "3916868A-960B-40DE-A2A5-83D1860F42F7";
shapes = (
{
closed = 1;
nodes = (
(40,1036,l),
(262,1036,l),
(539,305,l),
(814,1036,l),
(1036,1036,l),
(641,0,l),
(434,0,l)
);
}
);
width = 1076;
}
);
leftKerningGroup = v2;
rightKerningGroup = v;
unicode = 118;
},
{
glyphname = w;
layers = (
{
anchors = (
{
name = top;
position = "{746, 1158}";
}
);
background = {
};
hints = (
{
horizontal = 1;
place = (0,21);
type = Stem;
},
{
horizontal = 1;
place = (1016,20);
type = Stem;
}
);
layerId = "3916868A-960B-40DE-A2A5-83D1860F42F7";
shapes = (
{
closed = 1;
nodes = (
(60,1036,l),
(272,1036,l),
(391,350,l),
(647,787,l),
(846,787,l),
(1102,350,l),
(1221,1036,l),
(1432,1036,l),
(1253,0,l),
(1068,0,l),
(747,543,l),
(425,0,l),
(240,0,l)
);
}
);
width = 1492;
}
);
leftKerningGroup = w2;
rightKerningGroup = w;
unicode = 119;
},
{
glyphname = x;
layers = (
{
background = {
};
hints = (
{
horizontal = 1;
place = (0,21);
type = Stem;
},
{
horizontal = 1;
place = (1016,20);
type = Stem;
}
);
layerId = "3916868A-960B-40DE-A2A5-83D1860F42F7";
shapes = (
{
closed = 1;
nodes = (
(40,0,l),
(462,519,l),
(40,1036,l),
(309,1036,l),
(600,677,l),
(891,1036,l),
(1159,1036,l),
(738,519,l),
(1159,0,l),
(892,0,l),
(600,359,l),
(308,0,l)
);
}
);
width = 1199;
}
);
unicode = 120;
},
{
glyphname = y;
layers = (
{
anchors = (
{
name = top;
position = "{560, 1158}";
}
);
background = {
};
hints = (
{
horizontal = 1;
place = (-390,21);
type = Stem;
},
{
horizontal = 1;
place = (1016,20);
type = Stem;
}
);
layerId = "3916868A-960B-40DE-A2A5-83D1860F42F7";
shapes = (
{
closed = 1;
nodes = (
(60,1036,l),
(284,1036,l),
(553,318,l),
(828,1036,l),
(1061,1036,l),
(511,-390,l),
(280,-390,l),
(441,34,l)
);
}
);
width = 1121;
}
);
leftKerningGroup = v2;
rightKerningGroup = v;
unicode = 121;
},
{
glyphname = z;
layers = (
{
anchors = (
{
name = top;
position = "{587, 1158}";
}
);
background = {
};
hints = (
{
horizontal = 1;
place = (0,210);
type = Stem;
},
{
horizontal = 1;
place = (826,210);
type = Stem;
}
);
layerId = "3916868A-960B-40DE-A2A5-83D1860F42F7";
shapes = (
{
closed = 1;
nodes = (
(110,0,l),
(110,161,l),
(733,826,l),
(110,826,l),
(110,1036,l),
(1065,1036,l),
(1065,878,l),
(439,210,l),
(1065,210,l),
(1065,0,l)
);
}
);
width = 1175;
}
);
leftKerningGroup = z2;
rightKerningGroup = z;
unicode = 122;
},
{
glyphname = braceleft;
layers = (
{
background = {
};
hints = (
{
horizontal = 1;
place = (-390,210);
type = Stem;
},
{
horizontal = 1;
place = (521,214);
type = Stem;
},
{
horizontal = 1;
place = (1422,210);
type = Stem;
},
{
place = (223,211);
type = Stem;
}
);
layerId = "3916868A-960B-40DE-A2A5-83D1860F42F7";
shapes = (
{
closed = 1;
nodes = (
(90,735,l),
(212,735,o),
(223,745,o),
(223,853,cs),
(223,1261,ls),
(223,1575,o),
(294,1632,o),
(685,1632,c),
(685,1422,l),
(445,1422,o),
(434,1415,o),
(434,1261,cs),
(434,853,ls),
(434,771,o),
(408,685,o),
(367,629,c),
(410,573,o),
(434,493,o),
(434,406,cs),
(434,-38,ls),
(434,-161,o),
(468,-180,o),
(685,-180,c),
(685,-390,l),
(298,-390,o),
(223,-333,o),
(223,-38,cs),
(223,406,ls),
(223,496,o),
(194,521,o),
(90,521,c)
);
}
);
width = 725;
}
);
leftKerningGroup = at;
unicode = 123;
},
{
glyphname = bar;
layers = (
{
background = {
};
hints = (
{
place = (120,189);
type = Stem;
}
);
layerId = "3916868A-960B-40DE-A2A5-83D1860F42F7";
shapes = (
{
closed = 1;
nodes = (
(120,-382,l),
(120,1532,l),
(309,1532,l),
(309,-382,l)
);
}
);
width = 428;
}
);
leftKerningGroup = at;
unicode = 124;
},
{
glyphname = braceright;
layers = (
{
background = {
};
hints = (
{
horizontal = 1;
place = (-390,210);
type = Stem;
},
{
horizontal = 1;
place = (521,214);
type = Stem;
},
{
horizontal = 1;
place = (1422,210);
type = Stem;
},
{
place = (291,211);
type = Stem;
}
);
layerId = "3916868A-960B-40DE-A2A5-83D1860F42F7";
shapes = (
{
closed = 1;
nodes = (
(40,-180,l),
(257,-180,o),
(291,-161,o),
(291,-38,cs),
(291,406,ls),
(291,493,o),
(315,573,o),
(358,629,c),
(317,685,o),
(291,771,o),
(291,853,cs),
(291,1261,ls),
(291,1415,o),
(280,1422,o),
(40,1422,c),
(40,1632,l),
(431,1632,o),
(502,1575,o),
(502,1261,cs),
(502,853,ls),
(502,745,o),
(513,735,o),
(635,735,c),
(635,521,l),
(531,521,o),
(502,496,o),
(502,406,cs),
(502,-38,ls),
(502,-333,o),
(427,-390,o),
(40,-390,c)
);
}
);
width = 725;
}
);
leftKerningGroup = at;
unicode = 125;
},
{
glyphname = asciitilde;
layers = (
{
background = {
};
hints = (
{
horizontal = 1;
place = (402,196);
type = Stem;
},
{
horizontal = 1;
place = (507,199);
type = Stem;
},
{
place = (110,203);
type = Stem;
},
{
place = (964,201);
type = Stem;
}
);
layerId = "3916868A-960B-40DE-A2A5-83D1860F42F7";
shapes = (
{
closed = 1;
nodes = (
(110,402,l),
(110,579,o),
(234,706,o),
(407,706,cs),
(489,706,o),
(569,687,o),
(683,641,cs),
(766,610,o),
(816,598,o),
(864,598,cs),
(929,598,o),
(964,636,o),
(964,707,c),
(1165,707,l),
(1165,515,o),
(1048,402,o),
(849,402,cs),
(772,402,o),
(705,418,o),
(561,470,cs),
(486,497,o),
(441,507,o),
(405,507,cs),
(344,507,o),
(313,472,o),
(313,402,c)
);
}
);
width = 1275;
}
);
leftKerningGroup = at;
unicode = 126;
},
{
glyphname = exclamdown;
layers = (
{
background = {
};
hints = (
{
horizontal = 1;
place = (-390,21);
type = Stem;
},
{
horizontal = 1;
place = (993,260);
type = Stem;
},
{
place = (120,260);
type = Stem;
},
{
place = (144,212);
type = Stem;
}
);
layerId = "3916868A-960B-40DE-A2A5-83D1860F42F7";
shapes = (
{
closed = 1;
nodes = (
(120,1195,o),
(178,1253,o),
(250,1253,cs),
(322,1253,o),
(380,1195,o),
(380,1123,cs),
(380,1051,o),
(322,993,o),
(250,993,cs),
(178,993,o),
(120,1051,o),
(120,1123,cs)
);
},
{
closed = 1;
nodes = (
(144,-390,l),
(144,841,l),
(356,841,l),
(356,-390,l)
);
}
);
width = 500;
}
);
leftKerningGroup = at;
unicode = 161;
},
{
glyphname = cent;
layers = (
{
background = {
};
hints = (
{
horizontal = 1;
place = (0,21);
type = Stem;
},
{
horizontal = 1;
place = (197,210);
type = Stem;
},
{
horizontal = 1;
place = (1022,211);
type = Stem;
},
{
horizontal = 1;
place = (1402,20);
type = Stem;
},
{
place = (120,211);
type = Stem;
},
{
place = (585,185);
type = Stem;
}
);
layerId = "3916868A-960B-40DE-A2A5-83D1860F42F7";
shapes = (
{
closed = 1;
nodes = (
(120,858,ls),
(120,1065,o),
(292,1233,o),
(504,1233,cs),
(585,1233,l),
(585,1422,l),
(770,1422,l),
(770,1233,l),
(1088,1233,l),
(1088,1022,l),
(770,1022,l),
(770,407,l),
(1088,407,l),
(1088,197,l),
(770,197,l),
(770,0,l),
(585,0,l),
(585,197,l),
(504,197,ls),
(292,197,o),
(120,365,o),
(120,572,cs)
);
},
{
closed = 1;
nodes = (
(331,575,ls),
(331,482,o),
(409,407,o),
(504,407,cs),
(585,407,l),
(585,1022,l),
(504,1022,ls),
(409,1022,o),
(331,948,o),
(331,856,cs)
);
}
);
width = 1202;
}
);
leftKerningGroup = at;
unicode = 162;
},
{
glyphname = sterling;
layers = (
{
background = {
};
hints = (
{
horizontal = 1;
place = (0,211);
type = Stem;
},
{
horizontal = 1;
place = (635,211);
type = Stem;
},
{
horizontal = 1;
place = (1212,210);
type = Stem;
},
{
place = (227,211);
type = Stem;
}
);
layerId = "3916868A-960B-40DE-A2A5-83D1860F42F7";
shapes = (
{
closed = 1;
nodes = (
(110,635,l),
(110,846,l),
(224,846,l),
(220,928,o),
(218,1009,o),
(218,1064,cs),
(218,1271,o),
(387,1422,o),
(619,1422,cs),
(1094,1422,l),
(1094,1212,l),
(619,1212,ls),
(504,1212,o),
(429,1154,o),
(429,1065,cs),
(429,992,o),
(431,891,o),
(434,846,c),
(962,846,l),
(962,635,l),
(438,635,l),
(438,444,ls),
(438,320,o),
(429,261,o),
(402,211,c),
(1094,211,l),
(1094,0,l),
(146,0,l),
(146,167,l),
(203,225,o),
(227,307,o),
(227,444,cs),
(227,635,l)
);
}
);
width = 1214;
}
);
leftKerningGroup = at;
unicode = 163;
},
{
glyphname = currency;
layers = (
{
background = {
};
hints = (
{
horizontal = 1;
place = (279,160);
type = Stem;
},
{
horizontal = 1;
place = (867,160);
type = Stem;
},
{
place = (139,160);
type = Stem;
},
{
place = (726,159);
type = Stem;
}
);
layerId = "3916868A-960B-40DE-A2A5-83D1860F42F7";
shapes = (
{
closed = 1;
nodes = (
(110,355,l),
(201,447,l),
(160,508,o),
(139,578,o),
(139,653,cs),
(139,723,o),
(161,796,o),
(201,859,c),
(110,951,l),
(213,1056,l),
(305,963,l),
(368,1005,o),
(439,1027,o),
(512,1027,cs),
(584,1027,o),
(656,1005,o),
(719,963,c),
(810,1056,l),
(914,951,l),
(823,859,l),
(864,794,o),
(885,725,o),
(885,653,cs),
(885,580,o),
(863,507,o),
(823,447,c),
(914,355,l),
(810,250,l),
(719,343,l),
(655,301,o),
(584,279,o),
(512,279,cs),
(442,279,o),
(370,301,o),
(305,343,c),
(213,250,l)
);
},
{
closed = 1;
nodes = (
(299,535,o),
(394,439,o),
(512,439,cs),
(630,439,o),
(726,535,o),
(726,653,cs),
(726,771,o),
(630,867,o),
(512,867,cs),
(394,867,o),
(299,771,o),
(299,653,cs)
);
}
);
width = 1024;
}
);
leftKerningGroup = at;
unicode = 164;
},
{
glyphname = yen;
layers = (
{
background = {
};
hints = (
{
horizontal = 1;
place = (0,21);
type = Stem;
},
{
horizontal = 1;
place = (276,188);
type = Stem;
},
{
horizontal = 1;
place = (584,186);
type = Stem;
},
{
horizontal = 1;
place = (1402,20);
type = Stem;
},
{
place = (602,216);
type = Stem;
}
);
layerId = "3916868A-960B-40DE-A2A5-83D1860F42F7";
shapes = (
{
closed = 1;
nodes = (
(63,1422,l),
(320,1422,l),
(710,883,l),
(1098,1422,l),
(1354,1422,l),
(884,770,l),
(1163,770,l),
(1163,584,l),
(818,584,l),
(818,464,l),
(1163,464,l),
(1163,276,l),
(818,276,l),
(818,0,l),
(602,0,l),
(602,276,l),
(256,276,l),
(256,464,l),
(602,464,l),
(602,584,l),
(256,584,l),
(256,770,l),
(536,770,l)
);
}
);
width = 1417;
}
);
unicode = 165;
},
{
glyphname = brokenbar;
layers = (
{
background = {
};
hints = (
{
horizontal = 1;
place = (-390,21);
type = Stem;
},
{
place = (120,197);
type = Stem;
}
);
layerId = "3916868A-960B-40DE-A2A5-83D1860F42F7";
shapes = (
{
closed = 1;
nodes = (
(120,-390,l),
(120,424,l),
(317,424,l),
(317,-390,l)
);
},
{
closed = 1;
nodes = (
(120,725,l),
(120,1540,l),
(317,1540,l),
(317,725,l)
);
}
);
width = 437;
}
);
leftKerningGroup = at;
unicode = 166;
},
{
glyphname = section;
layers = (
{
background = {
};
hints = (
{
horizontal = 1;
place = (0,211);
type = Stem;
},
{
horizontal = 1;
place = (415,211);
type = Stem;
},
{
horizontal = 1;
place = (825,211);
type = Stem;
},
{
horizontal = 1;
place = (1212,210);
type = Stem;
},
{
place = (120,211);
type = Stem;
},
{
place = (155,211);
type = Stem;
},
{
place = (782,211);
type = Stem;
},
{
place = (862,210);
type = Stem;
}
);
layerId = "3916868A-960B-40DE-A2A5-83D1860F42F7";
shapes = (
{
closed = 1;
nodes = (
(120,768,ls),
(120,851,o),
(141,923,o),
(180,971,c),
(163,1011,o),
(155,1057,o),
(155,1108,cs),
(155,1129,ls),
(155,1292,o),
(286,1422,o),
(449,1422,cs),
(998,1422,l),
(998,1212,l),
(449,1212,ls),
(403,1212,o),
(366,1175,o),
(366,1129,cs),
(366,1108,ls),
(366,1068,o),
(394,1036,o),
(430,1036,cs),
(807,1036,ls),
(953,1036,o),
(1072,916,o),
(1072,767,cs),
(1072,681,ls),
(1072,583,o),
(1042,513,o),
(976,455,c),
(988,415,o),
(993,380,o),
(993,327,cs),
(993,301,ls),
(993,135,o),
(865,0,o),
(708,0,cs),
(164,0,l),
(164,211,l),
(707,211,ls),
(748,211,o),
(782,250,o),
(782,298,cs),
(782,327,ls),
(782,371,o),
(745,415,o),
(707,415,cs),
(386,415,ls),
(239,415,o),
(120,534,o),
(120,681,cs)
);
},
{
closed = 1;
nodes = (
(331,690,ls),
(331,655,o),
(356,626,o),
(386,626,cs),
(810,626,ls),
(839,626,o),
(862,655,o),
(862,690,cs),
(862,761,ls),
(862,796,o),
(839,825,o),
(810,825,cs),
(386,825,ls),
(356,825,o),
(331,796,o),
(331,761,cs)
);
}
);
width = 1192;
}
);
leftKerningGroup = at;
unicode = 167;
},
{
glyphname = dieresis;
layers = (
{
anchors = (
{
name = top;
position = "{400, 1200}";
}
);
background = {
};
hints = (
{
horizontal = 1;
place = (1201,221);
type = Stem;
},
{
place = (120,221);
type = Stem;
},
{
place = (460,221);
type = Stem;
}
);
layerId = "3916868A-960B-40DE-A2A5-83D1860F42F7";
shapes = (
{
closed = 1;
nodes = (
(120,1373,o),
(169,1422,o),
(230,1422,cs),
(292,1422,o),
(341,1373,o),
(341,1311,cs),
(341,1250,o),
(292,1201,o),
(230,1201,cs),
(169,1201,o),
(120,1250,o),
(120,1311,cs)
);
},
{
closed = 1;
nodes = (
(460,1373,o),
(509,1422,o),
(570,1422,cs),
(632,1422,o),
(681,1373,o),
(681,1311,cs),
(681,1250,o),
(632,1201,o),
(570,1201,cs),
(509,1201,o),
(460,1250,o),
(460,1311,cs)
);
}
);
width = 801;
}
);
leftKerningGroup = at;
unicode = 168;
},
{
glyphname = copyright;
layers = (
{
background = {
};
hints = (
{
horizontal = 1;
place = (366,127);
type = Stem;
},
{
horizontal = 1;
place = (578,127);
type = Stem;
},
{
horizontal = 1;
place = (1089,127);
type = Stem;
},
{
horizontal = 1;
place = (1297,127);
type = Stem;
},
{
place = (140,127);
type = Stem;
},
{
place = (373,128);
type = Stem;
},
{
place = (1010,127);
type = Stem;
}
);
layerId = "3916868A-960B-40DE-A2A5-83D1860F42F7";
shapes = (
{
closed = 1;
nodes = (
(140,1144,ls),
(140,1299,o),
(266,1424,o),
(421,1424,cs),
(856,1424,ls),
(1011,1424,o),
(1137,1299,o),
(1137,1144,cs),
(1137,647,ls),
(1137,492,o),
(1011,366,o),
(856,366,cs),
(421,366,ls),
(266,366,o),
(140,492,o),
(140,647,cs)
);
},
{
closed = 1;
nodes = (
(267,647,ls),
(267,562,o),
(336,493,o),
(421,493,cs),
(856,493,ls),
(941,493,o),
(1010,562,o),
(1010,647,cs),
(1010,1144,ls),
(1010,1228,o),
(941,1297,o),
(856,1297,cs),
(421,1297,ls),
(336,1297,o),
(267,1228,o),
(267,1144,cs)
);
},
{
closed = 1;
nodes = (
(373,988,ls),
(373,1114,o),
(476,1216,o),
(602,1216,cs),
(872,1216,l),
(872,1089,l),
(602,1089,ls),
(547,1089,o),
(501,1043,o),
(501,988,cs),
(501,806,ls),
(501,750,o),
(546,705,o),
(602,705,cs),
(872,705,l),
(872,578,l),
(602,578,ls),
(476,578,o),
(373,680,o),
(373,806,cs)
);
}
);
width = 1277;
}
);
leftKerningGroup = at;
unicode = 169;
},
{
glyphname = ordfeminine;
layers = (
{
background = {
};
hints = (
{
horizontal = 1;
place = (777,128);
type = Stem;
},
{
horizontal = 1;
place = (1294,128);
type = Stem;
},
{
place = (120,128);
type = Stem;
},
{
place = (583,127);
type = Stem;
}
);
layerId = "3916868A-960B-40DE-A2A5-83D1860F42F7";
shapes = (
{
closed = 1;
nodes = (
(120,1194,ls),
(120,1321,o),
(229,1422,o),
(368,1422,cs),
(710,1422,l),
(710,777,l),
(368,777,ls),
(230,777,o),
(120,878,o),
(120,1006,cs)
);
},
{
closed = 1;
nodes = (
(248,1007,ls),
(248,950,o),
(301,905,o),
(368,905,cs),
(583,905,l),
(583,1294,l),
(368,1294,ls),
(301,1294,o),
(248,1250,o),
(248,1193,cs)
);
}
);
width = 830;
}
);
leftKerningGroup = at;
unicode = 170;
},
{
glyphname = guillemotleft;
layers = (
{
background = {
};
layerId = "3916868A-960B-40DE-A2A5-83D1860F42F7";
shapes = (
{
closed = 1;
nodes = (
(110,497,l),
(110,604,l),
(686,1007,l),
(686,783,l),
(355,549,l),
(686,317,l),
(686,94,l)
);
},
{
closed = 1;
nodes = (
(603,497,l),
(603,604,l),
(1178,1007,l),
(1178,783,l),
(848,549,l),
(1178,317,l),
(1178,94,l)
);
}
);
width = 1288;
}
);
leftKerningGroup = at;
unicode = 171;
},
{
glyphname = logicalnot;
layers = (
{
background = {
};
hints = (
{
horizontal = 1;
place = (466,176);
type = Stem;
},
{
place = (948,176);
type = Stem;
}
);
layerId = "3916868A-960B-40DE-A2A5-83D1860F42F7";
shapes = (
{
closed = 1;
nodes = (
(110,466,l),
(110,642,l),
(1124,642,l),
(1124,231,l),
(948,231,l),
(948,466,l)
);
}
);
width = 1233;
}
);
leftKerningGroup = at;
unicode = 172;
},
{
glyphname = uni00AD;
layers = (
{
background = {
};
hints = (
{
horizontal = 1;
place = (466,176);
type = Stem;
},
{
place = (110,627);
type = Stem;
}
);
layerId = "3916868A-960B-40DE-A2A5-83D1860F42F7";
shapes = (
{
closed = 1;
nodes = (
(110,466,l),
(110,642,l),
(737,642,l),
(737,466,l)
);
}
);
width = 847;
}
);
leftKerningGroup = at;
unicode = 173;
},
{
glyphname = registered;
layers = (
{
background = {
};
hints = (
{
horizontal = 1;
place = (366,127);
type = Stem;
},
{
horizontal = 1;
place = (825,127);
type = Stem;
},
{
horizontal = 1;
place = (1092,124);
type = Stem;
},
{
horizontal = 1;
place = (1297,127);
type = Stem;
},
{
place = (140,127);
type = Stem;
},
{
place = (388,127);
type = Stem;
},
{
place = (747,127);
type = Stem;
},
{
place = (1010,127);
type = Stem;
}
);
layerId = "3916868A-960B-40DE-A2A5-83D1860F42F7";
shapes = (
{
closed = 1;
nodes = (
(140,1144,ls),
(140,1299,o),
(266,1424,o),
(421,1424,cs),
(856,1424,ls),
(1011,1424,o),
(1137,1299,o),
(1137,1144,cs),
(1137,647,ls),
(1137,492,o),
(1011,366,o),
(856,366,cs),
(421,366,ls),
(266,366,o),
(140,492,o),
(140,647,cs)
);
},
{
closed = 1;
nodes = (
(267,647,ls),
(267,562,o),
(336,493,o),
(421,493,cs),
(856,493,ls),
(941,493,o),
(1010,562,o),
(1010,647,cs),
(1010,1144,ls),
(1010,1228,o),
(941,1297,o),
(856,1297,cs),
(421,1297,ls),
(336,1297,o),
(267,1228,o),
(267,1144,cs)
);
},
{
closed = 1;
nodes = (
(388,577,l),
(388,1216,l),
(708,1216,ls),
(798,1216,o),
(874,1138,o),
(874,1044,cs),
(874,999,ls),
(874,910,o),
(809,837,o),
(722,827,c),
(912,577,l),
(765,577,l),
(576,825,l),
(515,825,l),
(515,577,l)
);
},
{
closed = 1;
nodes = (
(515,952,l),
(708,952,ls),
(729,952,o),
(747,973,o),
(747,999,cs),
(747,1044,ls),
(747,1070,o),
(729,1092,o),
(708,1092,cs),
(515,1092,l)
);
}
);
width = 1277;
}
);
leftKerningGroup = at;
unicode = 174;
},
{
glyphname = macron;
layers = (
{
anchors = (
{
name = top;
position = "{419, 1275}";
}
);
background = {
};
hints = (
{
horizontal = 1;
place = (1275,147);
type = Stem;
},
{
place = (120,597);
type = Stem;
}
);
layerId = "3916868A-960B-40DE-A2A5-83D1860F42F7";
shapes = (
{
closed = 1;
nodes = (
(120,1275,l),
(120,1422,l),
(717,1422,l),
(717,1275,l)
);
}
);
width = 837;
}
);
leftKerningGroup = at;
unicode = 175;
},
{
glyphname = degree;
layers = (
{
background = {
};
hints = (
{
horizontal = 1;
place = (915,118);
type = Stem;
},
{
horizontal = 1;
place = (1304,118);
type = Stem;
},
{
place = (120,118);
type = Stem;
},
{
place = (480,118);
type = Stem;
}
);
layerId = "3916868A-960B-40DE-A2A5-83D1860F42F7";
shapes = (
{
closed = 1;
nodes = (
(120,1210,ls),
(120,1327,o),
(215,1422,o),
(333,1422,cs),
(385,1422,ls),
(503,1422,o),
(598,1327,o),
(598,1210,cs),
(598,1127,ls),
(598,1010,o),
(503,915,o),
(385,915,cs),
(333,915,ls),
(215,915,o),
(120,1010,o),
(120,1127,cs)
);
},
{
closed = 1;
nodes = (
(238,1127,ls),
(238,1075,o),
(281,1033,o),
(333,1033,cs),
(385,1033,ls),
(437,1033,o),
(480,1075,o),
(480,1127,cs),
(480,1210,ls),
(480,1262,o),
(437,1304,o),
(385,1304,cs),
(333,1304,ls),
(281,1304,o),
(238,1262,o),
(238,1210,cs)
);
}
);
width = 718;
}
);
leftKerningGroup = at;
unicode = 176;
},
{
glyphname = plusminus;
layers = (
{
background = {
};
hints = (
{
horizontal = 1;
place = (-3,176);
type = Stem;
},
{
horizontal = 1;
place = (660,176);
type = Stem;
},
{
place = (519,176);
type = Stem;
}
);
layerId = "3916868A-960B-40DE-A2A5-83D1860F42F7";
shapes = (
{
closed = 1;
nodes = (
(110,-3,l),
(110,173,l),
(1104,173,l),
(1104,-3,l)
);
},
{
closed = 1;
nodes = (
(110,660,l),
(110,836,l),
(519,836,l),
(519,1234,l),
(695,1234,l),
(695,836,l),
(1104,836,l),
(1104,660,l),
(695,660,l),
(695,262,l),
(519,262,l),
(519,660,l)
);
}
);
width = 1213;
}
);
leftKerningGroup = at;
unicode = 177;
},
{
glyphname = twosuperior;
layers = (
{
background = {
};
hints = (
{
horizontal = 1;
place = (596,131);
type = Stem;
},
{
horizontal = 1;
place = (1291,131);
type = Stem;
},
{
place = (70,130);
type = Stem;
},
{
place = (586,130);
type = Stem;
}
);
layerId = "3916868A-960B-40DE-A2A5-83D1860F42F7";
shapes = (
{
closed = 1;
nodes = (
(70,596,l),
(70,879,ls),
(70,970,o),
(108,1009,o),
(216,1029,cs),
(523,1086,ls),
(560,1093,o),
(586,1126,o),
(586,1164,cs),
(586,1216,ls),
(586,1258,o),
(552,1291,o),
(509,1291,cs),
(111,1291,l),
(111,1422,l),
(509,1422,ls),
(623,1422,o),
(716,1332,o),
(716,1222,cs),
(716,1164,ls),
(716,1066,o),
(654,982,o),
(570,966,cs),
(226,901,ls),
(205,897,o),
(200,893,o),
(200,880,cs),
(200,727,l),
(715,727,l),
(715,596,l)
);
}
);
width = 786;
}
);
leftKerningGroup = at;
unicode = 178;
},
{
glyphname = threesuperior;
layers = (
{
background = {
};
hints = (
{
horizontal = 1;
place = (596,131);
type = Stem;
},
{
horizontal = 1;
place = (967,130);
type = Stem;
},
{
horizontal = 1;
place = (1291,131);
type = Stem;
},
{
place = (574,130);
type = Stem;
},
{
place = (590,130);
type = Stem;
}
);
layerId = "3916868A-960B-40DE-A2A5-83D1860F42F7";
shapes = (
{
closed = 1;
nodes = (
(70,596,l),
(70,727,l),
(512,727,ls),
(555,727,o),
(590,761,o),
(590,802,cs),
(590,880,ls),
(590,927,o),
(542,967,o),
(484,967,cs),
(289,967,l),
(289,1097,l),
(484,1097,ls),
(534,1097,o),
(574,1134,o),
(574,1180,cs),
(574,1217,ls),
(574,1258,o),
(539,1291,o),
(496,1291,cs),
(70,1291,l),
(70,1422,l),
(494,1422,ls),
(610,1422,o),
(704,1331,o),
(704,1219,cs),
(704,1178,ls),
(704,1121,o),
(681,1072,o),
(637,1038,c),
(695,1001,o),
(720,953,o),
(720,879,cs),
(720,801,ls),
(720,688,o),
(626,596,o),
(511,596,cs)
);
}
);
width = 790;
}
);
leftKerningGroup = at;
unicode = 179;
},
{
glyphname = acute;
layers = (
{
anchors = (
{
name = top;
position = "{214, 1170}";
}
);
background = {
};
hints = (
{
horizontal = 1;
place = (1170,422);
type = Stem;
},
{
place = (100,312);
type = Stem;
}
);
layerId = "3916868A-960B-40DE-A2A5-83D1860F42F7";
shapes = (
{
closed = 1;
nodes = (
(100,1223,l),
(229,1592,l),
(412,1504,l),
(214,1170,l)
);
}
);
width = 512;
}
);
leftKerningGroup = at;
unicode = 180;
},
{
glyphname = uni00B5;
layers = (
{
background = {
};
hints = (
{
horizontal = 1;
place = (-390,21);
type = Stem;
},
{
horizontal = 1;
place = (0,209);
type = Stem;
},
{
horizontal = 1;
place = (1016,20);
type = Stem;
},
{
place = (120,211);
type = Stem;
},
{
place = (861,211);
type = Stem;
}
);
layerId = "3916868A-960B-40DE-A2A5-83D1860F42F7";
shapes = (
{
closed = 1;
nodes = (
(120,-390,l),
(120,1036,l),
(331,1036,l),
(331,377,ls),
(331,284,o),
(404,209,o),
(494,209,cs),
(861,209,l),
(861,1036,l),
(1072,1036,l),
(1072,210,ls),
(1072,94,o),
(977,0,o),
(859,0,cs),
(494,0,ls),
(439,0,o),
(384,13,o),
(330,38,c),
(330,-390,l)
);
}
);
width = 1192;
}
);
leftKerningGroup = at;
unicode = 181;
},
{
glyphname = paragraph;
layers = (
{
background = {
};
hints = (
{
horizontal = 1;
place = (0,21);
type = Stem;
},
{
horizontal = 1;
place = (1402,20);
type = Stem;
},
{
place = (90,536);
type = Stem;
},
{
place = (480,146);
type = Stem;
},
{
place = (752,147);
type = Stem;
}
);
layerId = "3916868A-960B-40DE-A2A5-83D1860F42F7";
shapes = (
{
closed = 1;
nodes = (
(90,1275,o),
(259,1422,o),
(497,1422,cs),
(626,1422,l),
(626,0,l),
(480,0,l),
(480,719,l),
(247,726,o),
(90,867,o),
(90,1069,cs)
);
},
{
closed = 1;
nodes = (
(752,0,l),
(752,1422,l),
(899,1422,l),
(899,0,l)
);
}
);
width = 1039;
}
);
leftKerningGroup = at;
unicode = 182;
},
{
glyphname = periodcentered;
layers = (
{
background = {
};
hints = (
{
horizontal = 1;
place = (775,221);
type = Stem;
},
{
place = (120,221);
type = Stem;
}
);
layerId = "3916868A-960B-40DE-A2A5-83D1860F42F7";
shapes = (
{
closed = 1;
nodes = (
(120,947,o),
(169,996,o),
(230,996,cs),
(292,996,o),
(341,947,o),
(341,886,cs),
(341,824,o),
(292,775,o),
(230,775,cs),
(169,775,o),
(120,825,o),
(120,886,cs)
);
}
);
width = 461;
}
);
leftKerningGroup = at;
unicode = 183;
},
{
glyphname = cedilla;
layers = (
{
anchors = (
{
name = botton;
position = "{287, 0}";
}
);
background = {
};
hints = (
{
horizontal = 1;
place = (-313,150);
type = Stem;
},
{
place = (251,151);
type = Stem;
}
);
layerId = "3916868A-960B-40DE-A2A5-83D1860F42F7";
shapes = (
{
closed = 1;
nodes = (
(100,-149,l),
(182,-162,o),
(193,-163,o),
(210,-163,cs),
(240,-163,o),
(251,-154,o),
(251,-132,cs),
(251,-112,o),
(244,-89,o),
(212,0,c),
(360,0,l),
(388,-75,o),
(402,-136,o),
(402,-183,cs),
(402,-272,o),
(354,-313,o),
(250,-313,cs),
(217,-313,o),
(188,-310,o),
(100,-297,c)
);
}
);
width = 502;
}
);
leftKerningGroup = at;
unicode = 184;
},
{
glyphname = onesuperior;
layers = (
{
background = {
};
hints = (
{
horizontal = 1;
place = (1291,131);
type = Stem;
},
{
place = (40,273);
type = Stem;
},
{
place = (183,130);
type = Stem;
}
);
layerId = "3916868A-960B-40DE-A2A5-83D1860F42F7";
shapes = (
{
closed = 1;
nodes = (
(40,1291,l),
(40,1422,l),
(313,1422,l),
(313,596,l),
(183,596,l),
(183,1291,l)
);
}
);
width = 413;
}
);
leftKerningGroup = at;
unicode = 185;
},
{
glyphname = ordmasculine;
layers = (
{
background = {
};
hints = (
{
horizontal = 1;
place = (774,128);
type = Stem;
},
{
horizontal = 1;
place = (1294,128);
type = Stem;
},
{
place = (120,128);
type = Stem;
},
{
place = (561,128);
type = Stem;
}
);
layerId = "3916868A-960B-40DE-A2A5-83D1860F42F7";
shapes = (
{
closed = 1;
nodes = (
(120,1200,ls),
(120,1323,o),
(220,1422,o),
(343,1422,cs),
(466,1422,ls),
(589,1422,o),
(689,1323,o),
(689,1200,cs),
(689,996,ls),
(689,873,o),
(589,774,o),
(466,774,cs),
(343,774,ls),
(220,774,o),
(120,873,o),
(120,996,cs)
);
},
{
closed = 1;
nodes = (
(248,1007,ls),
(248,990,o),
(248,989,o),
(249,984,c),
(255,937,o),
(296,902,o),
(343,902,cs),
(466,902,ls),
(518,902,o),
(561,944,o),
(561,996,cs),
(561,1189,ls),
(561,1206,o),
(561,1207,o),
(560,1212,c),
(554,1259,o),
(513,1294,o),
(466,1294,cs),
(343,1294,ls),
(291,1294,o),
(248,1252,o),
(248,1200,cs)
);
}
);
width = 809;
}
);
leftKerningGroup = at;
unicode = 186;
},
{
glyphname = guillemotright;
layers = (
{
background = {
};
layerId = "3916868A-960B-40DE-A2A5-83D1860F42F7";
shapes = (
{
closed = 1;
nodes = (
(110,94,l),
(110,317,l),
(440,549,l),
(110,783,l),
(110,1007,l),
(685,604,l),
(685,497,l)
);
},
{
closed = 1;
nodes = (
(602,94,l),
(602,317,l),
(933,549,l),
(602,783,l),
(602,1007,l),
(1178,604,l),
(1178,497,l)
);
}
);
width = 1288;
}
);
leftKerningGroup = at;
unicode = 187;
},
{
glyphname = onequarter;
layers = (
{
background = {
};
hints = (
{
horizontal = 1;
place = (0,21);
type = Stem;
},
{
horizontal = 1;
place = (335,131);
type = Stem;
},
{
horizontal = 1;
place = (1292,130);
type = Stem;
},
{
place = (120,273);
type = Stem;
},
{
place = (263,130);
type = Stem;
},
{
place = (1305,130);
type = Stem;
},
{
place = (1793,130);
type = Stem;
}
);
layerId = "3916868A-960B-40DE-A2A5-83D1860F42F7";
shapes = (
{
closed = 1;
nodes = (
(120,1292,l),
(120,1422,l),
(393,1422,l),
(393,588,l),
(263,588,l),
(263,1292,l)
);
},
{
closed = 1;
nodes = (
(265,0,l),
(1272,1422,l),
(1433,1422,l),
(426,0,l)
);
},
{
closed = 1;
nodes = (
(1305,830,l),
(1435,830,l),
(1435,543,ls),
(1435,500,o),
(1468,466,o),
(1511,466,cs),
(1793,466,l),
(1793,830,l),
(1923,830,l),
(1923,0,l),
(1793,0,l),
(1793,335,l),
(1512,335,ls),
(1397,335,o),
(1305,427,o),
(1305,541,cs)
);
}
);
width = 2043;
}
);
leftKerningGroup = at;
unicode = 188;
},
{
glyphname = onehalf;
layers = (
{
background = {
};
hints = (
{
horizontal = 1;
place = (0,131);
type = Stem;
},
{
horizontal = 1;
place = (699,131);
type = Stem;
},
{
horizontal = 1;
place = (1292,130);
type = Stem;
},
{
place = (120,273);
type = Stem;
},
{
place = (263,130);
type = Stem;
},
{
place = (1261,131);
type = Stem;
},
{
place = (1780,130);
type = Stem;
}
);
layerId = "3916868A-960B-40DE-A2A5-83D1860F42F7";
shapes = (
{
closed = 1;
nodes = (
(120,1292,l),
(120,1422,l),
(393,1422,l),
(393,588,l),
(263,588,l),
(263,1292,l)
);
},
{
closed = 1;
nodes = (
(265,0,l),
(1273,1422,l),
(1433,1422,l),
(425,0,l)
);
},
{
closed = 1;
nodes = (
(1261,0,l),
(1261,281,ls),
(1261,371,o),
(1299,409,o),
(1409,430,cs),
(1717,489,ls),
(1754,496,o),
(1780,530,o),
(1780,569,cs),
(1780,622,ls),
(1780,665,o),
(1746,699,o),
(1703,699,cs),
(1303,699,l),
(1303,830,l),
(1703,830,ls),
(1817,830,o),
(1910,739,o),
(1910,627,cs),
(1910,568,ls),
(1910,469,o),
(1848,385,o),
(1764,369,cs),
(1418,304,ls),
(1397,300,o),
(1392,296,o),
(1392,283,cs),
(1392,131,l),
(1909,131,l),
(1909,0,l)
);
}
);
width = 2030;
}
);
leftKerningGroup = at;
unicode = 189;
},
{
glyphname = threequarters;
layers = (
{
background = {
};
hints = (
{
horizontal = 1;
place = (0,21);
type = Stem;
},
{
horizontal = 1;
place = (335,131);
type = Stem;
},
{
horizontal = 1;
place = (596,131);
type = Stem;
},
{
horizontal = 1;
place = (967,130);
type = Stem;
},
{
horizontal = 1;
place = (1291,131);
type = Stem;
},
{
place = (624,130);
type = Stem;
},
{
place = (640,130);
type = Stem;
},
{
place = (1581,130);
type = Stem;
},
{
place = (2069,130);
type = Stem;
}
);
layerId = "3916868A-960B-40DE-A2A5-83D1860F42F7";
shapes = (
{
closed = 1;
nodes = (
(120,596,l),
(120,727,l),
(562,727,ls),
(605,727,o),
(640,761,o),
(640,802,cs),
(640,880,ls),
(640,927,o),
(592,967,o),
(534,967,cs),
(339,967,l),
(339,1097,l),
(534,1097,ls),
(584,1097,o),
(624,1134,o),
(624,1180,cs),
(624,1217,ls),
(624,1258,o),
(589,1291,o),
(546,1291,cs),
(120,1291,l),
(120,1422,l),
(544,1422,ls),
(660,1422,o),
(754,1331,o),
(754,1219,cs),
(754,1178,ls),
(754,1121,o),
(731,1072,o),
(687,1038,c),
(745,1001,o),
(770,953,o),
(770,879,cs),
(770,801,ls),
(770,688,o),
(676,596,o),
(561,596,cs)
);
},
{
closed = 1;
nodes = (
(551,0,l),
(1551,1422,l),
(1711,1422,l),
(711,0,l)
);
},
{
closed = 1;
nodes = (
(1581,830,l),
(1711,830,l),
(1711,543,ls),
(1711,500,o),
(1744,466,o),
(1787,466,cs),
(2069,466,l),
(2069,830,l),
(2199,830,l),
(2199,0,l),
(2069,0,l),
(2069,335,l),
(1788,335,ls),
(1673,335,o),
(1581,427,o),
(1581,541,cs)
);
}
);
width = 2329;
}
);
leftKerningGroup = at;
unicode = 190;
},
{
glyphname = questiondown;
layers = (
{
background = {
};
hints = (
{
horizontal = 1;
place = (-390,210);
type = Stem;
},
{
horizontal = 1;
place = (804,238);
type = Stem;
},
{
place = (90,211);
type = Stem;
},
{
place = (586,211);
type = Stem;
}
);
layerId = "3916868A-960B-40DE-A2A5-83D1860F42F7";
shapes = (
{
closed = 1;
nodes = (
(90,72,ls),
(90,260,o),
(171,352,o),
(416,442,cs),
(548,489,o),
(586,514,o),
(586,554,cs),
(586,726,l),
(797,726,l),
(797,554,ls),
(797,408,o),
(703,320,o),
(456,234,cs),
(342,192,o),
(301,148,o),
(301,66,cs),
(301,-71,ls),
(301,-131,o),
(350,-180,o),
(410,-180,cs),
(1029,-180,l),
(1029,-390,l),
(410,-390,ls),
(230,-390,o),
(90,-252,o),
(90,-72,cs)
);
},
{
closed = 1;
nodes = (
(573,989,o),
(626,1042,o),
(692,1042,cs),
(758,1042,o),
(811,989,o),
(811,923,cs),
(811,857,o),
(758,804,o),
(692,804,cs),
(626,804,o),
(573,857,o),
(573,923,cs)
);
}
);
width = 1149;
}
);
leftKerningGroup = at;
rightKerningGroup = question;
unicode = 191;
},
{
glyphname = AE;
layers = (
{
anchors = (
{
name = top;
position = "{1022, 1544}";
}
);
background = {
};
hints = (
{
horizontal = 1;
place = (0,211);
type = Stem;
},
{
horizontal = 1;
place = (428,210);
type = Stem;
},
{
horizontal = 1;
place = (635,210);
type = Stem;
},
{
horizontal = 1;
place = (1212,210);
type = Stem;
},
{
place = (819,210);
type = Stem;
}
);
layerId = "3916868A-960B-40DE-A2A5-83D1860F42F7";
shapes = (
{
closed = 1;
nodes = (
(40,0,l),
(533,1422,l),
(1924,1422,l),
(1924,1212,l),
(1029,1212,l),
(1029,211,l),
(1924,211,l),
(1924,0,l),
(819,0,l),
(819,428,l),
(533,428,l),
(606,638,l),
(819,638,l),
(819,1212,l),
(685,1212,l),
(264,0,l)
);
},
{
closed = 1;
nodes = (
(1151,635,l),
(1151,845,l),
(1923,845,l),
(1923,635,l)
);
}
);
width = 2044;
}
);
leftKerningGroup = at;
unicode = 198;
},
{
glyphname = Eth;
layers = (
{
background = {
};
hints = (
{
horizontal = 1;
place = (0,211);
type = Stem;
},
{
horizontal = 1;
place = (650,170);
type = Stem;
},
{
horizontal = 1;
place = (1212,210);
type = Stem;
},
{
place = (187,210);
type = Stem;
},
{
place = (1135,210);
type = Stem;
}
);
layerId = "3916868A-960B-40DE-A2A5-83D1860F42F7";
shapes = (
{
closed = 1;
nodes = (
(90,650,l),
(90,820,l),
(187,820,l),
(187,1422,l),
(942,1422,ls),
(1164,1422,o),
(1345,1243,o),
(1345,1022,cs),
(1345,396,ls),
(1345,177,o),
(1164,0,o),
(942,0,cs),
(187,0,l),
(187,650,l)
);
},
{
closed = 1;
nodes = (
(397,211,l),
(942,211,ls),
(1048,211,o),
(1135,295,o),
(1135,399,cs),
(1135,1022,ls),
(1135,1127,o),
(1048,1212,o),
(942,1212,cs),
(397,1212,l),
(397,820,l),
(867,820,l),
(867,650,l),
(397,650,l)
);
}
);
width = 1465;
}
);
leftKerningGroup = at;
unicode = 208;
},
{
glyphname = multiply;
layers = (
{
background = {
};
layerId = "3916868A-960B-40DE-A2A5-83D1860F42F7";
shapes = (
{
closed = 1;
nodes = (
(90,251,l),
(378,539,l),
(90,826,l),
(228,968,l),
(517,677,l),
(807,968,l),
(945,826,l),
(656,539,l),
(944,251,l),
(807,110,l),
(517,400,l),
(228,110,l)
);
}
);
width = 1034;
}
);
leftKerningGroup = at;
unicode = 215;
},
{
glyphname = Oslash;
layers = (
{
anchors = (
{
name = top;
position = "{731, 1544}";
}
);
background = {
};
hints = (
{
horizontal = 1;
place = (0,210);
type = Stem;
},
{
horizontal = 1;
place = (1212,210);
type = Stem;
},
{
place = (143,212);
type = Stem;
},
{
place = (1113,212);
type = Stem;
}
);
layerId = "3916868A-960B-40DE-A2A5-83D1860F42F7";
shapes = (
{
closed = 1;
nodes = (
(105,-4,l),
(224,165,l),
(171,233,o),
(143,315,o),
(143,400,cs),
(143,1022,ls),
(143,1243,o),
(333,1422,o),
(567,1422,cs),
(901,1422,ls),
(962,1422,o),
(1022,1409,o),
(1078,1385,c),
(1203,1564,l),
(1357,1457,l),
(1230,1274,l),
(1292,1202,o),
(1325,1114,o),
(1325,1022,cs),
(1325,400,ls),
(1325,179,o),
(1135,0,o),
(901,0,cs),
(567,0,ls),
(500,0,o),
(433,16,o),
(370,46,c),
(259,-111,l)
);
},
{
closed = 1;
nodes = (
(355,399,ls),
(355,382,o),
(356,370,o),
(359,359,c),
(953,1206,l),
(936,1210,o),
(919,1212,o),
(901,1212,cs),
(567,1212,ls),
(450,1212,o),
(355,1128,o),
(355,1023,cs)
);
},
{
closed = 1;
nodes = (
(493,222,l),
(516,214,o),
(541,210,o),
(567,210,cs),
(901,210,ls),
(1018,210,o),
(1113,294,o),
(1113,399,cs),
(1113,1023,ls),
(1113,1048,o),
(1109,1070,o),
(1100,1089,c)
);
}
);
width = 1462;
}
);
leftKerningGroup = C2;
unicode = 216;
},
{
glyphname = Thorn;
layers = (
{
background = {
};
hints = (
{
horizontal = 1;
place = (0,21);
type = Stem;
},
{
horizontal = 1;
place = (189,211);
type = Stem;
},
{
horizontal = 1;
place = (1014,211);
type = Stem;
},
{
horizontal = 1;
place = (1402,20);
type = Stem;
},
{
place = (120,211);
type = Stem;
},
{
place = (884,211);
type = Stem;
}
);
layerId = "3916868A-960B-40DE-A2A5-83D1860F42F7";
shapes = (
{
closed = 1;
nodes = (
(120,0,l),
(120,1422,l),
(331,1422,l),
(331,1187,l),
(385,1212,o),
(440,1225,o),
(495,1225,cs),
(721,1225,ls),
(927,1225,o),
(1095,1057,o),
(1095,851,cs),
(1095,563,ls),
(1095,357,o),
(927,189,o),
(721,189,cs),
(495,189,ls),
(440,189,o),
(385,202,o),
(331,227,c),
(331,0,l)
);
},
{
closed = 1;
nodes = (
(332,565,ls),
(332,474,o),
(405,400,o),
(495,400,cs),
(721,400,ls),
(811,400,o),
(884,474,o),
(884,565,cs),
(884,849,ls),
(884,940,o),
(811,1014,o),
(721,1014,cs),
(495,1014,ls),
(405,1014,o),
(332,940,o),
(332,849,cs)
);
}
);
width = 1195;
}
);
leftKerningGroup = at;
unicode = 222;
},
{
glyphname = germandbls;
layers = (
{
background = {
};
hints = (
{
horizontal = 1;
place = (0,210);
type = Stem;
},
{
horizontal = 1;
place = (639,210);
type = Stem;
},
{
horizontal = 1;
place = (1212,210);
type = Stem;
},
{
place = (140,210);
type = Stem;
},
{
place = (844,210);
type = Stem;
},
{
place = (873,210);
type = Stem;
}
);
layerId = "3916868A-960B-40DE-A2A5-83D1860F42F7";
shapes = (
{
closed = 1;
nodes = (
(140,0,l),
(140,1087,ls),
(140,1272,o),
(299,1422,o),
(495,1422,cs),
(700,1422,ls),
(895,1422,o),
(1054,1272,o),
(1054,1087,cs),
(1054,994,ls),
(1054,888,o),
(1021,813,o),
(949,758,c),
(1036,710,o),
(1083,617,o),
(1083,494,cs),
(1083,335,ls),
(1083,150,o),
(924,0,o),
(728,0,cs),
(458,0,l),
(458,210,l),
(717,210,ls),
(804,210,o),
(873,266,o),
(873,335,cs),
(873,494,ls),
(873,580,o),
(806,639,o),
(708,639,cs),
(458,639,l),
(458,849,l),
(700,849,ls),
(780,849,o),
(844,914,o),
(844,994,cs),
(844,1087,ls),
(844,1156,o),
(780,1212,o),
(700,1212,cs),
(495,1212,ls),
(415,1212,o),
(350,1156,o),
(350,1087,cs),
(350,0,l)
);
}
);
width = 1203;
}
);
rightKerningGroup = B;
unicode = 223;
},
{
glyphname = ae;
layers = (
{
anchors = (
{
name = top;
position = "{956, 1158}";
}
);
background = {
};
hints = (
{
horizontal = 1;
place = (0,211);
type = Stem;
},
{
horizontal = 1;
place = (408,210);
type = Stem;
},
{
horizontal = 1;
place = (825,211);
type = Stem;
},
{
place = (110,211);
type = Stem;
},
{
place = (851,211);
type = Stem;
},
{
place = (1593,210);
type = Stem;
}
);
layerId = "3916868A-960B-40DE-A2A5-83D1860F42F7";
shapes = (
{
closed = 1;
nodes = (
(110,664,ls),
(110,869,o),
(278,1036,o),
(484,1036,cs),
(1504,1036,ls),
(1669,1036,o),
(1803,901,o),
(1803,735,cs),
(1803,706,ls),
(1803,542,o),
(1669,408,o),
(1504,408,cs),
(1182,408,l),
(1182,618,l),
(1506,618,ls),
(1554,618,o),
(1593,658,o),
(1593,707,cs),
(1593,735,ls),
(1593,785,o),
(1554,825,o),
(1506,825,cs),
(1062,825,l),
(1062,293,ls),
(1062,248,o),
(1097,211,o),
(1141,211,cs),
(1730,211,l),
(1730,0,l),
(1141,0,ls),
(1116,0,o),
(1091,4,o),
(1062,11,c),
(1062,0,l),
(851,0,l),
(851,825,l),
(484,825,ls),
(394,825,o),
(321,752,o),
(321,662,cs),
(321,376,ls),
(321,285,o),
(394,211,o),
(484,211,cs),
(731,211,l),
(731,0,l),
(484,0,ls),
(278,0,o),
(110,168,o),
(110,374,cs)
);
}
);
width = 1913;
}
);
leftKerningGroup = at;
unicode = 230;
},
{
glyphname = eth;
layers = (
{
background = {
};
hints = (
{
horizontal = 1;
place = (0,211);
type = Stem;
},
{
horizontal = 1;
place = (825,211);
type = Stem;
},
{
horizontal = 1;
place = (1217,206);
type = Stem;
},
{
place = (110,211);
type = Stem;
},
{
place = (851,211);
type = Stem;
}
);
layerId = "3916868A-960B-40DE-A2A5-83D1860F42F7";
shapes = (
{
closed = 1;
nodes = (
(110,662,ls),
(110,868,o),
(278,1036,o),
(484,1036,cs),
(731,1036,l),
(731,825,l),
(484,825,ls),
(394,825,o),
(321,751,o),
(321,660,cs),
(321,374,ls),
(321,284,o),
(394,211,o),
(484,211,cs),
(851,211,l),
(851,1050,ls),
(851,1142,o),
(779,1217,o),
(690,1217,cs),
(321,1217,l),
(321,1423,l),
(688,1423,ls),
(797,1423,o),
(899,1376,o),
(971,1293,c),
(1182,1415,l),
(1256,1288,l),
(1044,1165,l),
(1056,1131,o),
(1062,1091,o),
(1062,1049,cs),
(1062,211,ls),
(1062,95,o),
(967,0,o),
(851,0,cs),
(484,0,ls),
(278,0,o),
(110,167,o),
(110,372,cs)
);
}
);
width = 1266;
}
);
leftKerningGroup = at;
unicode = 240;
},
{
glyphname = divide;
layers = (
{
background = {
};
hints = (
{
horizontal = 1;
place = (144,220);
type = Stem;
},
{
horizontal = 1;
place = (464,178);
type = Stem;
},
{
horizontal = 1;
place = (742,222);
type = Stem;
},
{
place = (508,221);
type = Stem;
}
);
layerId = "3916868A-960B-40DE-A2A5-83D1860F42F7";
shapes = (
{
closed = 1;
nodes = (
(120,464,l),
(120,642,l),
(1117,642,l),
(1117,464,l)
);
},
{
closed = 1;
nodes = (
(508,315,o),
(557,364,o),
(618,364,cs),
(680,364,o),
(729,315,o),
(729,254,cs),
(729,193,o),
(680,144,o),
(618,144,cs),
(557,144,o),
(508,193,o),
(508,254,cs)
);
},
{
closed = 1;
nodes = (
(508,914,o),
(557,964,o),
(618,964,cs),
(680,964,o),
(729,915,o),
(729,853,cs),
(729,791,o),
(680,742,o),
(618,742,cs),
(557,742,o),
(508,792,o),
(508,853,cs)
);
}
);
width = 1237;
}
);
leftKerningGroup = at;
unicode = 247;
},
{
glyphname = oslash;
layers = (
{
anchors = (
{
name = top;
position = "{597, 1158}";
}
);
background = {
};
hints = (
{
horizontal = 1;
place = (0,211);
type = Stem;
},
{
horizontal = 1;
place = (825,211);
type = Stem;
},
{
place = (110,211);
type = Stem;
},
{
place = (873,211);
type = Stem;
}
);
layerId = "3916868A-960B-40DE-A2A5-83D1860F42F7";
shapes = (
{
closed = 1;
nodes = (
(110,662,ls),
(110,868,o),
(278,1036,o),
(484,1036,cs),
(710,1036,ls),
(752,1036,o),
(792,1030,o),
(826,1018,c),
(917,1148,l),
(1072,1039,l),
(985,915,l),
(1049,845,o),
(1084,755,o),
(1084,662,cs),
(1084,374,ls),
(1084,168,o),
(916,0,o),
(710,0,cs),
(484,0,ls),
(440,0,o),
(398,7,o),
(359,21,c),
(266,-111,l),
(111,-3,l),
(203,128,l),
(143,197,o),
(110,284,o),
(110,374,cs)
);
},
{
closed = 1;
nodes = (
(321,376,ls),
(321,354,o),
(325,333,o),
(333,314,c),
(691,825,l),
(484,825,ls),
(394,825,o),
(321,751,o),
(321,660,cs)
);
},
{
closed = 1;
nodes = (
(492,211,l),
(710,211,ls),
(800,211,o),
(873,285,o),
(873,376,cs),
(873,660,ls),
(873,686,o),
(868,710,o),
(857,732,c)
);
}
);
width = 1194;
}
);
leftKerningGroup = c2;
unicode = 248;
},
{
glyphname = thorn;
layers = (
{
background = {
};
hints = (
{
horizontal = 1;
place = (-390,21);
type = Stem;
},
{
horizontal = 1;
place = (0,211);
type = Stem;
},
{
horizontal = 1;
place = (825,211);
type = Stem;
},
{
horizontal = 1;
place = (1402,20);
type = Stem;
},
{
place = (140,211);
type = Stem;
},
{
place = (903,211);
type = Stem;
}
);
layerId = "3916868A-960B-40DE-A2A5-83D1860F42F7";
shapes = (
{
closed = 1;
nodes = (
(140,-390,l),
(140,1422,l),
(351,1422,l),
(351,999,l),
(400,1024,o),
(455,1036,o),
(514,1036,cs),
(740,1036,ls),
(946,1036,o),
(1114,868,o),
(1114,662,cs),
(1114,374,ls),
(1114,168,o),
(946,0,o),
(740,0,cs),
(514,0,ls),
(455,0,o),
(400,12,o),
(351,37,c),
(351,-390,l)
);
},
{
closed = 1;
nodes = (
(351,376,ls),
(351,285,o),
(424,211,o),
(514,211,cs),
(740,211,ls),
(830,211,o),
(903,285,o),
(903,376,cs),
(903,660,ls),
(903,751,o),
(830,825,o),
(740,825,cs),
(514,825,ls),
(424,825,o),
(351,751,o),
(351,660,cs)
);
}
);
width = 1224;
}
);
leftKerningGroup = at;
unicode = 254;
},
{
glyphname = Dcroat;
layers = (
{
background = {
};
hints = (
{
horizontal = 1;
place = (0,211);
type = Stem;
},
{
horizontal = 1;
place = (650,170);
type = Stem;
},
{
horizontal = 1;
place = (1212,210);
type = Stem;
},
{
place = (187,210);
type = Stem;
},
{
place = (1135,210);
type = Stem;
}
);
layerId = "3916868A-960B-40DE-A2A5-83D1860F42F7";
shapes = (
{
closed = 1;
nodes = (
(90,650,l),
(90,820,l),
(187,820,l),
(187,1422,l),
(942,1422,ls),
(1164,1422,o),
(1345,1243,o),
(1345,1022,cs),
(1345,396,ls),
(1345,177,o),
(1164,0,o),
(942,0,cs),
(187,0,l),
(187,650,l)
);
},
{
closed = 1;
nodes = (
(397,211,l),
(942,211,ls),
(1048,211,o),
(1135,295,o),
(1135,399,cs),
(1135,1022,ls),
(1135,1127,o),
(1048,1212,o),
(942,1212,cs),
(397,1212,l),
(397,820,l),
(867,820,l),
(867,650,l),
(397,650,l)
);
}
);
width = 1465;
}
);
leftKerningGroup = at;
unicode = 272;
},
{
glyphname = dcroat;
layers = (
{
background = {
};
hints = (
{
horizontal = 1;
place = (0,211);
type = Stem;
},
{
horizontal = 1;
place = (825,211);
type = Stem;
},
{
horizontal = 1;
place = (1156,147);
type = Stem;
},
{
horizontal = 1;
place = (1402,20);
type = Stem;
},
{
place = (110,211);
type = Stem;
},
{
place = (851,211);
type = Stem;
}
);
layerId = "3916868A-960B-40DE-A2A5-83D1860F42F7";
shapes = (
{
closed = 1;
nodes = (
(110,662,ls),
(110,868,o),
(278,1036,o),
(484,1036,cs),
(731,1036,l),
(731,825,l),
(484,825,ls),
(394,825,o),
(321,751,o),
(321,660,cs),
(321,374,ls),
(321,284,o),
(394,211,o),
(484,211,cs),
(851,211,l),
(851,1156,l),
(691,1156,l),
(691,1303,l),
(851,1303,l),
(851,1422,l),
(1062,1422,l),
(1062,1303,l),
(1222,1303,l),
(1222,1156,l),
(1062,1156,l),
(1062,211,ls),
(1062,95,o),
(967,0,o),
(851,0,cs),
(484,0,ls),
(278,0,o),
(110,167,o),
(110,372,cs)
);
}
);
width = 1262;
}
);
leftKerningGroup = at;
unicode = 273;
},
{
glyphname = Hbar;
layers = (
{
background = {
};
hints = (
{
horizontal = 1;
place = (0,21);
type = Stem;
},
{
horizontal = 1;
place = (635,210);
type = Stem;
},
{
horizontal = 1;
place = (1156,147);
type = Stem;
},
{
horizontal = 1;
place = (1402,20);
type = Stem;
},
{
place = (220,211);
type = Stem;
},
{
place = (1168,210);
type = Stem;
}
);
layerId = "3916868A-960B-40DE-A2A5-83D1860F42F7";
shapes = (
{
closed = 1;
nodes = (
(60,1156,l),
(60,1303,l),
(220,1303,l),
(220,1422,l),
(431,1422,l),
(431,1303,l),
(1168,1303,l),
(1168,1422,l),
(1378,1422,l),
(1378,1303,l),
(1538,1303,l),
(1538,1156,l),
(1378,1156,l),
(1378,0,l),
(1168,0,l),
(1168,635,l),
(431,635,l),
(431,0,l),
(220,0,l),
(220,1156,l)
);
},
{
closed = 1;
nodes = (
(431,845,l),
(1168,845,l),
(1168,1156,l),
(431,1156,l)
);
}
);
width = 1598;
}
);
leftKerningGroup = at;
unicode = 294;
},
{
glyphname = hbar;
layers = (
{
background = {
};
hints = (
{
horizontal = 1;
place = (0,21);
type = Stem;
},
{
horizontal = 1;
place = (825,211);
type = Stem;
},
{
horizontal = 1;
place = (1156,147);
type = Stem;
},
{
horizontal = 1;
place = (1402,20);
type = Stem;
},
{
place = (220,211);
type = Stem;
},
{
place = (936,211);
type = Stem;
}
);
layerId = "3916868A-960B-40DE-A2A5-83D1860F42F7";
shapes = (
{
closed = 1;
nodes = (
(60,1156,l),
(60,1303,l),
(220,1303,l),
(220,1422,l),
(431,1422,l),
(431,1303,l),
(591,1303,l),
(591,1156,l),
(431,1156,l),
(431,1036,l),
(757,1036,ls),
(972,1036,o),
(1147,869,o),
(1147,663,cs),
(1147,0,l),
(936,0,l),
(936,660,ls),
(936,748,o),
(853,825,o),
(757,825,cs),
(431,825,l),
(431,0,l),
(220,0,l),
(220,1156,l)
);
}
);
width = 1287;
}
);
leftKerningGroup = at;
unicode = 295;
},
{
glyphname = Idotaccent;
layers = (
{
background = {
};
hints = (
{
horizontal = 1;
place = (0,21);
type = Stem;
},
{
horizontal = 1;
place = (1402,20);
type = Stem;
},
{
horizontal = 1;
place = (1528,221);
type = Stem;
},
{
place = (120,211);
type = Stem;
}
);
layerId = "3916868A-960B-40DE-A2A5-83D1860F42F7";
shapes = (
{
closed = 1;
nodes = (
(120,0,l),
(120,1422,l),
(331,1422,l),
(331,0,l)
);
},
{
closed = 1;
nodes = (
(121,1699,o),
(171,1749,o),
(232,1749,cs),
(293,1749,o),
(342,1699,o),
(342,1638,cs),
(342,1577,o),
(293,1528,o),
(232,1528,cs),
(171,1528,o),
(121,1577,o),
(121,1638,cs)
);
}
);
width = 451;
}
);
leftKerningGroup = at;
unicode = 304;
},
{
glyphname = dotlessi;
layers = (
{
anchors = (
{
name = top;
position = "{232, 1158}";
}
);
background = {
};
hints = (
{
horizontal = 1;
place = (0,21);
type = Stem;
},
{
horizontal = 1;
place = (1016,20);
type = Stem;
},
{
place = (127,211);
type = Stem;
}
);
layerId = "3916868A-960B-40DE-A2A5-83D1860F42F7";
shapes = (
{
closed = 1;
nodes = (
(127,0,l),
(127,1036,l),
(338,1036,l),
(338,0,l)
);
}
);
width = 465;
}
);
leftKerningGroup = at;
unicode = 305;
},
{
glyphname = kgreenlandic;
layers = (
{
background = {
};
hints = (
{
horizontal = 1;
place = (0,21);
type = Stem;
},
{
horizontal = 1;
place = (1016,20);
type = Stem;
},
{
place = (120,211);
type = Stem;
}
);
layerId = "3916868A-960B-40DE-A2A5-83D1860F42F7";
shapes = (
{
closed = 1;
nodes = (
(120,0,l),
(120,1038,l),
(331,1038,l),
(331,639,l),
(402,639,l),
(777,1036,l),
(1051,1036,l),
(578,534,l),
(1093,0,l),
(798,0,l),
(383,428,l),
(331,428,l),
(331,0,l)
);
}
);
width = 1123;
}
);
leftKerningGroup = at;
unicode = 312;
},
{
glyphname = Lslash;
layers = (
{
background = {
};
hints = (
{
horizontal = 1;
place = (0,210);
type = Stem;
},
{
horizontal = 1;
place = (1402,20);
type = Stem;
},
{
place = (251,210);
type = Stem;
}
);
layerId = "3916868A-960B-40DE-A2A5-83D1860F42F7";
shapes = (
{
closed = 1;
nodes = (
(60,626,l),
(251,736,l),
(251,1422,l),
(461,1422,l),
(461,857,l),
(577,924,l),
(651,797,l),
(461,687,l),
(461,398,ls),
(461,294,o),
(545,210,o),
(648,210,cs),
(1353,210,l),
(1353,0,l),
(648,0,ls),
(429,0,o),
(251,178,o),
(251,398,cs),
(251,566,l),
(134,499,l)
);
}
);
width = 1413;
}
);
leftKerningGroup = at;
rightKerningGroup = L;
unicode = 321;
},
{
glyphname = lslash;
layers = (
{
background = {
};
hints = (
{
horizontal = 1;
place = (0,21);
type = Stem;
},
{
horizontal = 1;
place = (1402,20);
type = Stem;
},
{
place = (230,211);
type = Stem;
}
);
layerId = "3916868A-960B-40DE-A2A5-83D1860F42F7";
shapes = (
{
closed = 1;
nodes = (
(40,626,l),
(230,735,l),
(230,1422,l),
(441,1422,l),
(441,857,l),
(557,924,l),
(631,797,l),
(441,687,l),
(441,0,l),
(230,0,l),
(230,565,l),
(114,499,l)
);
}
);
width = 671;
}
);
leftKerningGroup = at;
unicode = 322;
},
{
glyphname = napostrophe;
layers = (
{
background = {
};
hints = (
{
horizontal = 1;
place = (0,21);
type = Stem;
},
{
horizontal = 1;
place = (827,209);
type = Stem;
},
{
place = (270,211);
type = Stem;
},
{
place = (1011,211);
type = Stem;
}
);
layerId = "3916868A-960B-40DE-A2A5-83D1860F42F7";
shapes = (
{
closed = 1;
nodes = (
(270,0,l),
(270,826,ls),
(270,942,o),
(365,1036,o),
(483,1036,cs),
(848,1036,ls),
(1054,1036,o),
(1222,868,o),
(1222,662,cs),
(1222,0,l),
(1011,0,l),
(1011,659,ls),
(1011,752,o),
(938,827,o),
(848,827,cs),
(481,827,l),
(481,0,l)
);
},
{
closed = 1;
nodes = (
(40,1211,l),
(169,1580,l),
(352,1492,l),
(154,1158,l)
);
}
);
width = 1342;
}
);
leftKerningGroup = at;
unicode = 329;
},
{
glyphname = Eng;
layers = (
{
background = {
};
hints = (
{
horizontal = 1;
place = (-391,211);
type = Stem;
},
{
horizontal = 1;
place = (0,21);
type = Stem;
},
{
horizontal = 1;
place = (1402,20);
type = Stem;
},
{
place = (140,211);
type = Stem;
},
{
place = (1033,211);
type = Stem;
}
);
layerId = "3916868A-960B-40DE-A2A5-83D1860F42F7";
shapes = (
{
closed = 1;
nodes = (
(140,0,l),
(140,1422,l),
(414,1422,l),
(1033,305,l),
(1033,1422,l),
(1244,1422,l),
(1244,-60,ls),
(1244,-313,o),
(1157,-391,o),
(874,-391,c),
(874,-180,l),
(1021,-180,o),
(1033,-171,o),
(1033,-60,cs),
(1033,0,l),
(970,0,l),
(351,1102,l),
(351,0,l)
);
}
);
width = 1384;
}
);
leftKerningGroup = at;
unicode = 330;
},
{
glyphname = eng;
layers = (
{
background = {
};
hints = (
{
horizontal = 1;
place = (-391,211);
type = Stem;
},
{
horizontal = 1;
place = (0,21);
type = Stem;
},
{
horizontal = 1;
place = (827,209);
type = Stem;
},
{
place = (120,211);
type = Stem;
},
{
place = (861,211);
type = Stem;
}
);
layerId = "3916868A-960B-40DE-A2A5-83D1860F42F7";
shapes = (
{
closed = 1;
nodes = (
(120,0,l),
(120,826,ls),
(120,942,o),
(215,1036,o),
(333,1036,cs),
(698,1036,ls),
(904,1036,o),
(1072,868,o),
(1072,662,cs),
(1072,-60,ls),
(1072,-313,o),
(985,-391,o),
(702,-391,c),
(702,-180,l),
(849,-180,o),
(861,-171,o),
(861,-60,cs),
(861,659,ls),
(861,752,o),
(788,827,o),
(698,827,cs),
(331,827,l),
(331,0,l)
);
}
);
width = 1192;
}
);
leftKerningGroup = at;
unicode = 331;
},
{
glyphname = OE;
layers = (
{
anchors = (
{
name = top;
position = "{1166, 1544}";
}
);
background = {
};
hints = (
{
horizontal = 1;
place = (0,211);
type = Stem;
},
{
horizontal = 1;
place = (635,210);
type = Stem;
},
{
horizontal = 1;
place = (1212,210);
type = Stem;
},
{
place = (140,211);
type = Stem;
},
{
place = (1110,211);
type = Stem;
}
);
layerId = "3916868A-960B-40DE-A2A5-83D1860F42F7";
shapes = (
{
closed = 1;
nodes = (
(140,1022,ls),
(140,1243,o),
(330,1422,o),
(564,1422,cs),
(897,1422,ls),
(973,1422,o),
(1044,1404,o),
(1110,1368,c),
(1110,1422,l),
(2213,1422,l),
(2213,1212,l),
(1321,1212,l),
(1321,211,l),
(2213,211,l),
(2213,0,l),
(1110,0,l),
(1110,54,l),
(1044,18,o),
(973,0,o),
(897,0,cs),
(564,0,ls),
(330,0,o),
(140,179,o),
(140,400,cs)
);
},
{
closed = 1;
nodes = (
(351,399,ls),
(351,295,o),
(446,210,o),
(564,210,cs),
(897,210,ls),
(1015,210,o),
(1110,295,o),
(1110,399,cs),
(1110,1023,ls),
(1110,1127,o),
(1015,1212,o),
(897,1212,cs),
(564,1212,ls),
(446,1212,o),
(351,1127,o),
(351,1023,cs)
);
},
{
closed = 1;
nodes = (
(1441,635,l),
(1441,845,l),
(2213,845,l),
(2213,635,l)
);
}
);
width = 2333;
}
);
leftKerningGroup = at;
unicode = 338;
},
{
glyphname = oe;
layers = (
{
anchors = (
{
name = top;
position = "{968, 1158}";
}
);
background = {
};
hints = (
{
horizontal = 1;
place = (0,211);
type = Stem;
},
{
horizontal = 1;
place = (408,210);
type = Stem;
},
{
horizontal = 1;
place = (825,211);
type = Stem;
},
{
place = (110,211);
type = Stem;
},
{
place = (875,211);
type = Stem;
},
{
place = (1617,210);
type = Stem;
}
);
layerId = "3916868A-960B-40DE-A2A5-83D1860F42F7";
shapes = (
{
closed = 1;
nodes = (
(110,664,ls),
(110,869,o),
(291,1036,o),
(514,1036,cs),
(681,1036,ls),
(770,1036,o),
(855,1009,o),
(926,959,c),
(968,1008,o),
(1030,1036,o),
(1096,1036,cs),
(1528,1036,ls),
(1693,1036,o),
(1827,901,o),
(1827,735,cs),
(1827,706,ls),
(1827,542,o),
(1693,408,o),
(1528,408,cs),
(1206,408,l),
(1206,618,l),
(1530,618,ls),
(1578,618,o),
(1617,658,o),
(1617,707,cs),
(1617,735,ls),
(1617,785,o),
(1578,825,o),
(1530,825,cs),
(1086,825,l),
(1086,293,ls),
(1086,248,o),
(1121,211,o),
(1165,211,cs),
(1754,211,l),
(1754,0,l),
(1165,0,ls),
(1083,0,o),
(1005,35,o),
(950,96,c),
(876,34,o),
(781,0,o),
(681,0,cs),
(514,0,ls),
(291,0,o),
(110,168,o),
(110,374,cs)
);
},
{
closed = 1;
nodes = (
(321,373,ls),
(321,284,o),
(408,211,o),
(516,211,cs),
(681,211,ls),
(788,211,o),
(875,283,o),
(875,372,cs),
(875,662,ls),
(875,753,o),
(787,826,o),
(679,826,cs),
(514,826,ls),
(407,826,o),
(321,753,o),
(321,663,cs)
);
}
);
width = 1937;
}
);
leftKerningGroup = at;
rightKerningGroup = e;
unicode = 339;
},
{
glyphname = Tbar;
layers = (
{
background = {
};
hints = (
{
horizontal = 1;
place = (0,21);
type = Stem;
},
{
horizontal = 1;
place = (634,212);
type = Stem;
},
{
horizontal = 1;
place = (1212,210);
type = Stem;
},
{
place = (518,213);
type = Stem;
}
);
layerId = "3916868A-960B-40DE-A2A5-83D1860F42F7";
shapes = (
{
closed = 1;
nodes = (
(40,1212,l),
(40,1422,l),
(1198,1422,l),
(1198,1212,l),
(731,1212,l),
(731,846,l),
(956,846,l),
(956,634,l),
(731,634,l),
(731,0,l),
(518,0,l),
(518,634,l),
(291,634,l),
(291,846,l),
(518,846,l),
(518,1212,l)
);
}
);
width = 1238;
}
);
leftKerningGroup = at;
rightKerningGroup = T;
unicode = 358;
},
{
glyphname = tbar;
layers = (
{
background = {
};
hints = (
{
horizontal = 1;
place = (0,211);
type = Stem;
},
{
horizontal = 1;
place = (484,212);
type = Stem;
},
{
horizontal = 1;
place = (825,211);
type = Stem;
},
{
horizontal = 1;
place = (1402,20);
type = Stem;
},
{
place = (235,211);
type = Stem;
}
);
layerId = "3916868A-960B-40DE-A2A5-83D1860F42F7";
shapes = (
{
closed = 1;
nodes = (
(100,825,l),
(100,1036,l),
(235,1036,l),
(235,1422,l),
(446,1422,l),
(446,1036,l),
(765,1036,l),
(765,825,l),
(446,825,l),
(446,696,l),
(766,696,l),
(766,484,l),
(446,484,l),
(446,294,ls),
(446,248,o),
(486,211,o),
(536,211,cs),
(765,211,l),
(765,0,l),
(533,0,ls),
(369,0,o),
(235,131,o),
(235,293,cs),
(235,484,l),
(101,484,l),
(101,696,l),
(235,696,l),
(235,825,l)
);
}
);
width = 866;
}
);
leftKerningGroup = at;
unicode = 359;
},
{
glyphname = florin;
layers = (
{
background = {
};
hints = (
{
horizontal = 1;
place = (-390,210);
type = Stem;
},
{
horizontal = 1;
place = (827,209);
type = Stem;
},
{
horizontal = 1;
place = (1211,211);
type = Stem;
},
{
place = (188,211);
type = Stem;
}
);
layerId = "3916868A-960B-40DE-A2A5-83D1860F42F7";
shapes = (
{
closed = 1;
nodes = (
(-130,-180,l),
(102,-180,ls),
(146,-180,o),
(188,-137,o),
(188,-93,cs),
(188,1124,ls),
(188,1289,o),
(321,1422,o),
(486,1422,cs),
(717,1422,l),
(717,1211,l),
(486,1211,ls),
(442,1211,o),
(399,1168,o),
(399,1124,cs),
(399,1036,l),
(602,1036,l),
(602,827,l),
(399,827,l),
(399,-93,ls),
(399,-257,o),
(266,-390,o),
(102,-390,cs),
(-130,-390,l)
);
}
);
width = 787;
}
);
leftKerningGroup = at;
rightKerningGroup = f;
unicode = 402;
},
{
glyphname = uni0237;
layers = (
{
anchors = (
{
name = top;
position = "{304, 1158}";
}
);
background = {
};
hints = (
{
horizontal = 1;
place = (-391,211);
type = Stem;
},
{
horizontal = 1;
place = (1016,20);
type = Stem;
},
{
place = (199,211);
type = Stem;
}
);
layerId = "3916868A-960B-40DE-A2A5-83D1860F42F7";
shapes = (
{
closed = 1;
nodes = (
(40,-180,l),
(187.038,-180,o),
(199,-170.972,o),
(199,-60,cs),
(199,1036,l),
(410,1036,l),
(410,-60,ls),
(410,-313.085,o),
(322.905,-391,o),
(40,-391,c)
);
}
);
width = 530;
}
);
leftKerningGroup = j;
unicode = 567;
},
{
glyphname = circumflex;
layers = (
{
anchors = (
{
name = top;
position = "{411, 1114}";
}
);
background = {
};
hints = (
{
horizontal = 1;
place = (1113,309);
type = Stem;
},
{
place = (100,623);
type = Stem;
}
);
layerId = "3916868A-960B-40DE-A2A5-83D1860F42F7";
shapes = (
{
closed = 1;
nodes = (
(100,1113,l),
(334,1422,l),
(489,1422,l),
(723,1113,l),
(582,1113,l),
(411,1285,l),
(241,1113,l)
);
}
);
width = 823;
}
);
leftKerningGroup = at;
unicode = 710;
},
{
glyphname = caron;
layers = (
{
anchors = (
{
name = top;
position = "{412, 1113}";
}
);
background = {
};
hints = (
{
horizontal = 1;
place = (1113,309);
type = Stem;
},
{
place = (100,623);
type = Stem;
}
);
layerId = "3916868A-960B-40DE-A2A5-83D1860F42F7";
shapes = (
{
closed = 1;
nodes = (
(100,1422,l),
(241,1422,l),
(411,1250,l),
(582,1422,l),
(723,1422,l),
(489,1113,l),
(334,1113,l)
);
}
);
width = 823;
}
);
leftKerningGroup = at;
unicode = 711;
},
{
glyphname = breve;
layers = (
{
anchors = (
{
name = top;
position = "{398, 1122}";
}
);
background = {
};
hints = (
{
horizontal = 1;
place = (1122,134);
type = Stem;
},
{
place = (100,134);
type = Stem;
},
{
place = (562,134);
type = Stem;
}
);
layerId = "3916868A-960B-40DE-A2A5-83D1860F42F7";
shapes = (
{
closed = 1;
nodes = (
(234,1420,l),
(234,1330,o),
(308,1256,o),
(398,1256,cs),
(488,1256,o),
(562,1330,o),
(562,1420,c),
(696,1420,l),
(696,1256,o),
(562,1122,o),
(398,1122,cs),
(234,1122,o),
(100,1256,o),
(100,1420,c)
);
}
);
width = 796;
}
);
leftKerningGroup = at;
unicode = 728;
},
{
glyphname = dotaccent;
layers = (
{
anchors = (
{
name = top;
position = "{206, 1212}";
}
);
background = {
};
hints = (
{
horizontal = 1;
place = (1212,221);
type = Stem;
},
{
place = (95,221);
type = Stem;
}
);
layerId = "3916868A-960B-40DE-A2A5-83D1860F42F7";
shapes = (
{
closed = 1;
nodes = (
(95,1384,o),
(144,1433,o),
(206,1433,cs),
(267,1433,o),
(316,1384,o),
(316,1322,cs),
(316,1261,o),
(267,1212,o),
(206,1212,cs),
(145,1212,o),
(95,1261,o),
(95,1322,cs)
);
}
);
width = 411;
}
);
leftKerningGroup = at;
unicode = 729;
},
{
glyphname = ring;
layers = (
{
anchors = (
{
name = top;
position = "{290, 1041}";
}
);
background = {
};
hints = (
{
horizontal = 1;
place = (1041,118);
type = Stem;
},
{
horizontal = 1;
place = (1304,118);
type = Stem;
},
{
place = (100,118);
type = Stem;
},
{
place = (362,118);
type = Stem;
}
);
layerId = "3916868A-960B-40DE-A2A5-83D1860F42F7";
shapes = (
{
closed = 1;
nodes = (
(100,1253,ls),
(100,1347,o),
(176,1422,o),
(270,1422,cs),
(310,1422,ls),
(404,1422,o),
(480,1347,o),
(480,1253,cs),
(480,1210,ls),
(480,1116,o),
(404,1041,o),
(310,1041,cs),
(270,1041,ls),
(176,1041,o),
(100,1116,o),
(100,1210,cs)
);
},
{
closed = 1;
nodes = (
(218,1210,ls),
(218,1182,o),
(241,1159,o),
(270,1159,cs),
(310,1159,ls),
(339,1159,o),
(362,1182,o),
(362,1210,cs),
(362,1253,ls),
(362,1281,o),
(339,1304,o),
(310,1304,cs),
(270,1304,ls),
(241,1304,o),
(218,1281,o),
(218,1253,cs)
);
}
);
width = 580;
}
);
leftKerningGroup = at;
unicode = 730;
},
{
glyphname = ogonek;
layers = (
{
anchors = (
{
name = botton;
position = "{242, 0}";
}
);
background = {
};
hints = (
{
horizontal = 1;
place = (-313,150);
type = Stem;
},
{
place = (128,151);
type = Stem;
}
);
layerId = "3916868A-960B-40DE-A2A5-83D1860F42F7";
shapes = (
{
closed = 1;
nodes = (
(128,-136,o),
(142,-75,o),
(170,0,c),
(318,0,l),
(286,-89,o),
(279,-112,o),
(279,-132,cs),
(279,-154,o),
(290,-163,o),
(320,-163,cs),
(337,-163,o),
(348,-162,o),
(430,-149,c),
(430,-297,l),
(342,-310,o),
(313,-313,o),
(280,-313,cs),
(176,-313,o),
(128,-272,o),
(128,-183,cs)
);
}
);
width = 490;
}
);
leftKerningGroup = at;
unicode = 731;
},
{
glyphname = tilde;
layers = (
{
anchors = (
{
name = top;
position = "{450, 1198}";
}
);
background = {
};
hints = (
{
horizontal = 1;
place = (1198,154);
type = Stem;
},
{
horizontal = 1;
place = (1279,148);
type = Stem;
},
{
place = (120,155);
type = Stem;
},
{
place = (621,157);
type = Stem;
}
);
layerId = "3916868A-960B-40DE-A2A5-83D1860F42F7";
shapes = (
{
closed = 1;
nodes = (
(120,1206,l),
(121,1334,o),
(202,1427,o),
(314,1427,cs),
(345,1427,o),
(377,1418,o),
(445,1390,cs),
(518,1360,o),
(545,1352,o),
(576,1352,cs),
(607,1352,o),
(621,1374,o),
(621,1422,c),
(778,1422,l),
(778,1298,o),
(693,1198,o),
(586,1198,cs),
(555,1198,o),
(523,1208,o),
(453,1238,cs),
(378,1270,o),
(351,1279,o),
(320,1279,cs),
(289,1279,o),
(275,1256,o),
(275,1206,c)
);
}
);
width = 898;
}
);
leftKerningGroup = at;
unicode = 732;
},
{
glyphname = hungarumlaut;
layers = (
{
anchors = (
{
name = top;
position = "{321, 1151}";
}
);
background = {
};
hints = (
{
horizontal = 1;
place = (1151,271);
type = Stem;
},
{
place = (100,614);
type = Stem;
}
);
layerId = "3916868A-960B-40DE-A2A5-83D1860F42F7";
shapes = (
{
closed = 1;
nodes = (
(100,1151,l),
(240,1422,l),
(417,1422,l),
(246,1151,l)
);
},
{
closed = 1;
nodes = (
(397,1151,l),
(537,1422,l),
(714,1422,l),
(543,1151,l)
);
}
);
width = 814;
}
);
leftKerningGroup = at;
unicode = 733;
},
{
glyphname = uni0312;
layers = (
{
background = {
};
hints = (
{
horizontal = 1;
place = (1170,422);
type = Stem;
},
{
place = (100,312);
type = Stem;
}
);
layerId = "3916868A-960B-40DE-A2A5-83D1860F42F7";
shapes = (
{
closed = 1;
nodes = (
(100,1258,l),
(298,1592,l),
(412,1539,l),
(283,1170,l)
);
}
);
width = 512;
}
);
leftKerningGroup = at;
unicode = 786;
},
{
glyphname = uni0315;
layers = (
{
background = {
};
hints = (
{
horizontal = 1;
place = (1170,422);
type = Stem;
},
{
place = (100,312);
type = Stem;
}
);
layerId = "3916868A-960B-40DE-A2A5-83D1860F42F7";
shapes = (
{
closed = 1;
nodes = (
(100,1223,l),
(229,1592,l),
(412,1504,l),
(214,1170,l)
);
}
);
width = 512;
}
);
leftKerningGroup = at;
unicode = 789;
},
{
glyphname = uni0326;
layers = (
{
anchors = (
{
name = botton;
position = "{281, 212}";
}
);
background = {
};
hints = (
{
horizontal = 1;
place = (-202,414);
type = Stem;
},
{
place = (100,287);
type = Stem;
}
);
layerId = "3916868A-960B-40DE-A2A5-83D1860F42F7";
shapes = (
{
closed = 1;
nodes = (
(100,-202,l),
(175,212,l),
(387,212,l),
(258,-202,l)
);
}
);
width = 487;
}
);
leftKerningGroup = at;
unicode = 806;
},
{
glyphname = endash;
layers = (
{
background = {
};
hints = (
{
horizontal = 1;
place = (466,176);
type = Stem;
}
);
layerId = "3916868A-960B-40DE-A2A5-83D1860F42F7";
shapes = (
{
closed = 1;
nodes = (
(110,466,l),
(110,642,l),
(914,642,l),
(914,466,l)
);
}
);
width = 1024;
}
);
leftKerningGroup = at;
unicode = 8211;
},
{
glyphname = emdash;
layers = (
{
background = {
};
hints = (
{
horizontal = 1;
place = (466,176);
type = Stem;
}
);
layerId = "3916868A-960B-40DE-A2A5-83D1860F42F7";
shapes = (
{
closed = 1;
nodes = (
(110,466,l),
(110,642,l),
(1938,642,l),
(1938,466,l)
);
}
);
width = 2048;
}
);
leftKerningGroup = at;
unicode = 8212;
},
{
glyphname = quoteleft;
layers = (
{
background = {
};
hints = (
{
horizontal = 1;
place = (1170,422);
type = Stem;
},
{
place = (100,312);
type = Stem;
}
);
layerId = "3916868A-960B-40DE-A2A5-83D1860F42F7";
shapes = (
{
closed = 1;
nodes = (
(100,1258,l),
(298,1592,l),
(412,1539,l),
(283,1170,l)
);
}
);
width = 512;
}
);
leftKerningGroup = at;
unicode = 8216;
},
{
glyphname = quoteright;
layers = (
{
anchors = (
{
name = top;
position = "{214, 1170}";
}
);
background = {
};
hints = (
{
horizontal = 1;
place = (1170,422);
type = Stem;
},
{
place = (100,312);
type = Stem;
}
);
layerId = "3916868A-960B-40DE-A2A5-83D1860F42F7";
shapes = (
{
closed = 1;
nodes = (
(100,1223,l),
(229,1592,l),
(412,1504,l),
(214,1170,l)
);
}
);
width = 512;
}
);
leftKerningGroup = at;
unicode = 8217;
},
{
glyphname = quotesinglbase;
layers = (
{
anchors = (
{
name = botton;
position = "{279, 212}";
}
);
background = {
};
hints = (
{
horizontal = 1;
place = (-202,414);
type = Stem;
},
{
place = (100,287);
type = Stem;
}
);
layerId = "3916868A-960B-40DE-A2A5-83D1860F42F7";
shapes = (
{
closed = 1;
nodes = (
(100,-202,l),
(175,212,l),
(387,212,l),
(258,-202,l)
);
}
);
width = 487;
}
);
leftKerningGroup = at;
unicode = 8218;
},
{
glyphname = quotedblleft;
layers = (
{
background = {
};
hints = (
{
horizontal = 1;
place = (1008,414);
type = Stem;
},
{
place = (100,637);
type = Stem;
}
);
layerId = "3916868A-960B-40DE-A2A5-83D1860F42F7";
shapes = (
{
closed = 1;
nodes = (
(100,1008,l),
(228,1422,l),
(386,1422,l),
(312,1008,l)
);
},
{
closed = 1;
nodes = (
(450,1008,l),
(578,1422,l),
(737,1422,l),
(662,1008,l)
);
}
);
width = 837;
}
);
leftKerningGroup = at;
unicode = 8220;
},
{
glyphname = quotedblright;
layers = (
{
background = {
};
hints = (
{
horizontal = 1;
place = (1008,414);
type = Stem;
},
{
place = (100,637);
type = Stem;
}
);
layerId = "3916868A-960B-40DE-A2A5-83D1860F42F7";
shapes = (
{
closed = 1;
nodes = (
(100,1008,l),
(174,1422,l),
(386,1422,l),
(258,1008,l)
);
},
{
closed = 1;
nodes = (
(450,1008,l),
(524,1422,l),
(737,1422,l),
(608,1008,l)
);
}
);
width = 837;
}
);
leftKerningGroup = at;
unicode = 8221;
},
{
glyphname = quotedblbase;
layers = (
{
background = {
};
hints = (
{
horizontal = 1;
place = (-202,414);
type = Stem;
},
{
place = (100,637);
type = Stem;
}
);
layerId = "3916868A-960B-40DE-A2A5-83D1860F42F7";
shapes = (
{
closed = 1;
nodes = (
(100,-202,l),
(175,212,l),
(387,212,l),
(258,-202,l)
);
},
{
closed = 1;
nodes = (
(450,-202,l),
(525,212,l),
(737,212,l),
(608,-202,l)
);
}
);
width = 837;
}
);
leftKerningGroup = at;
unicode = 8222;
},
{
glyphname = dagger;
layers = (
{
background = {
};
hints = (
{
horizontal = 1;
place = (0,21);
type = Stem;
},
{
horizontal = 1;
place = (817,211);
type = Stem;
},
{
horizontal = 1;
place = (1402,20);
type = Stem;
},
{
place = (505,210);
type = Stem;
}
);
layerId = "3916868A-960B-40DE-A2A5-83D1860F42F7";
shapes = (
{
closed = 1;
nodes = (
(100,817,l),
(100,1028,l),
(505,1028,l),
(505,1422,l),
(715,1422,l),
(715,1028,l),
(1119,1028,l),
(1119,817,l),
(715,817,l),
(715,0,l),
(505,0,l),
(505,817,l)
);
}
);
width = 1219;
}
);
leftKerningGroup = at;
unicode = 8224;
},
{
glyphname = daggerdbl;
layers = (
{
background = {
};
hints = (
{
horizontal = 1;
place = (0,21);
type = Stem;
},
{
horizontal = 1;
place = (404,210);
type = Stem;
},
{
horizontal = 1;
place = (817,211);
type = Stem;
},
{
horizontal = 1;
place = (1402,20);
type = Stem;
},
{
place = (505,210);
type = Stem;
}
);
layerId = "3916868A-960B-40DE-A2A5-83D1860F42F7";
shapes = (
{
closed = 1;
nodes = (
(100,404,l),
(100,614,l),
(505,614,l),
(505,817,l),
(100,817,l),
(100,1028,l),
(505,1028,l),
(505,1422,l),
(715,1422,l),
(715,1028,l),
(1119,1028,l),
(1119,817,l),
(715,817,l),
(715,614,l),
(1119,614,l),
(1119,404,l),
(715,404,l),
(715,0,l),
(505,0,l),
(505,404,l)
);
}
);
width = 1219;
}
);
leftKerningGroup = at;
unicode = 8225;
},
{
glyphname = bullet;
layers = (
{
background = {
};
hints = (
{
horizontal = 1;
place = (510,460);
type = Stem;
},
{
place = (120,460);
type = Stem;
}
);
layerId = "3916868A-960B-40DE-A2A5-83D1860F42F7";
shapes = (
{
closed = 1;
nodes = (
(120,868,o),
(222,970,o),
(350,970,cs),
(478,970,o),
(580,868,o),
(580,740,cs),
(580,612,o),
(478,510,o),
(350,510,cs),
(222,510,o),
(120,612,o),
(120,740,cs)
);
}
);
width = 700;
}
);
leftKerningGroup = at;
unicode = 8226;
},
{
glyphname = ellipsis;
layers = (
{
background = {
};
hints = (
{
horizontal = 1;
place = (-10,260);
type = Stem;
},
{
place = (120,260);
type = Stem;
},
{
place = (506,260);
type = Stem;
},
{
place = (892,260);
type = Stem;
}
);
layerId = "3916868A-960B-40DE-A2A5-83D1860F42F7";
shapes = (
{
closed = 1;
nodes = (
(120,192,o),
(178,250,o),
(250,250,cs),
(323,250,o),
(380,193,o),
(380,120,cs),
(380,47,o),
(323,-10,o),
(250,-10,cs),
(178,-10,o),
(120,48,o),
(120,120,cs)
);
},
{
closed = 1;
nodes = (
(506,192,o),
(564,250,o),
(636,250,cs),
(709,250,o),
(766,193,o),
(766,120,cs),
(766,47,o),
(709,-10,o),
(636,-10,cs),
(564,-10,o),
(506,48,o),
(506,120,cs)
);
},
{
closed = 1;
nodes = (
(892,192,o),
(950,250,o),
(1022,250,cs),
(1095,250,o),
(1152,193,o),
(1152,120,cs),
(1152,47,o),
(1095,-10,o),
(1022,-10,cs),
(950,-10,o),
(892,48,o),
(892,120,cs)
);
}
);
width = 1272;
}
);
leftKerningGroup = at;
unicode = 8230;
},
{
glyphname = perthousand;
layers = (
{
background = {
};
hints = (
{
horizontal = 1;
place = (0,188);
type = Stem;
},
{
horizontal = 1;
place = (579,188);
type = Stem;
},
{
horizontal = 1;
place = (655,188);
type = Stem;
},
{
horizontal = 1;
place = (1234,188);
type = Stem;
},
{
place = (120,189);
type = Stem;
},
{
place = (604,188);
type = Stem;
},
{
place = (1311,189);
type = Stem;
},
{
place = (1795,188);
type = Stem;
},
{
place = (2125,189);
type = Stem;
},
{
place = (2609,188);
type = Stem;
}
);
layerId = "3916868A-960B-40DE-A2A5-83D1860F42F7";
shapes = (
{
closed = 1;
nodes = (
(120,1141,ls),
(120,1296,o),
(246,1422,o),
(402,1422,cs),
(510,1422,ls),
(666,1422,o),
(792,1296,o),
(792,1141,cs),
(792,860,ls),
(792,705,o),
(666,579,o),
(510,579,cs),
(402,579,ls),
(246,579,o),
(120,705,o),
(120,860,cs)
);
},
{
closed = 1;
nodes = (
(309,859,ls),
(309,808,o),
(351,767,o),
(402,767,cs),
(510,767,ls),
(562,767,o),
(604,808,o),
(604,859,cs),
(604,1142,ls),
(604,1193,o),
(562,1234,o),
(510,1234,cs),
(402,1234,ls),
(351,1234,o),
(309,1193,o),
(309,1142,cs)
);
},
{
closed = 1;
nodes = (
(438,0,l),
(1434,1422,l),
(1664,1422,l),
(668,0,l)
);
},
{
closed = 1;
nodes = (
(1311,562,ls),
(1311,717,o),
(1437,843,o),
(1593,843,cs),
(1701,843,ls),
(1857,843,o),
(1983,717,o),
(1983,562,cs),
(1983,281,ls),
(1983,126,o),
(1857,0,o),
(1701,0,cs),
(1593,0,ls),
(1437,0,o),
(1311,126,o),
(1311,281,cs)
);
},
{
closed = 1;
nodes = (
(1500,280,ls),
(1500,229,o),
(1542,188,o),
(1593,188,cs),
(1701,188,ls),
(1753,188,o),
(1795,229,o),
(1795,280,cs),
(1795,563,ls),
(1795,614,o),
(1753,655,o),
(1701,655,cs),
(1593,655,ls),
(1542,655,o),
(1500,614,o),
(1500,563,cs)
);
},
{
closed = 1;
nodes = (
(2125,562,ls),
(2125,717,o),
(2251,843,o),
(2407,843,cs),
(2515,843,ls),
(2671,843,o),
(2797,717,o),
(2797,562,cs),
(2797,281,ls),
(2797,126,o),
(2671,0,o),
(2515,0,cs),
(2407,0,ls),
(2251,0,o),
(2125,126,o),
(2125,281,cs)
);
},
{
closed = 1;
nodes = (
(2314,280,ls),
(2314,229,o),
(2356,188,o),
(2407,188,cs),
(2515,188,ls),
(2567,188,o),
(2609,229,o),
(2609,280,cs),
(2609,563,ls),
(2609,614,o),
(2567,655,o),
(2515,655,cs),
(2407,655,ls),
(2356,655,o),
(2314,614,o),
(2314,563,cs)
);
}
);
width = 2917;
}
);
leftKerningGroup = at;
unicode = 8240;
},
{
glyphname = guilsinglleft;
layers = (
{
background = {
};
layerId = "3916868A-960B-40DE-A2A5-83D1860F42F7";
shapes = (
{
closed = 1;
nodes = (
(110,475,l),
(110,631,l),
(1120,998,l),
(1120,790,l),
(471,553,l),
(1120,317,l),
(1120,108,l)
);
}
);
width = 1230;
}
);
leftKerningGroup = at;
unicode = 8249;
},
{
glyphname = guilsinglright;
layers = (
{
background = {
};
layerId = "3916868A-960B-40DE-A2A5-83D1860F42F7";
shapes = (
{
closed = 1;
nodes = (
(110,108,l),
(110,317,l),
(759,553,l),
(110,790,l),
(110,998,l),
(1120,631,l),
(1120,475,l)
);
}
);
width = 1230;
}
);
leftKerningGroup = at;
unicode = 8250;
},
{
glyphname = fraction;
layers = (
{
background = {
};
hints = (
{
horizontal = 1;
place = (0,21);
type = Stem;
},
{
horizontal = 1;
place = (1402,20);
type = Stem;
}
);
layerId = "3916868A-960B-40DE-A2A5-83D1860F42F7";
shapes = (
{
closed = 1;
nodes = (
(-145,0,l),
(851,1422,l),
(1021,1422,l),
(25,0,l)
);
}
);
width = 876;
}
);
leftKerningGroup = at;
unicode = 8260;
},
{
glyphname = Euro;
layers = (
{
background = {
};
hints = (
{
horizontal = 1;
place = (0,211);
type = Stem;
},
{
horizontal = 1;
place = (464,188);
type = Stem;
},
{
horizontal = 1;
place = (771,188);
type = Stem;
},
{
horizontal = 1;
place = (1212,210);
type = Stem;
},
{
place = (212,211);
type = Stem;
}
);
layerId = "3916868A-960B-40DE-A2A5-83D1860F42F7";
shapes = (
{
closed = 1;
nodes = (
(45,464,l),
(45,652,l),
(212,652,l),
(212,771,l),
(45,771,l),
(45,959,l),
(212,959,l),
(212,1022,ls),
(212,1244,o),
(393,1422,o),
(618,1422,cs),
(1266,1422,l),
(1266,1212,l),
(618,1212,ls),
(510,1212,o),
(423,1127,o),
(423,1022,cs),
(423,959,l),
(970,959,l),
(970,771,l),
(423,771,l),
(423,652,l),
(970,652,l),
(970,464,l),
(423,464,l),
(423,396,ls),
(423,293,o),
(509,211,o),
(618,211,cs),
(1266,211,l),
(1266,0,l),
(618,0,ls),
(392,0,o),
(212,175,o),
(212,393,cs),
(212,464,l)
);
}
);
width = 1381;
}
);
leftKerningGroup = at;
unicode = 8364;
},
{
glyphname = trademark;
layers = (
{
background = {
};
hints = (
{
horizontal = 1;
place = (1296,126);
type = Stem;
},
{
place = (322,127);
type = Stem;
},
{
place = (722,127);
type = Stem;
},
{
place = (1186,127);
type = Stem;
}
);
layerId = "3916868A-960B-40DE-A2A5-83D1860F42F7";
shapes = (
{
closed = 1;
nodes = (
(120,1296,l),
(120,1422,l),
(647,1422,l),
(647,1296,l),
(449,1296,l),
(449,783,l),
(322,783,l),
(322,1296,l)
);
},
{
closed = 1;
nodes = (
(722,783,l),
(722,1422,l),
(831,1422,l),
(1017,1198,l),
(1204,1422,l),
(1313,1422,l),
(1313,783,l),
(1186,783,l),
(1186,1199,l),
(1063,1054,l),
(973,1054,l),
(849,1199,l),
(849,783,l)
);
}
);
width = 1433;
}
);
leftKerningGroup = T2;
unicode = 8482;
},
{
glyphname = partialdiff;
layers = (
{
background = {
};
hints = (
{
horizontal = 1;
place = (0,211);
type = Stem;
},
{
horizontal = 1;
place = (825,211);
type = Stem;
},
{
horizontal = 1;
place = (1217,206);
type = Stem;
},
{
place = (110,211);
type = Stem;
},
{
place = (851,211);
type = Stem;
}
);
layerId = "3916868A-960B-40DE-A2A5-83D1860F42F7";
shapes = (
{
closed = 1;
nodes = (
(110,662,ls),
(110,868,o),
(278,1036,o),
(484,1036,cs),
(731,1036,l),
(731,825,l),
(484,825,ls),
(394,825,o),
(321,751,o),
(321,660,cs),
(321,374,ls),
(321,284,o),
(394,211,o),
(484,211,cs),
(851,211,l),
(851,1050,ls),
(851,1142,o),
(779,1217,o),
(690,1217,cs),
(321,1217,l),
(321,1423,l),
(688,1423,ls),
(894,1423,o),
(1062,1255,o),
(1062,1049,cs),
(1062,211,ls),
(1062,95,o),
(967,0,o),
(851,0,cs),
(484,0,ls),
(278,0,o),
(110,167,o),
(110,372,cs)
);
}
);
width = 1182;
}
);
leftKerningGroup = at;
unicode = 8706;
},
{
glyphname = minus;
layers = (
{
background = {
};
hints = (
{
horizontal = 1;
place = (466,176);
type = Stem;
},
{
place = (110,627);
type = Stem;
}
);
layerId = "3916868A-960B-40DE-A2A5-83D1860F42F7";
shapes = (
{
closed = 1;
nodes = (
(110,466,l),
(110,642,l),
(737,642,l),
(737,466,l)
);
}
);
width = 847;
}
);
leftKerningGroup = at;
unicode = 8722;
},
{
glyphname = approxequal;
layers = (
{
background = {
};
hints = (
{
horizontal = 1;
place = (365,196);
type = Stem;
},
{
horizontal = 1;
place = (470,199);
type = Stem;
},
{
horizontal = 1;
place = (805,196);
type = Stem;
},
{
horizontal = 1;
place = (910,199);
type = Stem;
},
{
place = (110,203);
type = Stem;
},
{
place = (964,201);
type = Stem;
}
);
layerId = "3916868A-960B-40DE-A2A5-83D1860F42F7";
shapes = (
{
closed = 1;
nodes = (
(110,365,l),
(110,542,o),
(234,669,o),
(407,669,cs),
(489,669,o),
(569,650,o),
(683,604,cs),
(766,573,o),
(816,561,o),
(864,561,cs),
(928,561,o),
(963,599,o),
(964,670,c),
(1165,670,l),
(1163,477,o),
(1047,365,o),
(849,365,cs),
(772,365,o),
(705,381,o),
(561,433,cs),
(486,460,o),
(441,470,o),
(405,470,cs),
(344,470,o),
(313,435,o),
(313,365,c)
);
},
{
closed = 1;
nodes = (
(110,805,l),
(110,982,o),
(234,1109,o),
(407,1109,cs),
(489,1109,o),
(569,1090,o),
(683,1044,cs),
(766,1013,o),
(816,1001,o),
(864,1001,cs),
(928,1001,o),
(963,1039,o),
(964,1110,c),
(1165,1110,l),
(1163,917,o),
(1047,805,o),
(849,805,cs),
(772,805,o),
(705,821,o),
(561,873,cs),
(486,900,o),
(441,910,o),
(405,910,cs),
(344,910,o),
(313,875,o),
(313,805,c)
);
}
);
width = 1275;
}
);
leftKerningGroup = at;
unicode = 8776;
},
{
glyphname = fi;
layers = (
{
background = {
};
hints = (
{
horizontal = 1;
place = (0,21);
type = Stem;
},
{
horizontal = 1;
place = (826,210);
type = Stem;
},
{
horizontal = 1;
place = (1188,260);
type = Stem;
},
{
horizontal = 1;
place = (1212,210);
type = Stem;
},
{
place = (120,211);
type = Stem;
},
{
place = (815,260);
type = Stem;
},
{
place = (839,212);
type = Stem;
}
);
layerId = "3916868A-960B-40DE-A2A5-83D1860F42F7";
shapes = (
{
closed = 1;
nodes = (
(120,0,l),
(120,1125,ls),
(120,1289,o),
(254,1422,o),
(418,1422,cs),
(649,1422,l),
(649,1212,l),
(418,1212,ls),
(370,1212,o),
(331,1173,o),
(331,1125,cs),
(331,1036,l),
(1051,1036,l),
(1051,0,l),
(839,0,l),
(839,826,l),
(331,826,l),
(331,0,l)
);
},
{
closed = 1;
nodes = (
(815,1390,o),
(873,1448,o),
(945,1448,cs),
(1017,1448,o),
(1075,1390,o),
(1075,1318,cs),
(1075,1246,o),
(1017,1188,o),
(945,1188,cs),
(873,1188,o),
(815,1246,o),
(815,1318,cs)
);
}
);
width = 1175;
}
);
leftKerningGroup = at;
unicode = 64257;
},
{
glyphname = fl;
layers = (
{
background = {
};
hints = (
{
horizontal = 1;
place = (0,21);
type = Stem;
},
{
horizontal = 1;
place = (826,210);
type = Stem;
},
{
horizontal = 1;
place = (1212,210);
type = Stem;
},
{
place = (120,211);
type = Stem;
},
{
place = (839,211);
type = Stem;
}
);
layerId = "3916868A-960B-40DE-A2A5-83D1860F42F7";
shapes = (
{
closed = 1;
nodes = (
(120,0,l),
(120,1125,ls),
(120,1289,o),
(254,1422,o),
(418,1422,cs),
(1050,1422,l),
(1050,0,l),
(839,0,l),
(839,1212,l),
(418,1212,ls),
(370,1212,o),
(331,1173,o),
(331,1125,cs),
(331,1036,l),
(653,1036,l),
(653,826,l),
(331,826,l),
(331,0,l)
);
}
);
width = 1170;
}
);
leftKerningGroup = at;
unicode = 64258;
},
{
glyphname = brevecomb;
layers = (
{
anchors = (
{
name = top;
position = "{398, 1122}";
}
);
background = {
};
hints = (
{
horizontal = 1;
place = (1122,134);
type = Stem;
},
{
place = (100,134);
type = Stem;
},
{
place = (562,134);
type = Stem;
}
);
layerId = "3916868A-960B-40DE-A2A5-83D1860F42F7";
shapes = (
{
closed = 1;
nodes = (
(234,1420,l),
(234,1330,o),
(308,1256,o),
(398,1256,cs),
(488,1256,o),
(562,1330,o),
(562,1420,c),
(696,1420,l),
(696,1256,o),
(562,1122,o),
(398,1122,cs),
(234,1122,o),
(100,1256,o),
(100,1420,c)
);
}
);
width = 796;
}
);
unicode = 774;
},
{
glyphname = caroncomb;
layers = (
{
anchors = (
{
name = top;
position = "{412, 1113}";
}
);
background = {
};
hints = (
{
horizontal = 1;
place = (1113,309);
type = Stem;
},
{
place = (100,623);
type = Stem;
}
);
layerId = "3916868A-960B-40DE-A2A5-83D1860F42F7";
shapes = (
{
closed = 1;
nodes = (
(100,1422,l),
(241,1422,l),
(411,1250,l),
(582,1422,l),
(723,1422,l),
(489,1113,l),
(334,1113,l)
);
}
);
width = 823;
}
);
unicode = 780;
},
{
glyphname = caroncomb.alt;
layers = (
{
anchors = (
{
name = top;
position = "{412, 1113}";
}
);
background = {
};
hints = (
{
horizontal = 1;
place = (1113,309);
type = Stem;
},
{
place = (100,623);
type = Stem;
}
);
layerId = "3916868A-960B-40DE-A2A5-83D1860F42F7";
shapes = (
{
closed = 1;
nodes = (
(100,1422,l),
(241,1422,l),
(411,1250,l),
(582,1422,l),
(723,1422,l),
(489,1113,l),
(334,1113,l)
);
}
);
width = 823;
}
);
},
{
glyphname = uni030A;
layers = (
{
background = {
};
hints = (
{
horizontal = 1;
place = (1041,118);
type = Stem;
},
{
horizontal = 1;
place = (1304,118);
type = Stem;
},
{
place = (100,118);
type = Stem;
},
{
place = (362,118);
type = Stem;
}
);
layerId = "3916868A-960B-40DE-A2A5-83D1860F42F7";
shapes = (
{
closed = 1;
nodes = (
(100,1253,ls),
(100,1347,o),
(176,1422,o),
(270,1422,cs),
(310,1422,ls),
(404,1422,o),
(480,1347,o),
(480,1253,cs),
(480,1210,ls),
(480,1116,o),
(404,1041,o),
(310,1041,cs),
(270,1041,ls),
(176,1041,o),
(100,1116,o),
(100,1210,cs)
);
},
{
closed = 1;
nodes = (
(218,1210,ls),
(218,1182,o),
(241,1159,o),
(270,1159,cs),
(310,1159,ls),
(339,1159,o),
(362,1182,o),
(362,1210,cs),
(362,1253,ls),
(362,1281,o),
(339,1304,o),
(310,1304,cs),
(270,1304,ls),
(241,1304,o),
(218,1281,o),
(218,1253,cs)
);
}
);
width = 580;
}
);
unicode = 778;
},
{
glyphname = circumflexcomb;
layers = (
{
background = {
};
hints = (
{
horizontal = 1;
place = (1113,309);
type = Stem;
},
{
place = (100,623);
type = Stem;
}
);
layerId = "3916868A-960B-40DE-A2A5-83D1860F42F7";
shapes = (
{
closed = 1;
nodes = (
(100,1113,l),
(334,1422,l),
(489,1422,l),
(723,1113,l),
(582,1113,l),
(411,1285,l),
(241,1113,l)
);
}
);
width = 823;
}
);
unicode = 770;
},
{
glyphname = uni030B;
layers = (
{
background = {
};
hints = (
{
horizontal = 1;
place = (1151,271);
type = Stem;
},
{
place = (100,614);
type = Stem;
}
);
layerId = "3916868A-960B-40DE-A2A5-83D1860F42F7";
shapes = (
{
closed = 1;
nodes = (
(100,1151,l),
(240,1422,l),
(417,1422,l),
(246,1151,l)
);
},
{
closed = 1;
nodes = (
(397,1151,l),
(537,1422,l),
(714,1422,l),
(543,1151,l)
);
}
);
width = 814;
}
);
unicode = 779;
},
{
glyphname = gravecomb;
layers = (
{
anchors = (
{
name = top;
position = "{298, 1170}";
}
);
background = {
};
hints = (
{
horizontal = 1;
place = (1170,422);
type = Stem;
},
{
place = (100,312);
type = Stem;
}
);
layerId = "3916868A-960B-40DE-A2A5-83D1860F42F7";
shapes = (
{
closed = 1;
nodes = (
(100,1504,l),
(283,1592,l),
(412,1223,l),
(298,1170,l)
);
}
);
width = 512;
}
);
unicode = 768;
},
{
glyphname = uni0328;
layers = (
{
background = {
};
hints = (
{
horizontal = 1;
place = (-313,150);
type = Stem;
},
{
place = (128,151);
type = Stem;
}
);
layerId = "3916868A-960B-40DE-A2A5-83D1860F42F7";
shapes = (
{
closed = 1;
nodes = (
(128,-136,o),
(142,-75,o),
(170,0,c),
(318,0,l),
(286,-89,o),
(279,-112,o),
(279,-132,cs),
(279,-154,o),
(290,-163,o),
(320,-163,cs),
(337,-163,o),
(348,-162,o),
(430,-149,c),
(430,-297,l),
(342,-310,o),
(313,-313,o),
(280,-313,cs),
(176,-313,o),
(128,-272,o),
(128,-183,cs)
);
}
);
width = 490;
}
);
unicode = 808;
},
{
glyphname = macroncomb;
layers = (
{
anchors = (
{
name = top;
position = "{419, 1275}";
}
);
background = {
};
hints = (
{
horizontal = 1;
place = (1275,147);
type = Stem;
},
{
place = (120,597);
type = Stem;
}
);
layerId = "3916868A-960B-40DE-A2A5-83D1860F42F7";
shapes = (
{
closed = 1;
nodes = (
(120,1275,l),
(120,1422,l),
(717,1422,l),
(717,1275,l)
);
}
);
width = 837;
}
);
unicode = 772;
},
{
glyphname = tildecomb;
layers = (
{
anchors = (
{
name = top;
position = "{450, 1198}";
}
);
background = {
};
hints = (
{
horizontal = 1;
place = (1198,154);
type = Stem;
},
{
horizontal = 1;
place = (1279,148);
type = Stem;
},
{
place = (120,155);
type = Stem;
},
{
place = (621,157);
type = Stem;
}
);
layerId = "3916868A-960B-40DE-A2A5-83D1860F42F7";
shapes = (
{
closed = 1;
nodes = (
(120,1206,l),
(121,1334,o),
(202,1427,o),
(314,1427,cs),
(345,1427,o),
(377,1418,o),
(445,1390,cs),
(518,1360,o),
(545,1352,o),
(576,1352,cs),
(607,1352,o),
(621,1374,o),
(621,1422,c),
(778,1422,l),
(778,1298,o),
(693,1198,o),
(586,1198,cs),
(555,1198,o),
(523,1208,o),
(453,1238,cs),
(378,1270,o),
(351,1279,o),
(320,1279,cs),
(289,1279,o),
(275,1256,o),
(275,1206,c)
);
}
);
width = 898;
}
);
unicode = 771;
},
{
glyphname = periodcentered.loclCAT.case;
layers = (
{
background = {
};
hints = (
{
horizontal = 1;
place = (775,221);
type = Stem;
},
{
place = (120,221);
type = Stem;
}
);
layerId = "3916868A-960B-40DE-A2A5-83D1860F42F7";
shapes = (
{
closed = 1;
nodes = (
(120,947,o),
(169,996,o),
(230,996,cs),
(292,996,o),
(341,947,o),
(341,886,cs),
(341,824,o),
(292,775,o),
(230,775,cs),
(169,775,o),
(120,825,o),
(120,886,cs)
);
}
);
width = 461;
}
);
},
{
glyphname = periodcentered.loclCAT;
layers = (
{
background = {
};
hints = (
{
horizontal = 1;
place = (775,221);
type = Stem;
},
{
place = (120,221);
type = Stem;
}
);
layerId = "3916868A-960B-40DE-A2A5-83D1860F42F7";
shapes = (
{
closed = 1;
nodes = (
(120,947,o),
(169,996,o),
(230,996,cs),
(292,996,o),
(341,947,o),
(341,886,cs),
(341,824,o),
(292,775,o),
(230,775,cs),
(169,775,o),
(120,825,o),
(120,886,cs)
);
}
);
width = 461;
}
);
},
